<svg width="10" height="10" viewBox="0 0 10 10" fill="none" xmlns="http://www.w3.org/2000/svg">
<path d="M9.8872 4.7279L5.27196 0.112796C5.21817 0.0589488 5.14961 0.0222712 5.07496 0.00740658C5.00032 -0.00745806 4.92294 0.000158642 4.85263 0.0292924C4.78231 0.0584262 4.72222 0.107767 4.67997 0.171069C4.63771 0.23437 4.61519 0.308786 4.61525 0.384895V2.30786H3.46143C3.35943 2.30786 3.26161 2.34837 3.18948 2.4205C3.11735 2.49262 3.07683 2.59045 3.07683 2.69245V7.30755C3.07683 7.40955 3.11735 7.50738 3.18948 7.5795C3.26161 7.65163 3.35943 7.69214 3.46143 7.69214H4.61525V9.6151C4.61519 9.69121 4.63771 9.76563 4.67997 9.82893C4.72222 9.89223 4.78231 9.94157 4.85263 9.97071C4.92294 9.99984 5.00032 10.0075 5.07496 9.99259C5.14961 9.97773 5.21817 9.94105 5.27196 9.8872L9.8872 5.2721C9.92296 5.23638 9.95133 5.19396 9.97068 5.14728C9.99004 5.10059 10 5.05054 10 5C10 4.94946 9.99004 4.89941 9.97068 4.85272C9.95133 4.80604 9.92296 4.76362 9.8872 4.7279ZM5.38445 8.6868V7.30755C5.38445 7.20555 5.34393 7.10773 5.27181 7.0356C5.19968 6.96348 5.10185 6.92296 4.99985 6.92296H3.84604V3.07704H4.99985C5.10185 3.07704 5.19968 3.03652 5.27181 2.9644C5.34393 2.89227 5.38445 2.79445 5.38445 2.69245V1.3132L9.07136 5L5.38445 8.6868ZM0.769208 2.69245V7.30755C0.769208 7.40955 0.728687 7.50738 0.65656 7.5795C0.584432 7.65163 0.486607 7.69214 0.384604 7.69214C0.2826 7.69214 0.184775 7.65163 0.112648 7.5795C0.0405207 7.50738 0 7.40955 0 7.30755V2.69245C0 2.59045 0.0405207 2.49262 0.112648 2.4205C0.184775 2.34837 0.2826 2.30786 0.384604 2.30786C0.486607 2.30786 0.584432 2.34837 0.65656 2.4205C0.728687 2.49262 0.769208 2.59045 0.769208 2.69245ZM2.30762 2.69245V7.30755C2.30762 7.40955 2.2671 7.50738 2.19497 7.5795C2.12285 7.65163 2.02502 7.69214 1.92302 7.69214C1.82102 7.69214 1.72319 7.65163 1.65106 7.5795C1.57894 7.50738 1.53842 7.40955 1.53842 7.30755V2.69245C1.53842 2.59045 1.57894 2.49262 1.65106 2.4205C1.72319 2.34837 1.82102 2.30786 1.92302 2.30786C2.02502 2.30786 2.12285 2.34837 2.19497 2.4205C2.2671 2.49262 2.30762 2.59045 2.30762 2.69245Z" fill="#838181"/>
</svg>
