<svg width="24" height="18" viewBox="0 0 24 18" fill="none" xmlns="http://www.w3.org/2000/svg">
<path d="M23.0769 0H0.923077C0.678262 0 0.443473 0.0948213 0.270363 0.263604C0.0972524 0.432387 0 0.661305 0 0.9V16.2C0 16.6774 0.194505 17.1352 0.540726 17.4728C0.886947 17.8104 1.35652 18 1.84615 18H22.1538C22.6435 18 23.1131 17.8104 23.4593 17.4728C23.8055 17.1352 24 16.6774 24 16.2V0.9C24 0.661305 23.9027 0.432387 23.7296 0.263604C23.5565 0.0948213 23.3217 0 23.0769 0ZM12 9.57937L3.29654 1.8H20.7035L12 9.57937ZM8.62038 9L1.84615 15.0536V2.94638L8.62038 9ZM9.98654 10.2206L11.3712 11.4637C11.5415 11.6162 11.7642 11.7007 11.9954 11.7007C12.2266 11.7007 12.4493 11.6162 12.6196 11.4637L14.0042 10.2206L20.6965 16.2H3.29654L9.98654 10.2206ZM15.3796 9L22.1538 2.94525V15.0548L15.3796 9Z" fill="black"/>
</svg>
