<svg width="22" height="18" viewBox="0 0 22 18" fill="none" xmlns="http://www.w3.org/2000/svg">
<path d="M16.0769 3.27273H13.5385C13.314 3.27273 13.0988 3.35893 12.9401 3.51237C12.7815 3.66581 12.6923 3.87391 12.6923 4.09091V13.9091C12.6923 14.1261 12.7815 14.3342 12.9401 14.4876C13.0988 14.6411 13.314 14.7273 13.5385 14.7273H16.0769C17.6478 14.7273 19.1544 14.1239 20.2652 13.0498C21.376 11.9757 22 10.519 22 9C22 7.48103 21.376 6.02428 20.2652 4.95021C19.1544 3.87613 17.6478 3.27273 16.0769 3.27273ZM16.0769 13.0909H14.3846V4.90909H16.0769C17.199 4.90909 18.2751 5.3401 19.0685 6.10729C19.862 6.87448 20.3077 7.91502 20.3077 9C20.3077 10.085 19.862 11.1255 19.0685 11.8927C18.2751 12.6599 17.199 13.0909 16.0769 13.0909ZM9.30769 13.9091V9.81818H3.38462V13.9091C3.38462 14.1261 3.29547 14.3342 3.13678 14.4876C2.9781 14.6411 2.76288 14.7273 2.53846 14.7273C2.31405 14.7273 2.09883 14.6411 1.94014 14.4876C1.78146 14.3342 1.69231 14.1261 1.69231 13.9091V4.09091C1.69231 3.87391 1.78146 3.66581 1.94014 3.51237C2.09883 3.35893 2.31405 3.27273 2.53846 3.27273C2.76288 3.27273 2.9781 3.35893 3.13678 3.51237C3.29547 3.66581 3.38462 3.87391 3.38462 4.09091V8.18182H9.30769V4.09091C9.30769 3.87391 9.39684 3.66581 9.55552 3.51237C9.71421 3.35893 9.92943 3.27273 10.1538 3.27273C10.3783 3.27273 10.5935 3.35893 10.7522 3.51237C10.9109 3.66581 11 3.87391 11 4.09091V13.9091C11 14.1261 10.9109 14.3342 10.7522 14.4876C10.5935 14.6411 10.3783 14.7273 10.1538 14.7273C9.92943 14.7273 9.71421 14.6411 9.55552 14.4876C9.39684 14.3342 9.30769 14.1261 9.30769 13.9091ZM0 0.818182C0 0.601187 0.0891481 0.393079 0.247833 0.23964C0.406517 0.0862012 0.62174 0 0.846154 0H21.1538C21.3783 0 21.5935 0.0862012 21.7522 0.23964C21.9109 0.393079 22 0.601187 22 0.818182C22 1.03518 21.9109 1.24328 21.7522 1.39672C21.5935 1.55016 21.3783 1.63636 21.1538 1.63636H0.846154C0.62174 1.63636 0.406517 1.55016 0.247833 1.39672C0.0891481 1.24328 0 1.03518 0 0.818182ZM22 17.1818C22 17.3988 21.9109 17.6069 21.7522 17.7604C21.5935 17.9138 21.3783 18 21.1538 18H0.846154C0.62174 18 0.406517 17.9138 0.247833 17.7604C0.0891481 17.6069 0 17.3988 0 17.1818C0 16.9648 0.0891481 16.7567 0.247833 16.6033C0.406517 16.4498 0.62174 16.3636 0.846154 16.3636H21.1538C21.3783 16.3636 21.5935 16.4498 21.7522 16.6033C21.9109 16.7567 22 16.9648 22 17.1818Z" fill="black"/>
</svg>
