<svg width="22" height="22" viewBox="0 0 22 22" fill="none" xmlns="http://www.w3.org/2000/svg">
<path d="M21.2143 10.2143H20.3952C20.2066 7.9941 19.239 5.91211 17.6635 4.33655C16.0879 2.76099 14.0059 1.79337 11.7857 1.60482V0.785714C11.7857 0.57733 11.7029 0.37748 11.5556 0.23013C11.4082 0.0827803 11.2084 0 11 0C10.7916 0 10.5918 0.0827803 10.4444 0.23013C10.2971 0.37748 10.2143 0.57733 10.2143 0.785714V1.60482C7.9941 1.79337 5.91211 2.76099 4.33655 4.33655C2.76099 5.91211 1.79337 7.9941 1.60482 10.2143H0.785714C0.57733 10.2143 0.37748 10.2971 0.23013 10.4444C0.0827803 10.5918 0 10.7916 0 11C0 11.2084 0.0827803 11.4082 0.23013 11.5556C0.37748 11.7029 0.57733 11.7857 0.785714 11.7857H1.60482C1.79337 14.0059 2.76099 16.0879 4.33655 17.6635C5.91211 19.239 7.9941 20.2066 10.2143 20.3952V21.2143C10.2143 21.4227 10.2971 21.6225 10.4444 21.7699C10.5918 21.9172 10.7916 22 11 22C11.2084 22 11.4082 21.9172 11.5556 21.7699C11.7029 21.6225 11.7857 21.4227 11.7857 21.2143V20.3952C14.0059 20.2066 16.0879 19.239 17.6635 17.6635C19.239 16.0879 20.2066 14.0059 20.3952 11.7857H21.2143C21.4227 11.7857 21.6225 11.7029 21.7699 11.5556C21.9172 11.4082 22 11.2084 22 11C22 10.7916 21.9172 10.5918 21.7699 10.4444C21.6225 10.2971 21.4227 10.2143 21.2143 10.2143ZM11.7857 18.8179V18.0714C11.7857 17.863 11.7029 17.6632 11.5556 17.5158C11.4082 17.3685 11.2084 17.2857 11 17.2857C10.7916 17.2857 10.5918 17.3685 10.4444 17.5158C10.2971 17.6632 10.2143 17.863 10.2143 18.0714V18.8179C8.41193 18.634 6.72818 17.834 5.4471 16.5529C4.16602 15.2718 3.36605 13.5881 3.18214 11.7857H3.92857C4.13696 11.7857 4.3368 11.7029 4.48416 11.5556C4.63151 11.4082 4.71429 11.2084 4.71429 11C4.71429 10.7916 4.63151 10.5918 4.48416 10.4444C4.3368 10.2971 4.13696 10.2143 3.92857 10.2143H3.18214C3.36605 8.41193 4.16602 6.72818 5.4471 5.4471C6.72818 4.16602 8.41193 3.36605 10.2143 3.18214V3.92857C10.2143 4.13696 10.2971 4.3368 10.4444 4.48416C10.5918 4.63151 10.7916 4.71429 11 4.71429C11.2084 4.71429 11.4082 4.63151 11.5556 4.48416C11.7029 4.3368 11.7857 4.13696 11.7857 3.92857V3.18214C13.5881 3.36605 15.2718 4.16602 16.5529 5.4471C17.834 6.72818 18.634 8.41193 18.8179 10.2143H18.0714C17.863 10.2143 17.6632 10.2971 17.5158 10.4444C17.3685 10.5918 17.2857 10.7916 17.2857 11C17.2857 11.2084 17.3685 11.4082 17.5158 11.5556C17.6632 11.7029 17.863 11.7857 18.0714 11.7857H18.8179C18.634 13.5881 17.834 15.2718 16.5529 16.5529C15.2718 17.834 13.5881 18.634 11.7857 18.8179ZM11 7.07143C10.223 7.07143 9.46345 7.30184 8.8174 7.73351C8.17135 8.16519 7.66782 8.77875 7.37047 9.4966C7.07313 10.2145 6.99533 11.0044 7.14691 11.7664C7.2985 12.5285 7.67266 13.2285 8.22208 13.7779C8.7715 14.3273 9.47151 14.7015 10.2336 14.8531C10.9956 15.0047 11.7855 14.9269 12.5034 14.6295C13.2213 14.3322 13.8348 13.8286 14.2665 13.1826C14.6982 12.5365 14.9286 11.777 14.9286 11C14.9286 9.95808 14.5147 8.95883 13.7779 8.22208C13.0412 7.48533 12.0419 7.07143 11 7.07143ZM11 13.3571C10.5338 13.3571 10.0781 13.2189 9.69044 12.9599C9.30281 12.7009 9.00069 12.3328 8.82228 11.902C8.64388 11.4713 8.5972 10.9974 8.68815 10.5401C8.7791 10.0829 9.0036 9.6629 9.33325 9.33325C9.6629 9.0036 10.0829 8.7791 10.5401 8.68815C10.9974 8.5972 11.4713 8.64388 11.902 8.82228C12.3328 9.00069 12.7009 9.30281 12.9599 9.69044C13.2189 10.0781 13.3571 10.5338 13.3571 11C13.3571 11.6252 13.1088 12.2247 12.6668 12.6668C12.2247 13.1088 11.6252 13.3571 11 13.3571Z" fill="black"/>
</svg>
