<svg width="10" height="10" viewBox="0 0 10 10" fill="none" xmlns="http://www.w3.org/2000/svg">
<path d="M9.99869 5.42067C9.91693 6.37119 9.5654 7.27858 8.98546 8.0361C8.40551 8.79362 7.62128 9.36974 6.72503 9.69669C5.82877 10.0236 4.85778 10.0878 3.9263 9.88167C2.99481 9.67552 2.14157 9.20762 1.46697 8.53303C0.792375 7.85843 0.324477 7.00519 0.118328 6.0737C-0.0878208 5.14222 -0.0236444 4.17123 0.303307 3.27497C0.630258 2.37872 1.20638 1.59449 1.9639 1.01454C2.72142 0.434599 3.62881 0.0830673 4.57933 0.00130743C4.62986 -0.00286183 4.68073 0.0029636 4.72901 0.0184512C4.7773 0.0339388 4.82206 0.0587853 4.86074 0.0915719C4.89943 0.124359 4.93127 0.164443 4.95446 0.209537C4.97765 0.254632 4.99174 0.303852 4.99591 0.354389C5.00007 0.404925 4.99425 0.455788 4.97876 0.504073C4.96327 0.552359 4.93843 0.59712 4.90564 0.635803C4.87285 0.674486 4.83277 0.706333 4.78768 0.729524C4.74258 0.752715 4.69336 0.766798 4.64282 0.770967C3.83833 0.840089 3.07032 1.13755 2.42914 1.62835C1.78797 2.11915 1.30032 2.78287 1.02356 3.54142C0.746804 4.29996 0.692457 5.12178 0.866916 5.91016C1.04137 6.69855 1.43738 7.4207 2.00834 7.99166C2.5793 8.56262 3.30145 8.95862 4.08984 9.13308C4.87822 9.30754 5.70004 9.2532 6.45858 8.97644C7.21713 8.69968 7.88085 8.21203 8.37165 7.57086C8.86245 6.92968 9.15991 6.16167 9.22903 5.35717C9.23745 5.25511 9.28607 5.16057 9.3642 5.09436C9.44232 5.02814 9.54355 4.99567 9.64561 5.00409C9.74767 5.01251 9.84221 5.06113 9.90843 5.13926C9.97464 5.21738 10.0071 5.31861 9.99869 5.42067ZM4.61108 2.31029V5.00409C4.61108 5.10616 4.65162 5.20404 4.72379 5.27621C4.79596 5.34838 4.89384 5.38892 4.99591 5.38892H7.68971C7.79178 5.38892 7.88966 5.34838 7.96183 5.27621C8.034 5.20404 8.07454 5.10616 8.07454 5.00409C8.07454 4.90203 8.034 4.80415 7.96183 4.73198C7.88966 4.65981 7.79178 4.61926 7.68971 4.61926H5.38074V2.31029C5.38074 2.20822 5.34019 2.11034 5.26802 2.03817C5.19585 1.966 5.09797 1.92546 4.99591 1.92546C4.89384 1.92546 4.79596 1.966 4.72379 2.03817C4.65162 2.11034 4.61108 2.20822 4.61108 2.31029ZM6.53522 1.1558C6.64939 1.1558 6.761 1.12194 6.85592 1.05851C6.95085 0.995085 7.02484 0.904932 7.06853 0.799454C7.11222 0.693976 7.12365 0.577912 7.10138 0.465937C7.0791 0.353963 7.02413 0.251108 6.9434 0.170378C6.86267 0.0896494 6.75981 0.0346722 6.64784 0.0123991C6.53586 -0.00987404 6.4198 0.00155733 6.31432 0.0452476C6.20885 0.0889379 6.11869 0.162925 6.05526 0.257852C5.99183 0.352779 5.95798 0.464384 5.95798 0.578552C5.95798 0.731647 6.0188 0.878471 6.12705 0.986726C6.23531 1.09498 6.38213 1.1558 6.53522 1.1558ZM8.26696 2.31029C8.38113 2.31029 8.49273 2.27643 8.58766 2.213C8.68258 2.14957 8.75657 2.05942 8.80026 1.95394C8.84395 1.84847 8.85538 1.7324 8.83311 1.62043C8.81084 1.50845 8.75586 1.4056 8.67513 1.32487C8.5944 1.24414 8.49155 1.18916 8.37957 1.16689C8.2676 1.14462 8.15153 1.15605 8.04606 1.19974C7.94058 1.24343 7.85043 1.31741 7.787 1.41234C7.72357 1.50727 7.68971 1.61887 7.68971 1.73304C7.68971 1.88614 7.75053 2.03296 7.85878 2.14121C7.96704 2.24947 8.11386 2.31029 8.26696 2.31029ZM9.42145 4.04202C9.53561 4.04202 9.64722 4.00816 9.74215 3.94474C9.83707 3.88131 9.91106 3.79115 9.95475 3.68568C9.99844 3.5802 10.0099 3.46413 9.9876 3.35216C9.96533 3.24019 9.91035 3.13733 9.82962 3.0566C9.74889 2.97587 9.64604 2.9209 9.53406 2.89862C9.42209 2.87635 9.30602 2.88778 9.20055 2.93147C9.09507 2.97516 9.00491 3.04915 8.94149 3.14408C8.87806 3.239 8.8442 3.35061 8.8442 3.46477C8.8442 3.61787 8.90502 3.76469 9.01327 3.87295C9.12153 3.9812 9.26835 4.04202 9.42145 4.04202Z" fill="#939393"/>
</svg>
