<svg width="23" height="19" viewBox="0 0 23 19" fill="none" xmlns="http://www.w3.org/2000/svg">
<path d="M22.3108 6.25594L17.0608 0.255937C16.9906 0.175765 16.9041 0.111472 16.8071 0.0673399C16.7102 0.0232083 16.6049 0.000251947 16.4983 0H5.99831C5.89175 0.000251947 5.78647 0.0232083 5.68948 0.0673399C5.59248 0.111472 5.50601 0.175765 5.43581 0.255937L0.185811 6.25594C0.0633332 6.39577 -0.00285054 6.57611 9.4205e-05 6.76197C0.00303895 6.94784 0.0749024 7.12599 0.201748 7.26188L10.7017 18.5119C10.7719 18.5871 10.8568 18.6471 10.9512 18.6881C11.0455 18.7291 11.1473 18.7503 11.2502 18.7503C11.3531 18.7503 11.4548 18.7291 11.5492 18.6881C11.6435 18.6471 11.7284 18.5871 11.7986 18.5119L22.2986 7.26188C22.4249 7.12552 22.4961 6.94712 22.4984 6.76125C22.5006 6.57539 22.4338 6.39531 22.3108 6.25594ZM20.0955 6H16.1233L12.7483 1.5H16.158L20.0955 6ZM6.24019 7.5L9.06487 14.5622L2.47425 7.5H6.24019ZM14.6402 7.5L11.2483 15.9806L7.85644 7.5H14.6402ZM8.24831 6L11.2483 1.99969L14.2483 6H8.24831ZM16.2564 7.5H20.0224L13.4317 14.5622L16.2564 7.5ZM6.33862 1.5H9.74831L6.37331 6H2.40112L6.33862 1.5Z" fill="black"/>
</svg>
