<svg width="40" height="40" viewBox="0 0 40 40" fill="none" xmlns="http://www.w3.org/2000/svg">
<path d="M20 0C16.0444 0 12.1776 1.17298 8.8886 3.37061C5.59962 5.56823 3.03617 8.69181 1.52242 12.3463C0.00866569 16.0008 -0.387401 20.0222 0.384303 23.9018C1.15601 27.7814 3.06082 31.3451 5.85787 34.1421C8.65492 36.9392 12.2186 38.844 16.0982 39.6157C19.9778 40.3874 23.9991 39.9913 27.6537 38.4776C31.3082 36.9638 34.4318 34.4004 36.6294 31.1114C38.827 27.8224 40 23.9556 40 20C39.9944 14.6974 37.8855 9.61356 34.136 5.86405C30.3864 2.11453 25.3026 0.00559965 20 0ZM20 3.07692C22.8165 3.07809 25.5882 3.78221 28.0638 5.12545C30.5394 6.46869 32.6406 8.40858 34.1769 10.7692H20C18.0569 10.7714 16.1638 11.3857 14.5896 12.5249C13.0155 13.6641 11.8402 15.2703 11.2308 17.1154L6.79232 9.42307C8.37651 7.44198 10.3863 5.84286 12.6727 4.74428C14.9591 3.6457 17.4634 3.07583 20 3.07692ZM26.1538 20C26.1538 21.2171 25.7929 22.4069 25.1167 23.4189C24.4405 24.4309 23.4794 25.2196 22.355 25.6854C21.2305 26.1512 19.9932 26.273 18.7994 26.0356C17.6057 25.7981 16.5092 25.2121 15.6486 24.3514C14.7879 23.4908 14.2019 22.3943 13.9644 21.2006C13.727 20.0068 13.8488 18.7695 14.3146 17.645C14.7804 16.5206 15.5691 15.5595 16.5811 14.8833C17.5931 14.2071 18.7829 13.8462 20 13.8462C21.6321 13.8462 23.1974 14.4945 24.3514 15.6486C25.5055 16.8026 26.1538 18.3679 26.1538 20ZM3.07693 20C3.07373 17.3353 3.70387 14.708 4.91539 12.3346L12.0058 24.6154C12.0173 24.6346 12.0308 24.6519 12.0423 24.6692C13.0195 26.3366 14.4955 27.6551 16.262 28.439C18.0285 29.2229 19.9965 29.4326 21.8885 29.0385L17.4462 36.7308C13.4489 36.115 9.80349 34.0901 7.16837 31.022C4.53326 27.9538 3.08209 24.0444 3.07693 20ZM20.9019 36.8981L27.9942 24.6154C28.0096 24.5885 28.0212 24.5615 28.0365 24.5346C28.988 22.8567 29.3885 20.9223 29.1815 19.0045C28.9745 17.0867 28.1704 15.2824 26.8827 13.8462H35.7692C36.7426 16.3402 37.1104 19.0296 36.8423 21.6935C36.5743 24.3573 35.678 26.9196 34.2272 29.1697C32.7763 31.4198 30.8124 33.2936 28.4966 34.6371C26.1808 35.9806 23.5793 36.7555 20.9058 36.8981H20.9019Z" fill="#F7AF1A"/>
</svg>
