<svg width="41" height="45" viewBox="0 0 41 45" fill="none" xmlns="http://www.w3.org/2000/svg">
<path d="M39.4913 12.6216L27.3174 0.506251C27.1558 0.345576 26.9639 0.218167 26.7528 0.131303C26.5417 0.0444389 26.3154 -0.000178245 26.087 5.35151e-07H5.21739C4.2949 5.35151e-07 3.41019 0.364697 2.75789 1.01386C2.10559 1.66303 1.73913 2.54348 1.73913 3.46154V19.0385C1.73913 19.4975 1.92236 19.9377 2.24851 20.2623C2.57466 20.5869 3.01701 20.7692 3.47826 20.7692C3.93951 20.7692 4.38186 20.5869 4.70801 20.2623C5.03416 19.9377 5.21739 19.4975 5.21739 19.0385V3.46154H24.3478V13.8462C24.3478 14.3052 24.5311 14.7454 24.8572 15.07C25.1834 15.3946 25.6257 15.5769 26.087 15.5769H36.5217V41.5385H34.7826C34.3214 41.5385 33.879 41.7208 33.5529 42.0454C33.2267 42.37 33.0435 42.8102 33.0435 43.2692C33.0435 43.7283 33.2267 44.1685 33.5529 44.4931C33.879 44.8177 34.3214 45 34.7826 45H36.5217C37.4442 45 38.3289 44.6353 38.9812 43.9861C39.6335 43.337 40 42.4565 40 41.5385V13.8462C40.0002 13.6188 39.9553 13.3936 39.8681 13.1835C39.7808 12.9734 39.6528 12.7825 39.4913 12.6216ZM27.8261 5.90841L34.063 12.1154H27.8261V5.90841ZM26.9304 26.1779C26.6587 26.0283 26.3517 25.9538 26.0413 25.9621C25.7309 25.9705 25.4284 26.0614 25.1652 26.2255L20.8283 28.9212C20.7073 28.0996 20.2936 27.3487 19.6627 26.8054C19.0318 26.2621 18.2256 25.9626 17.3913 25.9615H3.47826C2.55577 25.9615 1.67106 26.3262 1.01876 26.9754C0.366458 27.6246 0 28.505 0 29.4231V39.8077C0 40.7257 0.366458 41.6062 1.01876 42.2554C1.67106 42.9045 2.55577 43.2692 3.47826 43.2692H17.3913C18.2256 43.2681 19.0318 42.9686 19.6627 42.4253C20.2936 41.882 20.7073 41.1312 20.8283 40.3096L25.1652 43.0053C25.4284 43.169 25.7308 43.2596 26.0411 43.2678C26.3514 43.2759 26.6582 43.2013 26.9297 43.0516C27.2012 42.9019 27.4275 42.6827 27.5851 42.4166C27.7427 42.1506 27.8259 41.8473 27.8261 41.5385V27.6923C27.8262 27.3833 27.7433 27.0799 27.5858 26.8136C27.4282 26.5472 27.202 26.3278 26.9304 26.1779ZM17.3913 39.8077H3.47826V29.4231H17.3913V39.8077ZM24.3478 38.4166L20.8696 36.2531V32.9776L24.3478 30.8142V38.4166Z" fill="#F7AF1A"/>
</svg>
