<svg width="41" height="49" viewBox="0 0 41 49" fill="none" xmlns="http://www.w3.org/2000/svg">
<path d="M40.4549 13.7436L27.4094 0.551251C27.2362 0.376294 27.0306 0.23756 26.8044 0.142974C26.5782 0.048389 26.3357 -0.000194089 26.0909 5.8272e-07H3.72727C2.73874 5.8272e-07 1.79069 0.397115 1.09169 1.10398C0.392693 1.81085 0 2.76957 0 3.76923V45.2308C0 46.2304 0.392693 47.1892 1.09169 47.896C1.79069 48.6029 2.73874 49 3.72727 49H37.2727C38.2613 49 39.2093 48.6029 39.9083 47.896C40.6073 47.1892 41 46.2304 41 45.2308V15.0769C41.0002 14.8294 40.9522 14.5842 40.8586 14.3554C40.7651 14.1266 40.6279 13.9187 40.4549 13.7436ZM27.9545 6.43361L34.638 13.1923H27.9545V6.43361ZM37.2727 45.2308H3.72727V3.76923H24.2273V15.0769C24.2273 15.5768 24.4236 16.0561 24.7731 16.4095C25.1226 16.763 25.5966 16.9615 26.0909 16.9615H37.2727V45.2308Z" fill="#F7AF1A"/>
<path d="M20.5 20.531C18.4035 20.531 16.354 21.1756 14.6108 22.3833C12.8675 23.591 11.5089 25.3076 10.7065 27.316C9.90423 29.3243 9.69431 31.5343 10.1033 33.6663C10.5123 35.7984 11.5219 37.7568 13.0044 39.2939C14.4869 40.8311 16.3757 41.8779 18.432 42.302C20.4882 42.7261 22.6196 42.5084 24.5566 41.6765C26.4936 40.8446 28.1491 39.4359 29.3139 37.6284C30.4787 35.8209 31.1004 33.6959 31.1004 31.5221C31.0972 28.6081 29.9793 25.8144 27.992 23.7539C26.0048 21.6934 23.3104 20.5343 20.5 20.531ZM20.5 40.6813C18.7529 40.6813 17.045 40.1441 15.5923 39.1377C14.1396 38.1313 13.0074 36.7008 12.3388 35.0272C11.6702 33.3535 11.4953 31.5119 11.8361 29.7352C12.177 27.9585 13.0183 26.3265 14.2537 25.0455C15.4891 23.7646 17.0631 22.8923 18.7766 22.5388C20.4902 22.1854 22.2664 22.3668 23.8805 23.0601C25.4946 23.7533 26.8743 24.9273 27.8449 26.4335C28.8156 27.9397 29.3336 29.7106 29.3336 31.5221C29.331 33.9504 28.3995 36.2785 26.7434 37.9956C25.0874 39.7127 22.842 40.6786 20.5 40.6813ZM25.5418 26.2944C25.6239 26.3795 25.6891 26.4805 25.7335 26.5917C25.778 26.7029 25.8009 26.8221 25.8009 26.9425C25.8009 27.0628 25.778 27.182 25.7335 27.2932C25.6891 27.4044 25.6239 27.5054 25.5418 27.5905L21.125 32.1701C21.0429 32.2552 20.9455 32.3227 20.8382 32.3688C20.731 32.4148 20.6161 32.4385 20.5 32.4385C20.3839 32.4385 20.269 32.4148 20.1618 32.3688C20.0545 32.3227 19.9571 32.2552 19.875 32.1701C19.793 32.085 19.7278 31.984 19.6834 31.8728C19.639 31.7616 19.6162 31.6424 19.6162 31.5221C19.6162 31.4017 19.639 31.2826 19.6834 31.1714C19.7278 31.0602 19.793 30.9592 19.875 30.8741L24.2918 26.2944C24.3739 26.2093 24.4713 26.1417 24.5785 26.0956C24.6858 26.0495 24.8007 26.0258 24.9168 26.0258C25.0329 26.0258 25.1479 26.0495 25.2551 26.0956C25.3623 26.1417 25.4598 26.2093 25.5418 26.2944ZM16.9666 17.7832C16.9666 17.5403 17.0596 17.3073 17.2253 17.1356C17.3909 16.9638 17.6156 16.8673 17.8499 16.8673H23.1501C23.3844 16.8673 23.6091 16.9638 23.7747 17.1356C23.9404 17.3073 24.0335 17.5403 24.0335 17.7832C24.0335 18.0261 23.9404 18.2591 23.7747 18.4309C23.6091 18.6027 23.3844 18.6992 23.1501 18.6992H17.8499C17.6156 18.6992 17.3909 18.6027 17.2253 18.4309C17.0596 18.2591 16.9666 18.0261 16.9666 17.7832Z" fill="#F7AF1A"/>
</svg>
