<svg width="81" height="80" viewBox="0 0 81 80" fill="none" xmlns="http://www.w3.org/2000/svg">
<g clip-path="url(#clip0_154_481)">
<path opacity="0.25" d="M61.5833 19.0625C62.0863 19.6158 62.1671 20.2003 62.1497 20.9259C61.9738 21.7914 61.5216 22.534 61.1109 23.3087C60.1804 25.0736 59.9126 27.1758 60.3761 29.123C60.816 30.2425 61.9541 31.0088 62.8423 31.7668C65.7723 34.3198 67.8616 38.0736 69.0833 41.7188C69.2813 41.7228 69.4793 41.7268 69.6833 41.731C72.7494 41.8219 72.7494 41.8219 73.9076 42.9297C74.724 44.1784 74.7781 45.2551 74.7706 46.7139C74.771 46.9068 74.7715 47.0998 74.772 47.2986C74.7723 47.7052 74.7714 48.1117 74.7694 48.5183C74.7669 49.1386 74.7694 49.7588 74.7724 50.3791C74.7721 50.7752 74.7715 51.1713 74.7706 51.5674C74.7715 51.7518 74.7725 51.9363 74.7735 52.1263C74.7632 53.3421 74.6206 54.2228 73.9759 55.2735C73.2766 55.9539 72.5385 56.2852 71.5589 56.3111C71.2805 56.307 71.0022 56.2996 70.724 56.2891C70.5806 56.2863 70.4371 56.2834 70.2894 56.2805C69.9393 56.2732 69.5895 56.263 69.2396 56.25C69.2029 56.405 69.2029 56.405 69.1655 56.5632C68.88 57.6945 68.4723 58.7094 67.9603 59.7559C67.8453 59.9926 67.8453 59.9926 67.7281 60.2341C67.166 61.3723 66.5713 62.4244 65.8021 63.4375C65.736 63.525 65.67 63.6125 65.6019 63.7026C64.4813 65.1789 63.341 66.616 61.9276 67.8235C59.7757 69.7084 58.1045 71.9428 57.6771 74.8438C57.629 75.7112 57.6273 76.5798 57.6298 77.4484C57.6033 78.9237 57.6033 78.9237 57.143 79.4904C56.5221 80.0343 56.0935 80.0247 55.2996 80.0277C55.1834 80.0287 55.0673 80.0297 54.9476 80.0308C54.5625 80.0339 54.1774 80.0357 53.7922 80.0373C53.6607 80.0379 53.5293 80.0385 53.3938 80.0392C52.6979 80.0424 52.002 80.0447 51.3061 80.0461C50.5873 80.0479 49.8686 80.0532 49.1499 80.0595C48.5972 80.0635 48.0445 80.0648 47.4919 80.0654C47.2269 80.0662 46.962 80.068 46.697 80.0709C46.326 80.0747 45.9551 80.0745 45.584 80.0735C45.4202 80.0765 45.4202 80.0765 45.2531 80.0795C44.5088 80.0716 44.1395 79.897 43.6146 79.375C43.3236 78.932 43.2641 78.599 43.2716 78.0738C43.2731 77.8864 43.2731 77.8864 43.2746 77.6953C43.2785 77.502 43.2785 77.502 43.2826 77.3047C43.284 77.1734 43.2854 77.0421 43.2868 76.9068C43.2905 76.5837 43.2961 76.2606 43.3021 75.9375C43.2048 75.9488 43.1075 75.9601 43.0073 75.9717C40.4773 76.2258 37.671 76.3268 35.1771 75.7813C35.1825 75.9734 35.188 76.1656 35.1936 76.3635C35.198 76.6187 35.2022 76.8738 35.2064 77.1289C35.2103 77.2552 35.2142 77.3815 35.2183 77.5116C35.2279 78.3036 35.1621 78.8521 34.7083 79.5313C34.254 79.9833 33.8864 80.0559 33.2525 80.067C33.1437 80.0666 33.0349 80.0661 32.9228 80.0656C32.8069 80.067 32.691 80.0683 32.5715 80.0696C32.1888 80.0733 31.8062 80.0735 31.4234 80.0733C31.1568 80.0744 30.8902 80.0756 30.6236 80.0769C30.0649 80.079 29.5061 80.0792 28.9474 80.0783C28.2324 80.0774 27.5177 80.0822 26.8027 80.0885C26.2521 80.0925 25.7014 80.093 25.1508 80.0924C24.8873 80.0927 24.6237 80.0942 24.3602 80.097C23.9911 80.1004 23.6222 80.0989 23.253 80.0962C23.1449 80.0982 23.0367 80.1003 22.9253 80.1024C22.0582 80.0875 21.6977 79.817 21.1146 79.2188C20.9757 78.8021 20.9265 78.5008 20.8967 78.0689C20.5843 73.9972 19.3827 70.6658 16.5306 67.6803C11.4496 62.2678 9.06846 54.8715 9.21899 47.5827C9.32386 44.7753 10.1264 41.9331 11.2708 39.375C11.9026 39.4719 12.3647 39.8161 12.8822 40.166C18.2602 43.6955 24.6376 45.0026 30.976 43.7555C35.6033 42.771 39.6001 40.6151 42.9896 37.3438C43.1227 37.2205 43.2559 37.0972 43.393 36.9702C44.5132 35.9047 45.3999 34.7077 46.2708 33.4375C46.382 33.277 46.4932 33.1165 46.6078 32.9511C48.0376 30.7637 48.9493 28.2934 49.6211 25.7798C50.2858 23.3922 51.782 21.6658 53.9229 20.4499C55.9229 19.3886 59.484 17.6788 61.5833 19.0625ZM56.4271 37.9688C55.7722 38.7916 55.5749 39.4217 55.6458 40.4688C55.9375 41.3094 56.4502 41.8907 57.2083 42.3438C57.9562 42.5975 58.57 42.5719 59.2884 42.2461C59.9185 41.8846 60.3204 41.4321 60.6458 40.7813C60.7273 39.9643 60.7463 39.275 60.3919 38.5254C59.6937 37.7721 59.0619 37.3896 58.0378 37.3188C57.4076 37.3625 56.9267 37.589 56.4271 37.9688Z" fill="#667EEA"/>
<path d="M26.1146 -0.0586455C26.2853 -0.0585959 26.2853 -0.0585959 26.4594 -0.0585454C28.2852 -0.0532601 29.9852 0.100894 31.7396 0.624948C32.0339 0.704407 32.0339 0.704407 32.3341 0.785471C35.3921 1.69384 38.0318 3.45086 40.3333 5.62495C40.4506 5.7321 40.5678 5.83926 40.6886 5.94966C44.3009 9.37191 46.2632 14.4115 46.4619 19.3255C46.6022 24.8154 44.7481 30.0044 40.9845 34.0216C38.4282 36.6846 35.5429 38.5097 32.013 39.5898C31.8913 39.6271 31.7696 39.6644 31.6443 39.7029C29.8599 40.2168 28.083 40.3699 26.2318 40.3613C25.9335 40.36 25.9335 40.36 25.6292 40.3586C20.1999 40.2888 15.4462 37.9499 11.554 34.2382C7.87579 30.4209 5.87876 25.14 5.91172 19.8603C6.04093 14.5368 8.07747 9.76989 11.7396 5.93745C11.8409 5.82445 11.9422 5.71146 12.0466 5.59504C14.6173 2.83686 18.2473 1.09589 21.8958 0.312448C22.0199 0.283923 22.1439 0.255397 22.2717 0.226007C23.5468 -0.0410541 24.8173 -0.0621233 26.1146 -0.0586455ZM24.7083 6.56977C24.5037 6.96948 24.5647 7.28868 24.6063 7.72582C24.6489 8.31538 24.6499 8.83176 24.3958 9.37495C23.7578 9.95121 22.962 10.2495 22.1778 10.5767C20.9598 11.1038 20.2518 12.0011 19.7089 13.1872C19.1761 14.5681 19.0535 15.9584 19.5777 17.362C20.8419 20.0728 23.345 21.0256 25.9727 22.1092C27.6925 22.8279 27.6925 22.8279 28.1916 23.5894C28.44 24.3017 28.3869 25.0398 28.1654 25.7519C27.4258 26.5132 26.43 26.7558 25.3919 26.7968C23.8129 26.7398 22.1518 26.321 20.7703 25.5529C20.4822 25.4363 20.4822 25.4363 20.1744 25.5807C19.7931 25.8275 19.7445 25.9725 19.6272 26.405C19.5932 26.528 19.5593 26.6511 19.5243 26.7779C19.4916 26.9066 19.4589 27.0353 19.4251 27.1679C19.3715 27.3592 19.3715 27.3592 19.3168 27.5543C19.0845 28.3858 19.0845 28.3858 19.2396 29.2187C20.5688 30.1846 22.5099 30.4217 24.0833 30.7812C24.091 30.9431 24.0986 31.1051 24.1065 31.2719C24.1183 31.486 24.1301 31.7 24.1419 31.914C24.1468 32.0206 24.1516 32.1271 24.1566 32.2369C24.1953 33.0463 24.1953 33.0463 24.5521 33.7499C25.0247 33.9444 25.5199 33.9368 26.0267 33.9453C26.1715 33.9493 26.3163 33.9533 26.4655 33.9575C27.009 33.8927 27.2711 33.8109 27.6771 33.4374C27.7492 32.9694 27.7794 32.5767 27.7747 32.1093C27.7747 30.8534 27.7747 30.8534 28.0456 30.5198C28.3957 30.2367 28.759 30.1157 29.181 29.9609C30.9105 29.2611 32.1244 28.1458 32.8822 26.4355C33.4891 24.7652 33.3691 23.2331 32.6478 21.6149C31.5386 19.5793 29.7743 18.7293 27.7464 17.8273C27.1485 17.5593 26.5573 17.2788 25.9681 16.9921C25.8657 16.9445 25.7632 16.8968 25.6577 16.8477C24.8966 16.4764 24.4069 16.0488 24.0931 15.2539C24.0785 14.6388 24.2397 14.2771 24.5521 13.7499C25.9389 13.0048 27.6187 13.0987 29.1126 13.496C29.5061 13.6187 29.8764 13.7552 30.2534 13.9221C30.6711 14.0715 30.9871 14.0876 31.4271 14.0624C32.0948 12.4679 32.0948 12.4679 32.3646 10.7812C32.0098 10.1969 31.3136 10.0922 30.6947 9.91206C30.588 9.87953 30.4814 9.847 30.3715 9.81349C29.8173 9.64655 29.2637 9.49968 28.6994 9.37068C28.5167 9.32052 28.3341 9.27037 28.1458 9.2187C27.8466 8.62033 27.9335 7.87673 27.9078 7.21675C27.8832 7.05239 27.8587 6.88803 27.8333 6.7187C27.2685 6.34217 26.8455 6.35426 26.1927 6.35737C26.087 6.35485 25.9812 6.35233 25.8723 6.34974C25.4394 6.34931 25.0955 6.36714 24.7083 6.56977Z" fill="#8DB7FF"/>
</g>
<defs>
<clipPath id="clip0_154_481">
<rect width="80" height="80" fill="white" transform="translate(0.333313)"/>
</clipPath>
</defs>
</svg>