<svg width="24" height="24" viewBox="0 0 24 24" fill="none" xmlns="http://www.w3.org/2000/svg">
<path d="M11.0769 12.9231V6.46154C11.0769 6.21673 11.1742 5.98194 11.3473 5.80883C11.5204 5.63572 11.7552 5.53847 12 5.53847C12.2448 5.53847 12.4796 5.63572 12.6527 5.80883C12.8258 5.98194 12.9231 6.21673 12.9231 6.46154V12.9231C12.9231 13.1679 12.8258 13.4027 12.6527 13.5758C12.4796 13.7489 12.2448 13.8462 12 13.8462C11.7552 13.8462 11.5204 13.7489 11.3473 13.5758C11.1742 13.4027 11.0769 13.1679 11.0769 12.9231ZM24 7.79424V16.2058C24.0008 16.4483 23.9533 16.6886 23.8604 16.9126C23.7675 17.1366 23.631 17.34 23.4588 17.5108L17.5108 23.4588C17.34 23.631 17.1366 23.7675 16.9126 23.8604C16.6886 23.9533 16.4483 24.0008 16.2058 24H7.79424C7.55171 24.0008 7.31144 23.9533 7.08741 23.8604C6.86338 23.7675 6.66005 23.631 6.48924 23.4588L0.541163 17.5108C0.368986 17.34 0.232479 17.1366 0.139578 16.9126C0.0466766 16.6886 -0.000765506 16.4483 9.34028e-06 16.2058V7.79424C-0.000765506 7.55171 0.0466766 7.31144 0.139578 7.08741C0.232479 6.86338 0.368986 6.66005 0.541163 6.48924L6.48924 0.541163C6.66005 0.368986 6.86338 0.232479 7.08741 0.139578C7.31144 0.0466766 7.55171 -0.000765506 7.79424 9.34028e-06H16.2058C16.4483 -0.000765506 16.6886 0.0466766 16.9126 0.139578C17.1366 0.232479 17.34 0.368986 17.5108 0.541163L23.4588 6.48924C23.631 6.66005 23.7675 6.86338 23.8604 7.08741C23.9533 7.31144 24.0008 7.55171 24 7.79424ZM22.1538 7.79424L16.2058 1.84616H7.79424L1.84616 7.79424V16.2058L7.79424 22.1538H16.2058L22.1538 16.2058V7.79424ZM12 15.6923C11.7262 15.6923 11.4584 15.7735 11.2308 15.9257C11.0031 16.0778 10.8256 16.294 10.7208 16.5471C10.616 16.8001 10.5886 17.0785 10.642 17.347C10.6954 17.6156 10.8273 17.8623 11.0209 18.056C11.2146 18.2496 11.4613 18.3815 11.7299 18.4349C11.9985 18.4884 12.2769 18.4609 12.5299 18.3561C12.7829 18.2513 12.9991 18.0739 13.1513 17.8462C13.3034 17.6185 13.3846 17.3508 13.3846 17.0769C13.3846 16.7097 13.2387 16.3575 12.9791 16.0979C12.7194 15.8382 12.3672 15.6923 12 15.6923Z" fill="#FF4040"/>
</svg>
