<svg width="128" height="49" viewBox="0 0 128 49" fill="none" xmlns="http://www.w3.org/2000/svg">
<path opacity="0.4" fill-rule="evenodd" clip-rule="evenodd" d="M0 34.8985V25.92H2.752C2.88 27.168 3.312 28.128 4.048 28.8C4.784 29.44 5.744 29.76 6.928 29.76C8.144 29.76 9.104 29.488 9.808 28.944C10.512 28.368 10.864 27.584 10.864 26.592C10.864 25.76 10.576 25.072 10 24.528C9.456 23.984 8.768 23.536 7.936 23.184C7.136 22.832 5.984 22.432 4.48 21.984C2.79152 21.4625 1.34388 20.9411 0.13709 20.4196C0.470197 17.3034 1.39975 14.3655 2.80936 11.7223C2.88305 12.6909 3.39193 13.4554 4.336 14.016C5.36 14.624 6.96 15.28 9.136 15.984C11.312 16.72 13.072 17.424 14.416 18.096C15.792 18.768 16.976 19.744 17.968 21.024C18.96 22.304 19.456 23.952 19.456 25.968C19.456 27.888 18.96 29.632 17.968 31.2C17.008 32.768 15.6 34.016 13.744 34.944C11.888 35.872 9.696 36.336 7.168 36.336C4.704 36.336 2.496 35.936 0.544 35.136C0.359226 35.0602 0.177893 34.9811 0 34.8985ZM11.4895 2.51454C8.89514 4.10231 6.62575 6.16908 4.80435 8.59183C5.19509 8.46392 5.63097 8.39996 6.112 8.39996C7.264 8.39996 8.208 8.71996 8.944 9.35996C9.68 9.96796 10.08 10.816 10.144 11.904H19.024C18.864 8.73596 17.648 6.27196 15.376 4.51196C14.2556 3.62826 12.9601 2.96245 11.4895 2.51454ZM39.4352 36V29.04H36.5073C35.6113 29.04 34.9713 28.864 34.5872 28.512C34.2033 28.16 34.0112 27.584 34.0112 26.784V16.032H39.3872V9.21596H34.0112V2.68796H25.8032V9.21596H22.5392V16.032H25.8032V26.688C25.8032 29.984 26.6353 32.368 28.2992 33.84C29.9632 35.28 32.2832 36 35.2593 36H39.4352ZM69.1113 24.576C69.2073 23.744 69.2552 22.944 69.2552 22.176C69.2552 19.488 68.6793 17.136 67.5273 15.12C66.4072 13.104 64.8392 11.552 62.8232 10.464C60.8073 9.37596 58.5033 8.83196 55.9113 8.83196C53.2552 8.83196 50.9033 9.39196 48.8553 10.512C46.8073 11.632 45.2072 13.232 44.0552 15.312C42.9352 17.392 42.3753 19.824 42.3753 22.608C42.3753 25.392 42.9512 27.824 44.1032 29.904C45.2552 31.984 46.8553 33.584 48.9033 34.704C50.9513 35.824 53.2873 36.384 55.9113 36.384C58.0872 36.384 60.0553 35.984 61.8153 35.184C63.5753 34.384 65.0312 33.28 66.1833 31.872C67.3672 30.464 68.1833 28.88 68.6313 27.12H59.8952C59.0953 28.848 57.6712 29.712 55.6233 29.712C54.2472 29.712 53.0793 29.28 52.1193 28.416C51.1912 27.52 50.6632 26.24 50.5353 24.576H69.1113ZM59.4153 16.656C60.3753 17.488 60.8553 18.608 60.8553 20.016H50.5833C50.8073 18.544 51.3833 17.408 52.3112 16.608C53.2713 15.808 54.4393 15.408 55.8153 15.408C57.2552 15.408 58.4552 15.824 59.4153 16.656ZM85.1054 9.98396C83.6974 10.752 82.5934 11.76 81.7934 13.008V9.21596H73.5854V48.768H81.7934V32.256C82.5934 33.472 83.6974 34.464 85.1054 35.232C86.5454 36 88.1934 36.384 90.0494 36.384C92.2574 36.384 94.2574 35.824 96.0494 34.704C97.8414 33.552 99.2494 31.936 100.273 29.856C101.329 27.744 101.857 25.312 101.857 22.56C101.857 19.808 101.329 17.392 100.273 15.312C99.2494 13.232 97.8414 11.632 96.0494 10.512C94.2574 9.39196 92.2574 8.83196 90.0494 8.83196C88.1614 8.83196 86.5134 9.21596 85.1054 9.98396ZM91.7774 17.76C92.9294 18.912 93.5054 20.512 93.5054 22.56C93.5054 24.608 92.9294 26.24 91.7774 27.456C90.6254 28.64 89.2334 29.232 87.6014 29.232C85.9694 29.232 84.5774 28.64 83.4254 27.456C82.3054 26.272 81.7454 24.656 81.7454 22.608C81.7454 20.56 82.3054 18.944 83.4254 17.76C84.5774 16.576 85.9694 15.984 87.6014 15.984C89.2654 15.984 90.6574 16.576 91.7774 17.76ZM114.655 0.959961V8.59196H119.407V36H127.951V0.959961H114.655Z" fill="#8DB7FF"/>
</svg>