<svg width="168" height="56" viewBox="0 0 168 56" fill="none" xmlns="http://www.w3.org/2000/svg">
<path d="M23.9941 32.1094C23.9941 31.3477 23.877 30.6641 23.6426 30.0586C23.4277 29.4336 23.0176 28.8672 22.4121 28.3594C21.8066 27.832 20.957 27.3145 19.8633 26.8066C18.7695 26.2988 17.3535 25.7715 15.6152 25.2246C13.6816 24.5996 11.8457 23.8965 10.1074 23.1152C8.38867 22.334 6.86523 21.4258 5.53711 20.3906C4.22852 19.3359 3.19336 18.1152 2.43164 16.7285C1.68945 15.3418 1.31836 13.7305 1.31836 11.8945C1.31836 10.1172 1.70898 8.50586 2.49023 7.06055C3.27148 5.5957 4.36523 4.3457 5.77148 3.31055C7.17773 2.25586 8.83789 1.44531 10.752 0.878906C12.6855 0.3125 14.8047 0.0292969 17.1094 0.0292969C20.2539 0.0292969 22.998 0.595703 25.3418 1.72852C27.6855 2.86133 29.502 4.41406 30.791 6.38672C32.0996 8.35937 32.7539 10.6152 32.7539 13.1543H24.0234C24.0234 11.9043 23.7598 10.8105 23.2324 9.87305C22.7246 8.91602 21.9434 8.16406 20.8887 7.61719C19.8535 7.07031 18.5449 6.79688 16.9629 6.79688C15.4395 6.79688 14.1699 7.03125 13.1543 7.5C12.1387 7.94922 11.377 8.56445 10.8691 9.3457C10.3613 10.1074 10.1074 10.9668 10.1074 11.9238C10.1074 12.6465 10.2832 13.3008 10.6348 13.8867C11.0059 14.4727 11.5527 15.0195 12.2754 15.5273C12.998 16.0352 13.8867 16.5137 14.9414 16.9629C15.9961 17.4121 17.2168 17.8516 18.6035 18.2812C20.9277 18.9844 22.9688 19.7754 24.7266 20.6543C26.5039 21.5332 27.9883 22.5195 29.1797 23.6133C30.3711 24.707 31.2695 25.9473 31.875 27.334C32.4805 28.7207 32.7832 30.293 32.7832 32.0508C32.7832 33.9062 32.4219 35.5664 31.6992 37.0312C30.9766 38.4961 29.9316 39.7363 28.5645 40.752C27.1973 41.7676 25.5664 42.5391 23.6719 43.0664C21.7773 43.5938 19.6582 43.8574 17.3145 43.8574C15.2051 43.8574 13.125 43.584 11.0742 43.0371C9.02344 42.4707 7.1582 41.6211 5.47852 40.4883C3.81836 39.3555 2.49023 37.9102 1.49414 36.1523C0.498047 34.3945 0 32.3145 0 29.9121H8.81836C8.81836 31.2402 9.02344 32.3633 9.43359 33.2812C9.84375 34.1992 10.4199 34.9414 11.1621 35.5078C11.9238 36.0742 12.8223 36.4844 13.8574 36.7383C14.9121 36.9922 16.0645 37.1191 17.3145 37.1191C18.8379 37.1191 20.0879 36.9043 21.0645 36.4746C22.0605 36.0449 22.793 35.4492 23.2617 34.6875C23.75 33.9258 23.9941 33.0664 23.9941 32.1094ZM53.7598 11.5723V17.5488H35.3027V11.5723H53.7598ZM39.873 3.75H48.3105V33.7207C48.3105 34.6387 48.4277 35.3418 48.6621 35.8301C48.916 36.3184 49.2871 36.6602 49.7754 36.8555C50.2637 37.0312 50.8789 37.1191 51.6211 37.1191C52.1484 37.1191 52.6172 37.0996 53.0273 37.0605C53.457 37.002 53.8184 36.9434 54.1113 36.8848L54.1406 43.0957C53.418 43.3301 52.6367 43.5156 51.7969 43.6523C50.957 43.7891 50.0293 43.8574 49.0137 43.8574C47.1582 43.8574 45.5371 43.5547 44.1504 42.9492C42.7832 42.3242 41.7285 41.3281 40.9863 39.9609C40.2441 38.5938 39.873 36.7969 39.873 34.5703V3.75ZM73.1543 43.8574C70.6934 43.8574 68.4863 43.4668 66.5332 42.6855C64.5801 41.8848 62.9199 40.7812 61.5527 39.375C60.2051 37.9688 59.1699 36.3379 58.4473 34.4824C57.7246 32.6074 57.3633 30.6152 57.3633 28.5059V27.334C57.3633 24.9316 57.7051 22.7344 58.3887 20.7422C59.0723 18.75 60.0488 17.0215 61.3184 15.5566C62.6074 14.0918 64.1699 12.9688 66.0059 12.1875C67.8418 11.3867 69.9121 10.9863 72.2168 10.9863C74.4629 10.9863 76.4551 11.3574 78.1934 12.0996C79.9316 12.8418 81.3867 13.8965 82.5586 15.2637C83.75 16.6309 84.6484 18.2715 85.2539 20.1855C85.8594 22.0801 86.1621 24.1895 86.1621 26.5137V30.0293H60.9668V24.4043H77.8711V23.7598C77.8711 22.5879 77.6562 21.543 77.2266 20.625C76.8164 19.6875 76.1914 18.9453 75.3516 18.3984C74.5117 17.8516 73.4375 17.5781 72.1289 17.5781C71.0156 17.5781 70.0586 17.8223 69.2578 18.3105C68.457 18.7988 67.8027 19.4824 67.2949 20.3613C66.8066 21.2402 66.4355 22.2754 66.1816 23.4668C65.9473 24.6387 65.8301 25.9277 65.8301 27.334V28.5059C65.8301 29.7754 66.0059 30.9473 66.3574 32.0215C66.7285 33.0957 67.2461 34.0234 67.9102 34.8047C68.5938 35.5859 69.4141 36.1914 70.3711 36.6211C71.3477 37.0508 72.4512 37.2656 73.6816 37.2656C75.2051 37.2656 76.6211 36.9727 77.9297 36.3867C79.2578 35.7812 80.4004 34.873 81.3574 33.6621L85.459 38.1152C84.7949 39.0723 83.8867 39.9902 82.7344 40.8691C81.6016 41.748 80.2344 42.4707 78.6328 43.0371C77.0312 43.584 75.2051 43.8574 73.1543 43.8574ZM99.4043 17.666V55.459H90.9668V11.5723H98.7891L99.4043 17.666ZM119.473 27.0703V27.6855C119.473 29.9902 119.199 32.1289 118.652 34.1016C118.125 36.0742 117.344 37.793 116.309 39.2578C115.273 40.7031 113.984 41.8359 112.441 42.6562C110.918 43.457 109.16 43.8574 107.168 43.8574C105.234 43.8574 103.555 43.4668 102.129 42.6855C100.703 41.9043 99.502 40.8105 98.5254 39.4043C97.5684 37.9785 96.7969 36.3281 96.2109 34.4531C95.625 32.5781 95.1758 30.5664 94.8633 28.418V26.8066C95.1758 24.502 95.625 22.3926 96.2109 20.4785C96.7969 18.5449 97.5684 16.875 98.5254 15.4688C99.502 14.043 100.693 12.9395 102.1 12.1582C103.525 11.377 105.195 10.9863 107.109 10.9863C109.121 10.9863 110.889 11.3672 112.412 12.1289C113.955 12.8906 115.244 13.9844 116.279 15.4102C117.334 16.8359 118.125 18.5352 118.652 20.5078C119.199 22.4805 119.473 24.668 119.473 27.0703ZM111.006 27.6855V27.0703C111.006 25.7227 110.889 24.4824 110.654 23.3496C110.439 22.1973 110.088 21.1914 109.6 20.332C109.131 19.4727 108.506 18.8086 107.725 18.3398C106.963 17.8516 106.035 17.6074 104.941 17.6074C103.789 17.6074 102.803 17.793 101.982 18.1641C101.182 18.5352 100.527 19.0723 100.02 19.7754C99.5117 20.4785 99.1309 21.3184 98.877 22.2949C98.623 23.2715 98.4668 24.375 98.4082 25.6055V29.6777C98.5059 31.123 98.7793 32.4219 99.2285 33.5742C99.6777 34.707 100.371 35.6055 101.309 36.2695C102.246 36.9336 103.477 37.2656 105 37.2656C106.113 37.2656 107.051 37.0215 107.812 36.5332C108.574 36.0254 109.189 35.332 109.658 34.4531C110.146 33.5742 110.488 32.5586 110.684 31.4062C110.898 30.2539 111.006 29.0137 111.006 27.6855ZM147.949 18.2812H152.461C153.906 18.2812 155.098 18.0371 156.035 17.5488C156.973 17.041 157.666 16.3379 158.115 15.4395C158.584 14.5215 158.818 13.457 158.818 12.2461C158.818 11.1523 158.604 10.1855 158.174 9.3457C157.764 8.48633 157.129 7.82227 156.27 7.35352C155.41 6.86523 154.326 6.62109 153.018 6.62109C151.982 6.62109 151.025 6.82617 150.146 7.23633C149.268 7.64648 148.564 8.22266 148.037 8.96484C147.51 9.70703 147.246 10.6055 147.246 11.6602H138.779C138.779 9.31641 139.404 7.27539 140.654 5.53711C141.924 3.79883 143.623 2.44141 145.752 1.46484C147.881 0.488281 150.225 0 152.783 0C155.674 0 158.203 0.46875 160.371 1.40625C162.539 2.32422 164.229 3.68164 165.439 5.47852C166.65 7.27539 167.256 9.50195 167.256 12.1582C167.256 13.5059 166.943 14.8145 166.318 16.084C165.693 17.334 164.795 18.4668 163.623 19.4824C162.471 20.4785 161.064 21.2793 159.404 21.8848C157.744 22.4707 155.879 22.7637 153.809 22.7637H147.949V18.2812ZM147.949 24.6973V20.332H153.809C156.133 20.332 158.174 20.5957 159.932 21.123C161.689 21.6504 163.164 22.4121 164.355 23.4082C165.547 24.3848 166.445 25.5469 167.051 26.8945C167.656 28.2227 167.959 29.6973 167.959 31.3184C167.959 33.3105 167.578 35.0879 166.816 36.6504C166.055 38.1934 164.98 39.502 163.594 40.5762C162.227 41.6504 160.625 42.4707 158.789 43.0371C156.953 43.584 154.951 43.8574 152.783 43.8574C150.986 43.8574 149.219 43.6133 147.48 43.125C145.762 42.6172 144.199 41.8652 142.793 40.8691C141.406 39.8535 140.293 38.584 139.453 37.0605C138.633 35.5176 138.223 33.6914 138.223 31.582H146.689C146.689 32.6758 146.963 33.6523 147.51 34.5117C148.057 35.3711 148.809 36.0449 149.766 36.5332C150.742 37.0215 151.826 37.2656 153.018 37.2656C154.365 37.2656 155.518 37.0215 156.475 36.5332C157.451 36.0254 158.193 35.3223 158.701 34.4238C159.229 33.5059 159.492 32.4414 159.492 31.2305C159.492 29.668 159.209 28.418 158.643 27.4805C158.076 26.5234 157.266 25.8203 156.211 25.3711C155.156 24.9219 153.906 24.6973 152.461 24.6973H147.949Z" fill="#F7AF1A" fill-opacity="0.2"/>
</svg>
