<svg width="24" height="24" viewBox="0 0 24 24" fill="none" xmlns="http://www.w3.org/2000/svg">
<path d="M22.1538 1H1.84615C1.35652 1 0.886947 1.20156 0.540726 1.56033C0.194505 1.9191 0 2.40571 0 2.91309V22.044C8.39911e-05 22.207 0.0403783 22.3673 0.117057 22.5097C0.193737 22.652 0.304255 22.7717 0.438122 22.8574C0.571988 22.943 0.724759 22.9918 0.881931 22.999C1.0391 23.0063 1.19546 22.9718 1.33615 22.8989L4.61538 21.1998L7.89462 22.8989C8.02286 22.9654 8.16429 23 8.30769 23C8.4511 23 8.59253 22.9654 8.72077 22.8989L12 21.1998L15.2792 22.8989C15.4075 22.9654 15.5489 23 15.6923 23C15.8357 23 15.9771 22.9654 16.1054 22.8989L19.3846 21.1998L22.6638 22.8989C22.8045 22.9718 22.9609 23.0063 23.1181 22.999C23.2752 22.9918 23.428 22.943 23.5619 22.8574C23.6957 22.7717 23.8063 22.652 23.8829 22.5097C23.9596 22.3673 23.9999 22.207 24 22.044V2.91309C24 2.40571 23.8055 1.9191 23.4593 1.56033C23.1131 1.20156 22.6435 1 22.1538 1ZM22.1538 20.4968L19.7977 19.2748C19.6694 19.2083 19.528 19.1737 19.3846 19.1737C19.2412 19.1737 19.0998 19.2083 18.9715 19.2748L15.6923 20.975L12.4131 19.2748C12.2848 19.2083 12.1434 19.1737 12 19.1737C11.8566 19.1737 11.7152 19.2083 11.5869 19.2748L8.30769 20.975L5.02846 19.2748C4.90022 19.2083 4.75879 19.1737 4.61538 19.1737C4.47198 19.1737 4.33055 19.2083 4.20231 19.2748L1.84615 20.4968V2.91309H22.1538V20.4968ZM12.9231 9.6089C12.9231 9.3552 13.0203 9.1119 13.1934 8.93252C13.3665 8.75313 13.6013 8.65235 13.8462 8.65235H19.3846C19.6294 8.65235 19.8642 8.75313 20.0373 8.93252C20.2104 9.1119 20.3077 9.3552 20.3077 9.6089C20.3077 9.86259 20.2104 10.1059 20.0373 10.2853C19.8642 10.4647 19.6294 10.5654 19.3846 10.5654H13.8462C13.6013 10.5654 13.3665 10.4647 13.1934 10.2853C13.0203 10.1059 12.9231 9.86259 12.9231 9.6089ZM12.9231 13.4351C12.9231 13.1814 13.0203 12.9381 13.1934 12.7587C13.3665 12.5793 13.6013 12.4785 13.8462 12.4785H19.3846C19.6294 12.4785 19.8642 12.5793 20.0373 12.7587C20.2104 12.9381 20.3077 13.1814 20.3077 13.4351C20.3077 13.6888 20.2104 13.9321 20.0373 14.1115C19.8642 14.2908 19.6294 14.3916 19.3846 14.3916H13.8462C13.6013 14.3916 13.3665 14.2908 13.1934 14.1115C13.0203 13.9321 12.9231 13.6888 12.9231 13.4351ZM4.61538 16.3047H10.1538C10.3987 16.3047 10.6334 16.2039 10.8066 16.0245C10.9797 15.8452 11.0769 15.6019 11.0769 15.3482V7.69581C11.0769 7.44212 10.9797 7.19882 10.8066 7.01943C10.6334 6.84004 10.3987 6.73926 10.1538 6.73926H4.61538C4.37057 6.73926 4.13578 6.84004 3.96267 7.01943C3.78956 7.19882 3.69231 7.44212 3.69231 7.69581V15.3482C3.69231 15.6019 3.78956 15.8452 3.96267 16.0245C4.13578 16.2039 4.37057 16.3047 4.61538 16.3047ZM5.53846 8.65235H9.23077V14.3916H5.53846V8.65235Z" fill="black"/>
</svg>
