<svg width="24" height="24" viewBox="0 0 24 24" fill="none" xmlns="http://www.w3.org/2000/svg">
<path d="M22.1538 0H1.84615C1.35652 0 0.886947 0.21988 0.540726 0.611269C0.194505 1.00266 0 1.5335 0 2.087V22.9571C8.39911e-05 23.1349 0.0403783 23.3098 0.117057 23.4651C0.193737 23.6204 0.304255 23.7509 0.438122 23.8444C0.571988 23.9378 0.724759 23.991 0.881931 23.999C1.0391 24.0069 1.19546 23.9693 1.33615 23.8897L4.61538 22.0362L7.89462 23.8897C8.02286 23.9622 8.16429 24 8.30769 24C8.4511 24 8.59253 23.9622 8.72077 23.8897L12 22.0362L15.2792 23.8897C15.4075 23.9622 15.5489 24 15.6923 24C15.8357 24 15.9771 23.9622 16.1054 23.8897L19.3846 22.0362L22.6638 23.8897C22.8045 23.9693 22.9609 24.0069 23.1181 23.999C23.2752 23.991 23.428 23.9378 23.5619 23.8444C23.6957 23.7509 23.8063 23.6204 23.8829 23.4651C23.9596 23.3098 23.9999 23.1349 24 22.9571V2.087C24 1.5335 23.8055 1.00266 23.4593 0.611269C23.1131 0.21988 22.6435 0 22.1538 0ZM22.1538 21.2692L19.7977 19.9361C19.6694 19.8636 19.528 19.8258 19.3846 19.8258C19.2412 19.8258 19.0998 19.8636 18.9715 19.9361L15.6923 21.7909L12.4131 19.9361C12.2848 19.8636 12.1434 19.8258 12 19.8258C11.8566 19.8258 11.7152 19.8636 11.5869 19.9361L8.30769 21.7909L5.02846 19.9361C4.90022 19.8636 4.75879 19.8258 4.61538 19.8258C4.47198 19.8258 4.33055 19.8636 4.20231 19.9361L1.84615 21.2692V2.087H22.1538V21.2692ZM12.9231 9.39152C12.9231 9.11477 13.0203 8.84935 13.1934 8.65365C13.3665 8.45796 13.6013 8.34802 13.8462 8.34802H19.3846C19.6294 8.34802 19.8642 8.45796 20.0373 8.65365C20.2104 8.84935 20.3077 9.11477 20.3077 9.39152C20.3077 9.66828 20.2104 9.93369 20.0373 10.1294C19.8642 10.3251 19.6294 10.435 19.3846 10.435H13.8462C13.6013 10.435 13.3665 10.3251 13.1934 10.1294C13.0203 9.93369 12.9231 9.66828 12.9231 9.39152ZM12.9231 13.5655C12.9231 13.2888 13.0203 13.0234 13.1934 12.8277C13.3665 12.632 13.6013 12.522 13.8462 12.522H19.3846C19.6294 12.522 19.8642 12.632 20.0373 12.8277C20.2104 13.0234 20.3077 13.2888 20.3077 13.5655C20.3077 13.8423 20.2104 14.1077 20.0373 14.3034C19.8642 14.4991 19.6294 14.609 19.3846 14.609H13.8462C13.6013 14.609 13.3665 14.4991 13.1934 14.3034C13.0203 14.1077 12.9231 13.8423 12.9231 13.5655ZM4.61538 16.696H10.1538C10.3987 16.696 10.6334 16.5861 10.8066 16.3904C10.9797 16.1947 11.0769 15.9293 11.0769 15.6525V7.30452C11.0769 7.02776 10.9797 6.76234 10.8066 6.56665C10.6334 6.37096 10.3987 6.26101 10.1538 6.26101H4.61538C4.37057 6.26101 4.13578 6.37096 3.96267 6.56665C3.78956 6.76234 3.69231 7.02776 3.69231 7.30452V15.6525C3.69231 15.9293 3.78956 16.1947 3.96267 16.3904C4.13578 16.5861 4.37057 16.696 4.61538 16.696ZM5.53846 8.34802H9.23077V14.609H5.53846V8.34802Z" fill="black"/>
</svg>
