<svg width="52" height="26" viewBox="0 0 52 26" fill="none" xmlns="http://www.w3.org/2000/svg">
<path d="M33.3403 18.5634L30.666 15.8526V24.8182C30.666 25.1316 30.5431 25.4322 30.3244 25.6539C30.1056 25.8755 29.8089 26 29.4995 26C29.1901 26 28.8934 25.8755 28.6747 25.6539C28.4559 25.4322 28.333 25.1316 28.333 24.8182V15.8526L25.6587 18.5634C25.5504 18.6732 25.4217 18.7603 25.2801 18.8197C25.1385 18.8792 24.9867 18.9097 24.8334 18.9097C24.6802 18.9097 24.5284 18.8792 24.3868 18.8197C24.2452 18.7603 24.1165 18.6732 24.0081 18.5634C23.8997 18.4536 23.8138 18.3232 23.7551 18.1798C23.6964 18.0363 23.6663 17.8826 23.6663 17.7273C23.6663 17.572 23.6964 17.4182 23.7551 17.2748C23.8138 17.1313 23.8997 17.0009 24.0081 16.8911L28.6742 12.1639C28.7825 12.054 28.9112 11.9668 29.0528 11.9073C29.1944 11.8479 29.3462 11.8173 29.4995 11.8173C29.6528 11.8173 29.8046 11.8479 29.9462 11.9073C30.0878 11.9668 30.2165 12.054 30.3248 12.1639L34.9909 16.8911C35.0993 17.0009 35.1853 17.1313 35.2439 17.2748C35.3026 17.4182 35.3328 17.572 35.3328 17.7273C35.3328 17.8826 35.3026 18.0363 35.2439 18.1798C35.1853 18.3232 35.0993 18.4536 34.9909 18.5634C34.8825 18.6732 34.7539 18.7603 34.6122 18.8197C34.4706 18.8792 34.3189 18.9097 34.1656 18.9097C34.0123 18.9097 33.8605 18.8792 33.7189 18.8197C33.5773 18.7603 33.4487 18.6732 33.3403 18.5634ZM30.666 1.96258e-07C28.2828 0.00182165 25.947 0.675434 23.9201 1.94547C21.8932 3.21551 20.255 5.03188 19.1889 7.19136C17.9196 7.0024 16.6255 7.08061 15.3874 7.4211C14.1493 7.76159 12.9938 8.35706 11.993 9.17031C10.9923 9.98355 10.1678 10.9971 9.57103 12.1477C8.97428 13.2983 8.61811 14.5611 8.52474 15.8574C8.43138 17.1537 8.60284 18.4556 9.02842 19.6817C9.45399 20.9079 10.1245 22.032 10.9982 22.9838C11.8718 23.9356 12.9298 24.6947 14.106 25.2136C15.2822 25.7326 16.5514 26.0003 17.8343 26H23.6669C23.9763 26 24.273 25.8755 24.4918 25.6539C24.7105 25.4322 24.8334 25.1316 24.8334 24.8182C24.8334 24.5047 24.7105 24.2041 24.4918 23.9825C24.273 23.7609 23.9763 23.6364 23.6669 23.6364H17.8343C15.978 23.6364 14.1978 22.8893 12.8852 21.5595C11.5726 20.2297 10.8352 18.4261 10.8352 16.5455C10.8352 14.6648 11.5726 12.8612 12.8852 11.5314C14.1978 10.2016 15.978 9.45455 17.8343 9.45455C17.9947 9.45455 18.1551 9.45455 18.314 9.47227C17.9952 10.6203 17.8337 11.8074 17.8343 13C17.8343 13.3134 17.9572 13.614 18.176 13.8357C18.3947 14.0573 18.6914 14.1818 19.0008 14.1818C19.3102 14.1818 19.6069 14.0573 19.8257 13.8357C20.0444 13.614 20.1673 13.3134 20.1673 13C20.1676 11.0824 20.6796 9.20062 21.6491 7.55369C22.6185 5.90676 24.0094 4.55598 25.6745 3.64429C27.3397 2.73261 29.2171 2.29393 31.1082 2.37468C32.9992 2.45544 34.8336 3.05262 36.4171 4.10303C38.0006 5.15345 39.2743 6.61802 40.1035 8.34176C40.9328 10.0655 41.2866 11.9843 41.1276 13.8951C40.9686 15.8059 40.3027 17.6376 39.2004 19.1963C38.098 20.7551 36.6002 21.983 34.8655 22.75C34.6192 22.8582 34.4172 23.0491 34.2937 23.2906C34.1702 23.5321 34.1327 23.8094 34.1875 24.0757C34.2424 24.3419 34.3861 24.5809 34.5947 24.7522C34.8032 24.9235 35.0636 25.0168 35.3321 25.0161C35.4929 25.016 35.6518 24.9818 35.7987 24.9157C38.5012 23.7214 40.7152 21.6207 42.0685 18.9669C43.4218 16.3131 43.8317 13.2681 43.2293 10.3441C42.627 7.42005 41.0491 4.79537 38.761 2.9115C36.473 1.02762 33.6144 -0.000518622 30.666 1.96258e-07Z" fill="#939393"/>
</svg>
