<?xml version="1.0" encoding="iso-8859-1"?>
<!-- Generator: Adobe Illustrator 19.0.0, SVG Export Plug-In . SVG Version: 6.00 Build 0)  -->
<!-- License: CC0. Made by SVG Repo: https://www.svgrepo.com/svg/136698/peace -->
<svg version="1.1" id="Layer_1" xmlns="http://www.w3.org/2000/svg" xmlns:xlink="http://www.w3.org/1999/xlink" x="0px" y="0px"
	 viewBox="0 0 300.3 300.3" style="enable-background:new 0 0 300.3 300.3;" xml:space="preserve">
<g>
	<g>
		<path d="M295.047,60.329c-31.864-18.033-70.007-21.645-104.653-9.911c-2.428,0.822-4.816,1.719-7.173,2.673
			c0.457-5.465,1.688-10.856,3.692-15.999c1.44-3.695,0.642-7.889-2.055-10.796c-2.699-2.907-6.821-4.02-10.613-2.859
			c-30.415,9.293-55.5,31.167-68.823,60.014c-5.2,11.262-8.446,23.056-9.708,35.187l-5.896-5.875
			C78.41,101.393,63.257,95.132,47.15,95.132C21.152,95.132,0,116.284,0,142.282c0,5.717,4.633,10.35,10.35,10.35h16.604
			c3.375,0,6.515,1.516,8.62,4.169l0.335,0.421c1.281,1.613,2.092,3.644,2.345,5.878c4.958,43.737,31.434,81.466,70.827,100.924
			c17.801,8.793,37.398,13.293,57.062,13.293c9.386,0,18.79-1.026,28.02-3.099c28.142-6.322,53.599-22.066,71.684-44.335
			c2.922-3.598,3.095-8.7,0.424-12.488c-2.67-3.788-7.535-5.338-11.905-3.796c-22.362,7.895-40.416,7.084-53.312,2.423
			c14.795-5.862,27.769-15.74,37.375-28.636c8.815-11.835,13.388-27.099,12.879-42.977c-0.023-0.706-0.033-1.415-0.033-2.126
			c0-27.929,16.716-52.8,42.588-63.363c3.671-1.5,6.164-4.966,6.416-8.924C300.532,66.038,298.5,62.283,295.047,60.329z
			 M124.217,92.131c8.147-17.64,21.694-32.079,38.424-41.387c-0.394,4.303-0.427,8.642-0.104,12.971
			c-18.995,12.042-34.486,28.902-45.057,49.332C118.867,105.888,121.096,98.891,124.217,92.131z M230.575,142.282
			c0,0.93,0.016,1.858,0.045,2.785c0.36,11.221-2.762,21.858-8.792,29.953c-9.399,12.618-23.046,21.435-38.427,24.825
			c-2.701,0.596-5.458,1.012-8.43,1.275c-3.866,0.342-7.217,2.819-8.678,6.416c-1.461,3.596-0.785,7.708,1.749,10.649
			c10.173,11.808,29.4,22.223,55.53,21.986c-31.04,19.659-70.673,22.407-105.325,5.29c-33.051-16.325-55.267-47.988-59.427-84.694
			c-0.689-6.089-3.006-11.768-6.709-16.43l-0.333-0.42c-6.049-7.618-15.097-11.986-24.825-11.986h-4.145
			c4.036-9.455,13.427-16.1,24.341-16.1c10.591,0,20.555,4.117,28.057,11.593l7.458,7.432c8.137,8.109,20.092,11.239,31.195,8.174
			c8.872-2.448,16.352-8.83,20.518-17.508c12.681-26.398,34.934-46.108,62.658-55.499c22.862-7.744,47.538-7.522,70.042,0.286
			C244.403,86.825,230.575,113.287,230.575,142.282z"/>
	</g>
</g>
</svg>
