<svg width="19" height="20" viewBox="0 0 19 20" fill="none" xmlns="http://www.w3.org/2000/svg">
<path d="M9.5 0.5C7.62108 0.5 5.78435 1.05717 4.22209 2.10104C2.65982 3.14491 1.44218 4.62861 0.723149 6.36451C0.0041162 8.1004 -0.184015 10.0105 0.182544 11.8534C0.549104 13.6962 1.45389 15.3889 2.78249 16.7175C4.11109 18.0461 5.80383 18.9509 7.64665 19.3175C9.48946 19.684 11.3996 19.4959 13.1355 18.7769C14.8714 18.0578 16.3551 16.8402 17.399 15.2779C18.4428 13.7156 19 11.8789 19 10C18.9973 7.48126 17.9956 5.06644 16.2146 3.28542C14.4336 1.5044 12.0187 0.50266 9.5 0.5ZM10.2308 18.0047V12.1923H12.4231C12.6169 12.1923 12.8028 12.1153 12.9398 11.9783C13.0769 11.8412 13.1538 11.6553 13.1538 11.4615C13.1538 11.2677 13.0769 11.0819 12.9398 10.9448C12.8028 10.8078 12.6169 10.7308 12.4231 10.7308H10.2308V8.53846C10.2308 8.15084 10.3848 7.77909 10.6588 7.505C10.9329 7.23091 11.3047 7.07692 11.6923 7.07692H13.1538C13.3477 7.07692 13.5335 6.99993 13.6706 6.86288C13.8076 6.72584 13.8846 6.53996 13.8846 6.34615C13.8846 6.15234 13.8076 5.96647 13.6706 5.82942C13.5335 5.69238 13.3477 5.61538 13.1538 5.61538H11.6923C10.9171 5.61538 10.1736 5.92335 9.62538 6.47153C9.0772 7.01972 8.76923 7.76321 8.76923 8.53846V10.7308H6.57693C6.38311 10.7308 6.19724 10.8078 6.06019 10.9448C5.92315 11.0819 5.84616 11.2677 5.84616 11.4615C5.84616 11.6553 5.92315 11.8412 6.06019 11.9783C6.19724 12.1153 6.38311 12.1923 6.57693 12.1923H8.76923V18.0047C6.70919 17.8166 4.80094 16.8416 3.44141 15.2825C2.08189 13.7234 1.37574 11.7002 1.46987 9.63372C1.56399 7.56726 2.45114 5.61662 3.94678 4.18756C5.44241 2.7585 7.43139 1.96103 9.5 1.96103C11.5686 1.96103 13.5576 2.7585 15.0532 4.18756C16.5489 5.61662 17.436 7.56726 17.5301 9.63372C17.6243 11.7002 16.9181 13.7234 15.5586 15.2825C14.1991 16.8416 12.2908 17.8166 10.2308 18.0047Z" fill="#667eea"/>
</svg>
