<svg width="24" height="25" viewBox="0 0 24 25" fill="none" xmlns="http://www.w3.org/2000/svg">
<path d="M16.6154 10.6499C16.6154 10.8947 16.5181 11.1295 16.345 11.3027C16.1719 11.4758 15.9371 11.5731 15.6923 11.5731H8.30769C8.06288 11.5731 7.82809 11.4758 7.65498 11.3027C7.48187 11.1295 7.38461 10.8947 7.38461 10.6499C7.38461 10.4051 7.48187 10.1702 7.65498 9.99712C7.82809 9.82399 8.06288 9.72673 8.30769 9.72673H15.6923C15.9371 9.72673 16.1719 9.82399 16.345 9.99712C16.5181 10.1702 16.6154 10.4051 16.6154 10.6499ZM15.6923 13.4194H8.30769C8.06288 13.4194 7.82809 13.5167 7.65498 13.6898C7.48187 13.8629 7.38461 14.0977 7.38461 14.3426C7.38461 14.5874 7.48187 14.8222 7.65498 14.9953C7.82809 15.1685 8.06288 15.2657 8.30769 15.2657H15.6923C15.9371 15.2657 16.1719 15.1685 16.345 14.9953C16.5181 14.8222 16.6154 14.5874 16.6154 14.3426C16.6154 14.0977 16.5181 13.8629 16.345 13.6898C16.1719 13.5167 15.9371 13.4194 15.6923 13.4194ZM24 12.4962C24.0005 14.5682 23.4645 16.605 22.4444 18.4083C21.4242 20.2117 19.9546 21.7202 18.1785 22.787C16.4024 23.8538 14.3805 24.4426 12.3094 24.496C10.2383 24.5494 8.18868 24.0657 6.36 23.0919L2.43115 24.4016C2.10587 24.5101 1.7568 24.5258 1.42307 24.4471C1.08934 24.3683 0.784139 24.1981 0.541674 23.9557C0.29921 23.7132 0.129063 23.4079 0.0503048 23.0742C-0.0284533 22.7404 -0.0127104 22.3913 0.0957689 22.066L1.40538 18.1368C0.549402 16.5273 0.0713043 14.7439 0.00738154 12.922C-0.0565412 11.1001 0.295391 9.28762 1.03646 7.62207C1.77754 5.95652 2.88828 4.4817 4.28437 3.30957C5.68046 2.13743 7.32521 1.29878 9.09377 0.857276C10.8623 0.41577 12.7082 0.383012 14.4913 0.76149C16.2745 1.13997 17.9479 1.91973 19.3847 3.04159C20.8215 4.16346 21.9839 5.59794 22.7836 7.23614C23.5832 8.87435 23.9993 10.6732 24 12.4962ZM22.1538 12.4962C22.1534 10.9385 21.7946 9.40181 21.1053 8.00496C20.416 6.60812 19.4146 5.38859 18.1786 4.44072C16.9426 3.49286 15.5052 2.84208 13.9774 2.53872C12.4497 2.23536 10.8727 2.28756 9.36835 2.69129C7.86402 3.09501 6.47272 3.83943 5.3021 4.86695C4.13148 5.89447 3.21291 7.17756 2.61745 8.61693C2.022 10.0563 1.76564 11.6134 1.86819 13.1677C1.97073 14.722 2.42945 16.2319 3.20885 17.5806C3.27426 17.6938 3.31488 17.8196 3.32801 17.9497C3.34113 18.0798 3.32648 18.2112 3.285 18.3352L1.84615 22.651L6.16154 21.2121C6.25553 21.18 6.35415 21.1636 6.45346 21.1636C6.61558 21.1639 6.77477 21.2069 6.915 21.2882C8.45862 22.1814 10.2102 22.6523 11.9936 22.6534C13.7769 22.6545 15.5292 22.1859 17.0739 21.2946C18.6186 20.4034 19.9014 19.121 20.7932 17.5765C21.685 16.0319 22.1543 14.2798 22.1538 12.4962Z" fill="black"/>
</svg>
