<svg width="81" height="80" viewBox="0 0 81 80" fill="none" xmlns="http://www.w3.org/2000/svg">
<g clip-path="url(#clip0_154_233)">
<path opacity="0.25" d="M44.6835 0.863575C46.472 2.02982 47.8889 3.58156 49.368 5.10743C49.9006 5.65677 50.4353 6.20392 50.9714 6.74988C51.0902 6.87392 51.2091 6.99797 51.3315 7.12577C53.3135 9.1432 55.2874 9.52999 58.021 9.56076C58.2439 9.56247 58.2439 9.56247 58.4714 9.56421C58.7974 9.5686 59.1234 9.57308 59.4495 9.57764C59.9547 9.58406 60.4599 9.58983 60.9652 9.59397C66.9829 9.64727 66.9829 9.64727 69.3191 11.8164C71.6066 14.2801 71.5128 17.3693 71.4578 20.5176C71.4106 23.1642 71.4106 23.1642 71.5842 25.8032C71.5965 25.916 71.6088 26.0288 71.6214 26.145C71.8237 27.7582 72.582 28.7187 73.6832 29.8694C73.9995 30.2022 74.2978 30.5372 74.595 30.8862C75.1768 31.556 75.8083 32.1669 76.4454 32.7836C77.8381 34.1332 79.1675 35.432 80.0418 37.1875C80.1141 37.3247 80.1864 37.4618 80.2609 37.6032C80.9458 39.132 80.9004 41.1129 80.4422 42.7051C79.4129 45.1649 77.4362 46.8818 75.5594 48.7012C75.01 49.2338 74.4629 49.7685 73.9169 50.3046C73.7929 50.4234 73.6688 50.5423 73.541 50.6647C71.5236 52.6467 71.1368 54.6206 71.106 57.3542C71.1049 57.5028 71.1038 57.6514 71.1026 57.8046C71.0982 58.1306 71.0937 58.4566 71.0892 58.7827C71.0827 59.2879 71.077 59.7931 71.0728 60.2984C71.0195 66.3161 71.0195 66.3161 68.8504 68.6523C66.3634 70.9614 63.2371 70.8451 60.0613 70.791C55.0206 70.598 55.0206 70.598 50.7974 73.0164C50.4646 73.3327 50.1296 73.631 49.7806 73.9282C49.1108 74.51 48.4999 75.1415 47.8832 75.7786C46.5336 77.1713 45.2348 78.5007 43.4793 79.375C43.3421 79.4473 43.205 79.5196 43.0637 79.5941C41.5349 80.279 39.5539 80.2336 37.9617 79.7754C35.502 78.7461 33.785 76.7695 31.9656 74.8926C31.433 74.3432 30.8983 73.7961 30.3622 73.2501C30.2434 73.1261 30.1245 73.002 30.0021 72.8742C28.0201 70.8568 26.0462 70.47 23.3126 70.4393C23.164 70.4381 23.0154 70.437 22.8622 70.4358C22.5362 70.4314 22.2102 70.4269 21.8841 70.4224C21.3789 70.4159 20.8737 70.4102 20.3684 70.406C14.3507 70.3527 14.3507 70.3527 12.0145 68.1836C9.73977 65.7337 9.81832 62.6546 9.86602 59.5215C9.87334 58.8947 9.87931 58.2678 9.88433 57.641C9.88557 57.4917 9.8868 57.3425 9.88808 57.1887C9.90903 52.9566 8.56596 50.9159 5.6668 47.9688C5.4096 47.7131 5.15181 47.4579 4.89349 47.2034C4.76243 47.074 4.63137 46.9446 4.49634 46.8112C4.2424 46.5616 3.98732 46.3131 3.73088 46.066C2.66823 45.0244 1.74771 43.8969 1.15508 42.5195C1.09425 42.3814 1.03343 42.2432 0.970756 42.1008C0.416411 40.6669 0.417483 38.6611 0.89141 37.207C2.00109 34.8498 3.84199 33.1728 5.68633 31.3867C6.21921 30.8706 6.74988 30.3524 7.27935 29.8328C7.39917 29.7181 7.51899 29.6035 7.64244 29.4854C9.71718 27.4481 10.1958 25.4669 10.2276 22.6459C10.2287 22.4972 10.2298 22.3486 10.231 22.1954C10.2354 21.8694 10.2399 21.5434 10.2444 21.2174C10.2509 20.7121 10.2566 20.2069 10.2608 19.7016C10.3141 13.6839 10.3141 13.6839 12.4832 11.3477C14.9702 9.0386 18.0965 9.15493 21.2723 9.20899C26.3131 9.40205 26.3131 9.40205 30.5362 6.98365C30.8683 6.66801 31.2025 6.36987 31.5506 6.073C32.4677 5.27603 33.3043 4.39471 34.1489 3.52234C35.342 2.29236 36.5552 1.17329 38.1473 0.488285C38.2854 0.427457 38.4236 0.36663 38.566 0.303959C40.5056 -0.445871 42.9083 -0.137711 44.6835 0.863575ZM23.4366 22.392C18.9218 26.8486 16.1479 32.8183 16.0978 39.1998C16.0797 42.3613 16.0797 42.3613 16.6043 45.4688C16.6345 45.5896 16.6647 45.7105 16.6959 45.835C17.6555 49.5787 19.349 53.0359 21.9168 55.9375C21.9839 56.014 22.0509 56.0905 22.12 56.1693C26.5319 61.1818 32.4977 64.1461 39.1687 64.6359C45.9317 65.0059 52.2836 62.6063 57.3086 58.13C61.703 54.1536 64.6186 48.587 65.1981 42.6563C65.3139 39.9648 65.4096 37.1537 64.7293 34.5313C64.6991 34.4104 64.6689 34.2896 64.6377 34.165C63.6781 30.4213 61.9846 26.9641 59.4168 24.0625C59.3497 23.986 59.2827 23.9095 59.2136 23.8307C54.7553 18.7654 48.7977 15.8617 42.0774 15.3721C35.0803 14.977 28.4909 17.6033 23.4366 22.392Z" fill="#667EEA"/>
<path fill-rule="evenodd" clip-rule="evenodd" d="M40.6667 61C52.2647 61 61.6667 51.598 61.6667 40C61.6667 28.402 52.2647 19 40.6667 19C29.0688 19 19.6667 28.402 19.6667 40C19.6667 51.598 29.0688 61 40.6667 61ZM43.4275 33.6856C43.0017 32.7831 42.5915 31.9137 41.8026 31.2954C41.2334 30.9303 40.5039 30.9504 39.8684 31.1052C39.5774 31.2323 39.3801 31.3185 39.2134 31.445C38.8622 31.7113 38.6466 32.1563 37.9767 33.5385L37.8491 33.805C37.7636 33.9823 37.6781 34.1596 37.5928 34.337L37.4646 34.6117L37.3365 34.8746L37.2244 35.1105C36.9376 35.5122 36.535 35.6043 36.0756 35.6806C35.9505 35.6997 35.8255 35.7197 35.7007 35.7405C35.4986 35.7741 35.2963 35.8067 35.0939 35.839C35.0166 35.8512 34.9395 35.8631 34.8624 35.875C33.8844 36.0261 32.9319 36.1733 32.1845 36.9176C31.717 37.4611 31.6457 37.956 31.6713 38.6786C31.7652 39.6271 32.4414 40.3747 33.0969 40.9877L33.3866 41.2568C33.4329 41.3001 33.4819 41.3453 33.5328 41.3922C34.0154 41.8367 34.6663 42.4362 34.7006 43.0881L34.6724 43.3424C34.6125 43.8953 34.5227 44.442 34.4265 44.9891C34.2537 45.9581 34.1099 46.9048 34.5179 47.8305C34.8087 48.3879 35.1599 48.7014 35.7383 48.9102C36.6633 49.143 37.4577 48.8793 38.2718 48.4295C38.3685 48.3755 38.465 48.3211 38.5616 48.2668C38.9592 48.0431 39.357 47.8193 39.7634 47.6138L39.9368 47.5274C40.0404 47.4707 40.1453 47.4165 40.2515 47.3653C40.8044 47.3995 41.0883 47.417 41.3516 47.4998C41.6296 47.5871 41.8847 47.7472 42.409 48.0761C43.2725 48.571 44.1393 49.041 45.1502 48.9972C45.79 48.9124 46.252 48.6371 46.6593 48.1149C46.8573 47.745 46.987 47.5025 47.0566 47.2439C47.1889 46.7524 47.1037 46.2023 46.8568 44.6067C46.825 44.4026 46.7934 44.1984 46.7628 43.9941L46.7337 43.7993C46.6967 43.5701 46.6697 43.348 46.6486 43.1159C46.8252 42.6233 46.9146 42.374 47.0582 42.1613C47.2055 41.9431 47.4099 41.7635 47.8237 41.3997C47.8438 41.3809 47.8639 41.362 47.884 41.3431C48.6248 40.6483 49.414 39.9082 49.6387 38.8595C49.6968 38.2338 49.6913 37.7125 49.3564 37.1722C49.0695 36.8101 48.8874 36.5801 48.6577 36.4172C48.2582 36.1337 47.7148 36.053 46.2261 35.832C45.9234 35.7879 45.6211 35.7432 45.3197 35.6907L45.004 35.6284L44.741 35.5788C44.2197 35.3755 44.0086 34.9327 43.779 34.4398C43.7079 34.2832 43.6358 34.1271 43.5627 33.9715L43.4495 33.7322L43.4275 33.6856Z" fill="#8DB7FF"/>
</g>
<defs>
<clipPath id="clip0_154_233">
<rect width="80" height="80" fill="white" transform="translate(0.666748)"/>
</clipPath>
</defs>
</svg>