<svg width="20" height="20" viewBox="0 0 20 20" fill="none" xmlns="http://www.w3.org/2000/svg">
<path d="M9.75 5.5C8.85998 5.5 7.98995 5.76392 7.24993 6.25839C6.50991 6.75285 5.93314 7.45566 5.59254 8.27792C5.25195 9.10019 5.16283 10.005 5.33647 10.8779C5.5101 11.7508 5.93868 12.5526 6.56802 13.182C7.19736 13.8113 7.99918 14.2399 8.87209 14.4135C9.74501 14.5872 10.6498 14.4981 11.4721 14.1575C12.2943 13.8169 12.9971 13.2401 13.4916 12.5001C13.9861 11.76 14.25 10.89 14.25 10C14.2488 8.80691 13.7743 7.66303 12.9306 6.81939C12.087 5.97575 10.9431 5.50124 9.75 5.5ZM9.75 13C9.15666 13 8.57664 12.8241 8.08329 12.4944C7.58994 12.1648 7.20542 11.6962 6.97836 11.1481C6.7513 10.5999 6.69189 9.99667 6.80764 9.41473C6.9234 8.83279 7.20912 8.29824 7.62868 7.87868C8.04824 7.45912 8.58279 7.1734 9.16473 7.05764C9.74667 6.94189 10.3499 7.0013 10.8981 7.22836C11.4462 7.45542 11.9148 7.83994 12.2444 8.33329C12.5741 8.82664 12.75 9.40666 12.75 10C12.75 10.7956 12.4339 11.5587 11.8713 12.1213C11.3087 12.6839 10.5456 13 9.75 13ZM14.25 0.25H5.25C3.85807 0.251489 2.52358 0.805091 1.53933 1.78933C0.555091 2.77358 0.00148896 4.10807 0 5.5V14.5C0.00148896 15.8919 0.555091 17.2264 1.53933 18.2107C2.52358 19.1949 3.85807 19.7485 5.25 19.75H14.25C15.6419 19.7485 16.9764 19.1949 17.9607 18.2107C18.9449 17.2264 19.4985 15.8919 19.5 14.5V5.5C19.4985 4.10807 18.9449 2.77358 17.9607 1.78933C16.9764 0.805091 15.6419 0.251489 14.25 0.25ZM18 14.5C18 15.4946 17.6049 16.4484 16.9016 17.1516C16.1984 17.8549 15.2446 18.25 14.25 18.25H5.25C4.25544 18.25 3.30161 17.8549 2.59835 17.1516C1.89509 16.4484 1.5 15.4946 1.5 14.5V5.5C1.5 4.50544 1.89509 3.55161 2.59835 2.84835C3.30161 2.14509 4.25544 1.75 5.25 1.75H14.25C15.2446 1.75 16.1984 2.14509 16.9016 2.84835C17.6049 3.55161 18 4.50544 18 5.5V14.5ZM15.75 5.125C15.75 5.3475 15.684 5.56501 15.5604 5.75002C15.4368 5.93502 15.2611 6.07922 15.0555 6.16436C14.85 6.24951 14.6238 6.27179 14.4055 6.22838C14.1873 6.18498 13.9868 6.07783 13.8295 5.9205C13.6722 5.76316 13.565 5.56271 13.5216 5.34448C13.4782 5.12625 13.5005 4.90005 13.5856 4.69448C13.6708 4.48891 13.815 4.31321 14 4.1896C14.185 4.06598 14.4025 4 14.625 4C14.9234 4 15.2095 4.11853 15.4205 4.3295C15.6315 4.54048 15.75 4.82663 15.75 5.125Z" fill="#939393"/>
</svg>
