<svg width="19" height="20" viewBox="0 0 19 20" fill="none" xmlns="http://www.w3.org/2000/svg">
<path d="M9.5 5.61538C8.6328 5.61538 7.78508 5.87254 7.06404 6.35433C6.34299 6.83611 5.781 7.5209 5.44914 8.32208C5.11728 9.12326 5.03045 10.0049 5.19963 10.8554C5.36882 11.7059 5.78641 12.4872 6.39961 13.1004C7.01281 13.7136 7.79407 14.1312 8.6446 14.3004C9.49514 14.4695 10.3767 14.3827 11.1779 14.0509C11.9791 13.719 12.6639 13.157 13.1457 12.436C13.6275 11.7149 13.8846 10.8672 13.8846 10C13.8834 8.8375 13.4211 7.72296 12.5991 6.90094C11.777 6.07893 10.6625 5.61659 9.5 5.61538ZM9.5 12.9231C8.92187 12.9231 8.35672 12.7516 7.87603 12.4304C7.39533 12.1093 7.02067 11.6527 6.79943 11.1186C6.57819 10.5845 6.5203 9.99676 6.63309 9.42974C6.74588 8.86271 7.02427 8.34187 7.43307 7.93307C7.84187 7.52427 8.36271 7.24588 8.92974 7.13309C9.49676 7.0203 10.0845 7.07819 10.6186 7.29943C11.1527 7.52067 11.6093 7.89533 11.9304 8.37603C12.2516 8.85672 12.4231 9.42187 12.4231 10C12.4231 10.7752 12.1151 11.5187 11.5669 12.0669C11.0187 12.6151 10.2752 12.9231 9.5 12.9231ZM13.8846 0.5H5.11538C3.75915 0.501451 2.45887 1.04086 1.49986 1.99986C0.540858 2.95887 0.00145078 4.25915 0 5.61538V14.3846C0.00145078 15.7409 0.540858 17.0411 1.49986 18.0001C2.45887 18.9591 3.75915 19.4985 5.11538 19.5H13.8846C15.2409 19.4985 16.5411 18.9591 17.5001 18.0001C18.4591 17.0411 18.9985 15.7409 19 14.3846V5.61538C18.9985 4.25915 18.4591 2.95887 17.5001 1.99986C16.5411 1.04086 15.2409 0.501451 13.8846 0.5ZM17.5385 14.3846C17.5385 15.3537 17.1535 16.283 16.4683 16.9683C15.783 17.6535 14.8537 18.0385 13.8846 18.0385H5.11538C4.14632 18.0385 3.21695 17.6535 2.53173 16.9683C1.8465 16.283 1.46154 15.3537 1.46154 14.3846V5.61538C1.46154 4.64632 1.8465 3.71695 2.53173 3.03173C3.21695 2.3465 4.14632 1.96154 5.11538 1.96154H13.8846C14.8537 1.96154 15.783 2.3465 16.4683 3.03173C17.1535 3.71695 17.5385 4.64632 17.5385 5.61538V14.3846ZM15.3462 5.25C15.3462 5.4668 15.2819 5.67873 15.1614 5.85899C15.041 6.03925 14.8698 6.17975 14.6695 6.26271C14.4692 6.34568 14.2488 6.36739 14.0362 6.32509C13.8235 6.2828 13.6282 6.1784 13.4749 6.0251C13.3216 5.8718 13.2172 5.67648 13.1749 5.46385C13.1326 5.25122 13.1543 5.03082 13.2373 4.83052C13.3203 4.63022 13.4607 4.45903 13.641 4.33858C13.8213 4.21813 14.0332 4.15385 14.25 4.15385C14.5407 4.15385 14.8195 4.26933 15.0251 4.4749C15.2307 4.68047 15.3462 4.95928 15.3462 5.25Z" fill="#838181"/>
</svg>
