<svg width="20" height="20" viewBox="0 0 20 20" fill="none" xmlns="http://www.w3.org/2000/svg">
<path d="M18 0.25H1.5C1.10218 0.25 0.720644 0.408035 0.43934 0.68934C0.158035 0.970644 0 1.35218 0 1.75V18.25C0 18.6478 0.158035 19.0294 0.43934 19.3107C0.720644 19.592 1.10218 19.75 1.5 19.75H18C18.3978 19.75 18.7794 19.592 19.0607 19.3107C19.342 19.0294 19.5 18.6478 19.5 18.25V1.75C19.5 1.35218 19.342 0.970644 19.0607 0.68934C18.7794 0.408035 18.3978 0.25 18 0.25ZM18 18.25H1.5V1.75H18V18.25ZM6.75 8.5V14.5C6.75 14.6989 6.67098 14.8897 6.53033 15.0303C6.38968 15.171 6.19891 15.25 6 15.25C5.80109 15.25 5.61032 15.171 5.46967 15.0303C5.32902 14.8897 5.25 14.6989 5.25 14.5V8.5C5.25 8.30109 5.32902 8.11032 5.46967 7.96967C5.61032 7.82902 5.80109 7.75 6 7.75C6.19891 7.75 6.38968 7.82902 6.53033 7.96967C6.67098 8.11032 6.75 8.30109 6.75 8.5ZM15 11.125V14.5C15 14.6989 14.921 14.8897 14.7803 15.0303C14.6397 15.171 14.4489 15.25 14.25 15.25C14.0511 15.25 13.8603 15.171 13.7197 15.0303C13.579 14.8897 13.5 14.6989 13.5 14.5V11.125C13.5 10.6277 13.3025 10.1508 12.9508 9.79918C12.5992 9.44754 12.1223 9.25 11.625 9.25C11.1277 9.25 10.6508 9.44754 10.2992 9.79918C9.94754 10.1508 9.75 10.6277 9.75 11.125V14.5C9.75 14.6989 9.67098 14.8897 9.53033 15.0303C9.38968 15.171 9.19891 15.25 9 15.25C8.80109 15.25 8.61032 15.171 8.46967 15.0303C8.32902 14.8897 8.25 14.6989 8.25 14.5V8.5C8.25093 8.31629 8.31925 8.13931 8.44201 8.00264C8.56477 7.86596 8.73342 7.7791 8.91598 7.75852C9.09853 7.73794 9.28229 7.78508 9.43239 7.891C9.5825 7.99691 9.68851 8.15423 9.73031 8.33313C10.2377 7.98894 10.8292 7.78947 11.4414 7.75611C12.0536 7.72276 12.6633 7.85679 13.205 8.14381C13.7468 8.43083 14.2001 8.86 14.5164 9.38523C14.8326 9.91046 14.9998 10.5119 15 11.125ZM7.125 5.875C7.125 6.0975 7.05902 6.31501 6.9354 6.50002C6.81179 6.68502 6.63609 6.82922 6.43052 6.91436C6.22495 6.99951 5.99875 7.02179 5.78052 6.97838C5.56229 6.93498 5.36184 6.82783 5.2045 6.6705C5.04717 6.51316 4.94002 6.31271 4.89662 6.09448C4.85321 5.87625 4.87549 5.65005 4.96064 5.44448C5.04578 5.23891 5.18998 5.06321 5.37498 4.9396C5.55999 4.81598 5.7775 4.75 6 4.75C6.29837 4.75 6.58452 4.86853 6.7955 5.0795C7.00647 5.29048 7.125 5.57663 7.125 5.875Z" fill="#939393"/>
</svg>
