<svg width="24" height="24" viewBox="0 0 24 24" fill="none" xmlns="http://www.w3.org/2000/svg">
<path d="M23.9129 9.15263C23.8058 8.82522 23.6035 8.53666 23.3316 8.32329C23.0597 8.10993 22.7303 7.98131 22.385 7.95363L16.0631 7.44678L13.6223 1.58065C13.4903 1.26101 13.2656 0.987594 12.9768 0.795169C12.6881 0.602744 12.3482 0.5 12.0006 0.5C11.6529 0.5 11.3131 0.602744 11.0243 0.795169C10.7355 0.987594 10.5108 1.26101 10.3788 1.58065L7.94011 7.44571L1.61506 7.95363C1.26915 7.98271 0.939571 8.11258 0.667608 8.32697C0.395646 8.54136 0.193396 8.83075 0.0861984 9.15886C-0.0209994 9.48698 -0.0283775 9.83924 0.0649882 10.1715C0.158354 10.5038 0.348311 10.8013 0.611061 11.0267L5.43281 15.1614L3.96378 21.3438C3.88162 21.6797 3.90174 22.0323 4.02158 22.3568C4.14141 22.6812 4.35557 22.963 4.63685 23.1663C4.91814 23.3697 5.25387 23.4853 5.60143 23.4987C5.949 23.5121 6.29271 23.4225 6.58895 23.2413L12 19.9319L17.4143 23.2413C17.7107 23.4203 18.0537 23.5082 18.4002 23.4938C18.7466 23.4795 19.0811 23.3636 19.3614 23.1607C19.6418 22.9578 19.8554 22.677 19.9755 22.3537C20.0956 22.0304 20.1167 21.679 20.0363 21.3438L18.5619 15.1604L23.3836 11.0257C23.6485 10.8006 23.8402 10.5024 23.9344 10.169C24.0287 9.83557 24.0212 9.48184 23.9129 9.15263ZM22.2693 9.73509L17.0511 14.2074C16.9321 14.3093 16.8435 14.4418 16.7952 14.5903C16.7468 14.7388 16.7404 14.8977 16.7768 15.0496L18.3712 21.7367C18.3753 21.746 18.3757 21.7564 18.3723 21.7659C18.3689 21.7754 18.362 21.7833 18.3529 21.7879C18.3337 21.8028 18.3283 21.7996 18.3122 21.7879L12.449 18.2047C12.3139 18.1222 12.1585 18.0785 12 18.0785C11.8415 18.0785 11.6861 18.1222 11.5511 18.2047L5.68782 21.79C5.67175 21.7996 5.66746 21.8028 5.64711 21.79C5.63806 21.7854 5.63113 21.7775 5.62774 21.768C5.62435 21.7585 5.62476 21.7481 5.62889 21.7389L7.22328 15.0518C7.25962 14.8999 7.25325 14.741 7.20487 14.5924C7.1565 14.4439 7.06798 14.3114 6.94898 14.2095L1.73078 9.73722C1.71792 9.72657 1.70613 9.71699 1.71685 9.68398C1.72756 9.65097 1.73613 9.65523 1.75221 9.6531L8.60123 9.10365C8.75832 9.09026 8.90865 9.03407 9.03569 8.94126C9.16272 8.84846 9.26154 8.72263 9.32127 8.57762L11.9593 2.23019C11.9679 2.21209 11.9711 2.20357 11.9968 2.20357C12.0225 2.20357 12.0257 2.21209 12.0343 2.23019L14.6788 8.57762C14.7391 8.72269 14.8385 8.84838 14.9661 8.94082C15.0938 9.03327 15.2446 9.08888 15.402 9.10152L22.2511 9.65097C22.2671 9.65097 22.2768 9.65097 22.2864 9.68185C22.2961 9.71273 22.2864 9.72444 22.2693 9.73509Z" fill="black"/>
</svg>
