<svg width="80" height="80" viewBox="0 0 80 80" fill="none" xmlns="http://www.w3.org/2000/svg">
<g clip-path="url(#clip0_154_223)">
<path opacity="0.25" d="M42.4017 0.35518C43.4034 1.01308 44.2766 1.84647 45.1562 2.65621C50.8211 7.83834 58.0459 9.91008 65.5227 10.6618C68.3182 10.9449 70.4898 11.9451 72.3425 14.0966C73.7861 16.0963 74.0865 18.3259 74.0852 20.718C74.086 20.9295 74.086 20.9295 74.0868 21.1453C74.0882 21.6079 74.0885 22.0704 74.0887 22.5329C74.0892 22.86 74.0897 23.1871 74.0903 23.5142C74.0912 24.2 74.0915 24.8859 74.0914 25.5717C74.0914 26.2662 74.0925 26.9608 74.0946 27.6553C74.1175 35.1756 74.1175 35.1756 73.75 38.75C73.7317 38.9351 73.7317 38.9351 73.713 39.124C73.6435 39.815 73.5601 40.5031 73.4668 41.1914C73.44 41.3916 73.4133 41.5919 73.3858 41.7982C72.2421 50.0966 69.6293 58.0633 64.375 64.6875C64.2547 64.8409 64.1345 64.9944 64.0106 65.1525C62.0595 67.5922 59.8429 69.8391 57.3437 71.7187C57.2513 71.7895 57.1589 71.8602 57.0637 71.9331C54.4284 73.9424 51.5676 75.6295 48.5734 77.0477C48.276 77.19 47.9813 77.3372 47.6867 77.4853C41.0477 80.7802 41.0477 80.7802 37.6379 79.7174C32.1972 77.8697 27.0296 75.0932 22.5 71.5625C22.3628 71.4557 22.2256 71.349 22.0843 71.239C12.7498 63.7879 8.10378 53.0401 6.54293 41.3964C6.51812 41.2148 6.49331 41.0332 6.46775 40.8461C6.38534 40.2002 6.3149 39.554 6.24997 38.9062C6.23595 38.7704 6.22194 38.6347 6.20751 38.4948C5.85573 34.9303 5.88929 31.357 5.89672 27.7791C5.89852 26.9065 5.89747 26.0338 5.89561 25.1612C5.89447 24.4799 5.89484 23.7987 5.89565 23.1174C5.89586 22.7956 5.89561 22.4739 5.89487 22.1521C5.88473 16.4823 5.88473 16.4823 7.65622 14.2187C7.74867 14.1003 7.84112 13.9818 7.93637 13.8598C9.61985 11.836 11.7582 10.9162 14.3487 10.6451C14.7122 10.6142 15.0757 10.5848 15.4394 10.5566C21.8707 9.96794 27.9543 8.00234 33.125 4.06246C33.2623 3.95832 33.3997 3.85419 33.5412 3.7469C34.2772 3.17335 34.9638 2.5605 35.6445 1.92378C37.4728 0.219925 39.9524 -0.796951 42.4017 0.35518ZM27.1875 24.8437C27.0376 24.9706 26.8878 25.0975 26.7334 25.2282C22.9524 28.5117 20.7156 33.1743 20.1562 38.125C19.8874 43.5587 21.2748 48.6257 24.8437 52.8125C24.9706 52.9623 25.0975 53.1122 25.2282 53.2666C28.5117 57.0475 33.1743 59.2843 38.125 59.8437C43.5587 60.1125 48.6257 58.7251 52.8125 55.1562C52.9623 55.0293 53.1122 54.9024 53.2666 54.7717C57.0475 51.4882 59.2843 46.8256 59.8437 41.875C60.1125 36.4413 58.7251 31.3743 55.1562 27.1875C55.0293 27.0376 54.9024 26.8877 54.7717 26.7334C51.4882 22.9524 46.8257 20.7156 41.875 20.1562C36.4413 19.8874 31.3743 21.2748 27.1875 24.8437Z" fill="#667EEA"/>
<path d="M49.92 28.2508C52.8996 30.855 54.9734 34.4439 55.3124 38.4375C55.5986 42.8988 54.3693 46.9223 51.4062 50.3125C49.2149 52.7085 46.5523 54.1833 43.4374 55C43.2993 55.0385 43.1611 55.077 43.0187 55.1166C39.2279 55.9947 35.2797 55.0224 31.9726 53.1348C28.3748 50.8546 26.0689 47.5145 24.9999 43.4375C24.9615 43.2994 24.923 43.1612 24.8833 43.0188C24.0053 39.228 24.9776 35.2798 26.8652 31.9727C29.2634 28.1886 32.756 25.9554 37.0269 24.8835C41.6093 23.9489 46.3504 25.3032 49.92 28.2508ZM43.139 36.3617C42.9484 36.5529 42.7577 36.744 42.567 36.9351C42.0692 37.434 41.5725 37.9338 41.0759 38.4339C40.5674 38.9456 40.0579 39.4565 39.5486 39.9674C38.5523 40.967 37.557 41.9676 36.5624 42.9688C36.0805 42.7388 35.7571 42.5103 35.3857 42.1241C35.2848 42.0207 35.1838 41.9174 35.0799 41.8109C34.8703 41.5933 34.6608 41.3756 34.4512 41.1579C34.3503 41.0545 34.2494 40.9512 34.1454 40.8448C34.0545 40.7502 33.9636 40.6556 33.8699 40.5582C33.2564 40.0125 32.7115 39.9295 31.9134 39.9518C31.2512 40.0428 30.8496 40.3622 30.4235 40.8606C30.0771 41.3673 29.9494 41.7976 29.9706 42.4121C30.2557 43.8919 31.9323 45.0865 32.967 46.1211C33.2343 46.3887 33.5002 46.6575 33.7661 46.9263C33.937 47.0977 34.108 47.269 34.2791 47.4402C34.3579 47.5201 34.4367 47.6 34.5178 47.6824C35.1305 48.291 35.5928 48.6371 36.4648 48.6524C36.5788 48.6568 36.6928 48.6612 36.8102 48.6658C37.8157 48.4738 38.5656 47.5737 39.2591 46.8775C39.4232 46.7147 39.4232 46.7147 39.5905 46.5485C39.95 46.1912 40.3082 45.8328 40.6664 45.4743C40.9165 45.2248 41.1667 44.9753 41.4168 44.7259C41.9401 44.2038 42.4627 43.6811 42.985 43.158C43.6545 42.4877 44.3257 41.8191 44.9974 41.151C45.514 40.6367 46.0295 40.1213 46.5447 39.6056C46.7918 39.3586 47.0393 39.112 47.2871 38.8657C47.6331 38.5217 47.9775 38.1762 48.3216 37.8303C48.4242 37.7289 48.5268 37.6275 48.6325 37.523C49.215 36.9337 49.6527 36.449 49.7112 35.5866C49.622 34.6763 49.4153 34.2282 48.7499 33.5938C46.4614 32.2207 44.5909 34.8965 43.139 36.3617Z" fill="#8DB7FF"/>
</g>
<defs>
<clipPath id="clip0_154_223">
<rect width="80" height="80" fill="white"/>
</clipPath>
</defs>
</svg>