<svg width="20" height="20" viewBox="0 0 20 20" fill="none" xmlns="http://www.w3.org/2000/svg">
    <path
    d="M9.8101 5.49858C8.92009 5.49858 8.05006 5.7625 7.31004 6.25697C6.57001 6.75143 5.99324 7.45424 5.65264 8.2765C5.31205 9.09877 5.22294 10.0036 5.39657 10.8765C5.5702 11.7494 5.99879 12.5512 6.62812 13.1806C7.25746 13.8099 8.05928 14.2385 8.9322 14.4121C9.80511 14.5857 10.7099 14.4966 11.5322 14.156C12.3544 13.8154 13.0572 13.2387 13.5517 12.4986C14.0462 11.7586 14.3101 10.8886 14.3101 9.99858C14.3089 8.80549 13.8344 7.66161 12.9907 6.81797C12.1471 5.97432 11.0032 5.49982 9.8101 5.49858ZM9.8101 12.9986C9.21676 12.9986 8.63674 12.8226 8.14339 12.493C7.65004 12.1633 7.26553 11.6948 7.03846 11.1466C6.8114 10.5985 6.75199 9.99525 6.86775 9.41331C6.9835 8.83136 7.26922 8.29682 7.68878 7.87726C8.10834 7.4577 8.64289 7.17198 9.22483 7.05622C9.80677 6.94047 10.41 6.99988 10.9582 7.22694C11.5063 7.454 11.9749 7.83852 12.3045 8.33187C12.6342 8.82522 12.8101 9.40524 12.8101 9.99858C12.8101 10.7942 12.494 11.5573 11.9314 12.1199C11.3688 12.6825 10.6058 12.9986 9.8101 12.9986ZM18.0601 10.2011C18.0639 10.0661 18.0639 9.93108 18.0601 9.79608L19.4589 8.04858C19.5322 7.95683 19.583 7.84913 19.6071 7.73417C19.6312 7.6192 19.6279 7.50019 19.5976 7.3867C19.3683 6.52477 19.0253 5.69719 18.5776 4.92577C18.519 4.82481 18.4376 4.73894 18.34 4.67498C18.2423 4.61101 18.1311 4.57073 18.0151 4.55733L15.7914 4.30983C15.6989 4.21233 15.6051 4.11858 15.5101 4.02858L15.2476 1.7992C15.2341 1.68315 15.1937 1.57186 15.1295 1.4742C15.0654 1.37654 14.9794 1.29521 14.8782 1.2367C14.1065 0.789841 13.279 0.447173 12.4173 0.21764C12.3037 0.18745 12.1847 0.184362 12.0697 0.208626C11.9547 0.232889 11.8471 0.283825 11.7554 0.357328L10.0126 1.74858C9.8776 1.74858 9.7426 1.74858 9.6076 1.74858L7.8601 0.352641C7.76835 0.279298 7.66065 0.228532 7.54569 0.204432C7.43073 0.180332 7.31171 0.183572 7.19823 0.21389C6.33643 0.443603 5.5089 0.786593 4.73729 1.23389C4.63634 1.29251 4.55046 1.37388 4.4865 1.47154C4.42254 1.56919 4.38225 1.68043 4.36885 1.79639L4.12135 4.02389C4.02385 4.11702 3.9301 4.21077 3.8401 4.30514L1.61073 4.56108C1.49468 4.57458 1.38338 4.61501 1.28572 4.67914C1.18806 4.74327 1.10674 4.82933 1.04823 4.93045C0.601364 5.70217 0.258696 6.52968 0.0291639 7.39139C-0.0010265 7.50495 -0.00411435 7.624 0.0201492 7.73897C0.0444127 7.85394 0.0953487 7.9616 0.168851 8.05327L1.5601 9.79608C1.5601 9.93108 1.5601 10.0661 1.5601 10.2011L0.164164 11.9486C0.0908217 12.0403 0.0400557 12.148 0.0159556 12.263C-0.00814444 12.378 -0.0049048 12.497 0.0254138 12.6105C0.254717 13.4724 0.597729 14.3 1.04541 15.0714C1.10403 15.1723 1.18541 15.2582 1.28306 15.3222C1.38071 15.3861 1.49195 15.4264 1.60791 15.4398L3.83166 15.6873C3.92479 15.7848 4.01854 15.8786 4.11291 15.9686L4.3726 18.198C4.3861 18.314 4.42653 18.4253 4.49066 18.523C4.55479 18.6206 4.64085 18.7019 4.74198 18.7605C5.51369 19.2073 6.3412 19.55 7.20291 19.7795C7.31647 19.8097 7.43553 19.8128 7.55049 19.7885C7.66546 19.7643 7.77312 19.7133 7.86479 19.6398L9.6076 18.2486C9.7426 18.2523 9.8776 18.2523 10.0126 18.2486L11.7601 19.6473C11.8519 19.7207 11.9595 19.7714 12.0745 19.7955C12.1895 19.8196 12.3085 19.8164 12.422 19.7861C13.2839 19.5568 14.1115 19.2138 14.8829 18.7661C14.9839 18.7075 15.0697 18.6261 15.1337 18.5284C15.1977 18.4308 15.238 18.3195 15.2514 18.2036L15.4989 15.9798C15.5964 15.8873 15.6901 15.7936 15.7801 15.6986L18.0095 15.4361C18.1255 15.4226 18.2368 15.3822 18.3345 15.318C18.4321 15.2539 18.5135 15.1678 18.572 15.0667C19.0188 14.295 19.3615 13.4675 19.591 12.6058C19.6212 12.4922 19.6243 12.3732 19.6001 12.2582C19.5758 12.1432 19.5249 12.0356 19.4514 11.9439L18.0601 10.2011ZM16.5507 9.5917C16.5667 9.86272 16.5667 10.1344 16.5507 10.4055C16.5396 10.591 16.5977 10.7741 16.7139 10.9192L18.0442 12.5814C17.8915 13.0665 17.6961 13.5371 17.4601 13.9876L15.3414 14.2276C15.1568 14.2481 14.9865 14.3363 14.8632 14.4751C14.6828 14.6781 14.4906 14.8703 14.2876 15.0508C14.1488 15.174 14.0606 15.3444 14.0401 15.5289L13.8048 17.6458C13.3543 17.8818 12.8837 18.0773 12.3985 18.2298L10.7354 16.8995C10.6023 16.7932 10.437 16.7353 10.2667 16.7355H10.2217C9.95065 16.7514 9.67893 16.7514 9.40792 16.7355C9.22237 16.7243 9.03928 16.7824 8.89417 16.8986L7.22729 18.2298C6.74216 18.0772 6.27156 17.8817 5.82104 17.6458L5.58104 15.5298C5.56056 15.3453 5.47237 15.175 5.33354 15.0517C5.13058 14.8712 4.93837 14.679 4.75791 14.4761C4.63466 14.3372 4.4643 14.2491 4.27979 14.2286L2.16291 13.9923C1.92684 13.5419 1.73138 13.0712 1.57885 12.5861L2.90916 10.923C3.02533 10.7778 3.08346 10.5948 3.07229 10.4092C3.05635 10.1382 3.05635 9.86647 3.07229 9.59545C3.08346 9.40991 3.02533 9.22682 2.90916 9.0817L1.57885 7.41577C1.7315 6.93064 1.92696 6.46004 2.16291 6.00952L4.27885 5.76952C4.46337 5.74903 4.63373 5.66085 4.75698 5.52202C4.93744 5.31906 5.12964 5.12685 5.3326 4.94639C5.47199 4.82306 5.56054 4.65231 5.58104 4.46733L5.81635 2.35139C6.26682 2.11532 6.73743 1.91986 7.2226 1.76733L8.88573 3.09764C9.03085 3.2138 9.21393 3.27193 9.39948 3.26077C9.67049 3.24483 9.94221 3.24483 10.2132 3.26077C10.3988 3.27193 10.5819 3.2138 10.727 3.09764L12.3929 1.76733C12.878 1.91998 13.3486 2.11543 13.7992 2.35139L14.0392 4.46733C14.0596 4.65184 14.1478 4.8222 14.2867 4.94545C14.4896 5.12591 14.6818 5.31812 14.8623 5.52108C14.9855 5.65991 15.1559 5.7481 15.3404 5.76858L17.4573 6.00389C17.6934 6.45436 17.8888 6.92497 18.0414 7.41014L16.711 9.07327C16.5938 9.21961 16.5356 9.40457 16.5479 9.5917H16.5507Z"
    fill="black" />
</svg>