<svg width="25" height="20" viewBox="0 0 25 20" fill="none" xmlns="http://www.w3.org/2000/svg">
<path d="M24.0385 0.5H0.961538C0.706523 0.5 0.461951 0.600089 0.281628 0.778249C0.101305 0.956408 0 1.19804 0 1.45V17.6C0 18.1039 0.202609 18.5872 0.563256 18.9435C0.923903 19.2998 1.41305 19.5 1.92308 19.5H23.0769C23.587 19.5 24.0761 19.2998 24.4367 18.9435C24.7974 18.5872 25 18.1039 25 17.6V1.45C25 1.19804 24.8987 0.956408 24.7184 0.778249C24.538 0.600089 24.2935 0.5 24.0385 0.5ZM21.5661 2.4L12.5 10.6116L3.43389 2.4H21.5661ZM23.0769 17.6H1.92308V3.61006L11.8498 12.6006C12.0272 12.7615 12.2592 12.8508 12.5 12.8508C12.7408 12.8508 12.9728 12.7615 13.1502 12.6006L23.0769 3.61006V17.6Z" fill="#939393"/>
</svg>
