<svg width="49" height="35" viewBox="0 0 49 35" fill="none" xmlns="http://www.w3.org/2000/svg">
<rect x="1" y="1" width="47" height="33" rx="5" fill="white" stroke="#D0CFCF" stroke-width="2"/>
<path d="M19.9458 26L18.8175 15.5826C18.7905 15.3599 18.7681 15.1373 18.7501 14.91C18.7321 14.6827 18.7141 14.474 18.7006 14.2792C18.6871 14.0566 18.6737 13.8479 18.6602 13.6531H18.6197C18.5793 13.8479 18.5298 14.0566 18.4714 14.2792C18.4309 14.474 18.3905 14.6874 18.3455 14.91C18.3006 15.1373 18.2421 15.3599 18.1792 15.5826L15.2304 26H13.7426L10.8118 15.5826C10.7444 15.3599 10.6859 15.1373 10.632 14.91C10.5736 14.6827 10.5286 14.474 10.4882 14.2792C10.4342 14.0566 10.3983 13.8479 10.3713 13.6531H10.3308C10.3174 13.8479 10.3039 14.0566 10.2904 14.2792C10.2769 14.474 10.2634 14.6827 10.2544 14.91C10.2409 15.1373 10.2185 15.3599 10.1915 15.5826L9.02278 26H7L8.78004 11H11.3108L14.0662 20.8006C14.1337 21.0232 14.1876 21.2412 14.2325 21.4545C14.2775 21.6679 14.3224 21.8627 14.3674 22.0482C14.4213 22.257 14.4573 22.4564 14.4843 22.6466H14.5247C14.5382 22.4564 14.5697 22.257 14.6236 22.0482C14.6506 21.8673 14.691 21.6679 14.745 21.4545C14.7989 21.2412 14.8619 21.0232 14.9248 20.8006L17.6847 11H20.2155L22 26H19.9458Z" fill="#939393" stroke="#939393" stroke-width="0.5" stroke-miterlimit="10"/>
<path d="M24.5466 26V15.7939H26.6305V26H24.5466Z" fill="#939393" stroke="#939393" stroke-width="0.5" stroke-miterlimit="10"/>
<path d="M35.2107 26V19.2957C35.2107 18.6662 35.0335 18.1773 34.6791 17.8229C34.3246 17.4745 33.799 17.2973 33.0962 17.2973C32.7112 17.2973 32.3629 17.3278 32.039 17.3829C31.7151 17.4379 31.4462 17.5173 31.2384 17.6151V26H29.185V16.3195C29.6922 16.1056 30.2728 15.9284 30.9206 15.7878C31.5684 15.6534 32.2895 15.58 33.084 15.58C34.5018 15.58 35.5591 15.8856 36.2497 16.4967C36.9402 17.1078 37.2886 17.9756 37.2886 19.094V26H35.2107Z" fill="#939393" stroke="#939393" stroke-width="0.5" stroke-miterlimit="10"/>
<path d="M39.8371 26V15.7939H41.9211V26H39.8371Z" fill="#939393" stroke="#939393" stroke-width="0.5" stroke-miterlimit="10"/>
<path d="M25.5 14C27.1569 14 28.5 12.6569 28.5 11C28.5 9.34315 27.1569 8 25.5 8C23.8431 8 22.5 9.34315 22.5 11C22.5 12.6569 23.8431 14 25.5 14Z" fill="#939393"/>
<path d="M24.8235 9.66906V12.32C24.8235 12.4727 24.9981 12.5709 25.129 12.4727L26.929 11.1527C27.0381 11.0763 27.0381 10.9236 26.929 10.8472L25.129 9.52725C24.9981 9.41816 24.8235 9.51634 24.8235 9.66906Z" fill="white"/>
</svg>
