<svg width="19" height="19" viewBox="0 0 19 19" fill="none" xmlns="http://www.w3.org/2000/svg">
<rect x="1" y="1" width="17" height="17" rx="5" fill="white"/>
<rect x="1" y="1" width="17" height="17" rx="5" stroke="#B3B1B1" stroke-width="2"/>
<path d="M12.8656 9.74743L6.46894 13.9502C6.42349 13.98 6.3707 13.9971 6.31618 13.9997C6.26166 14.0022 6.20745 13.9902 6.15933 13.9648C6.11121 13.9394 6.07098 13.9016 6.04292 13.8555C6.01486 13.8093 6.00003 13.7566 6 13.7028V5.29724C6.00003 5.24345 6.01486 5.19067 6.04292 5.14452C6.07098 5.09838 6.11121 5.0606 6.15933 5.03521C6.20745 5.00982 6.26166 4.99777 6.31618 5.00034C6.3707 5.00291 6.42349 5.02001 6.46894 5.04981L12.8656 9.25257C12.907 9.27973 12.9409 9.31652 12.9643 9.35969C12.9877 9.40285 13 9.45105 13 9.5C13 9.54895 12.9877 9.59715 12.9643 9.64032C12.9409 9.68348 12.907 9.72027 12.8656 9.74743Z" fill="#737373"/>
</svg>
