<svg width="20" height="20" viewBox="0 0 20 20" fill="none" xmlns="http://www.w3.org/2000/svg">
<path d="M18.7692 5.42593C17.6067 5.42476 16.4922 4.97955 15.6702 4.18798C14.8482 3.39641 14.3858 2.32315 14.3846 1.2037C14.3846 1.01707 14.3076 0.83808 14.1706 0.70611C14.0335 0.57414 13.8477 0.5 13.6538 0.5H10C9.80619 0.5 9.62031 0.57414 9.48327 0.70611C9.34622 0.83808 9.26923 1.01707 9.26923 1.2037V12.8148C9.26908 13.1296 9.18121 13.4386 9.01479 13.7096C8.84838 13.9805 8.6095 14.2035 8.32309 14.3553C8.03668 14.5071 7.71322 14.5821 7.38646 14.5724C7.0597 14.5628 6.74161 14.4689 6.46536 14.3006C6.18912 14.1323 5.96484 13.8956 5.81593 13.6154C5.66701 13.3351 5.59892 13.0215 5.61875 12.7073C5.63858 12.3931 5.7456 12.0897 5.92866 11.8289C6.11171 11.5681 6.36409 11.3593 6.65947 11.2244C6.78442 11.1673 6.88997 11.0773 6.96387 10.9647C7.03776 10.8521 7.07697 10.7217 7.07692 10.5885V6.83333C7.07697 6.73047 7.0536 6.62885 7.00845 6.53562C6.9633 6.44239 6.89748 6.35983 6.81562 6.29375C6.73376 6.22766 6.63785 6.17967 6.53464 6.15314C6.43143 6.1266 6.32344 6.12218 6.21827 6.14019C2.95812 6.69963 0.5 9.56898 0.5 12.8148C0.5 14.5878 1.23142 16.2882 2.53335 17.542C3.83529 18.7957 5.60109 19.5 7.44231 19.5C9.28352 19.5 11.0493 18.7957 12.3513 17.542C13.6532 16.2882 14.3846 14.5878 14.3846 12.8148V9.32181C15.738 10.0018 17.2427 10.3553 18.7692 10.3519C18.963 10.3519 19.1489 10.2777 19.286 10.1457C19.423 10.0138 19.5 9.83478 19.5 9.64815V6.12963C19.5 5.943 19.423 5.76401 19.286 5.63204C19.1489 5.50007 18.963 5.42593 18.7692 5.42593ZM18.0385 8.91278C16.6104 8.79092 15.243 8.30012 14.0804 7.49218C13.9712 7.41653 13.8423 7.3714 13.7081 7.36178C13.5739 7.35215 13.4396 7.3784 13.3199 7.43762C13.2002 7.49684 13.0998 7.58675 13.0298 7.69742C12.9598 7.80809 12.9228 7.93523 12.9231 8.06481V12.8148C12.9231 14.2146 12.3456 15.557 11.3178 16.5468C10.29 17.5365 8.8959 18.0926 7.44231 18.0926C5.98872 18.0926 4.59466 17.5365 3.56682 16.5468C2.53898 15.557 1.96154 14.2146 1.96154 12.8148C1.96154 10.5366 3.48154 8.49319 5.61538 7.74815V10.1821C5.14299 10.486 4.76042 10.9026 4.50498 11.3913C4.24954 11.88 4.12993 12.4241 4.15781 12.9705C4.18569 13.517 4.36012 14.0471 4.66408 14.5093C4.96804 14.9715 5.39118 15.35 5.89224 15.6079C6.39331 15.8658 6.95521 15.9943 7.52317 15.9808C8.09114 15.9674 8.6458 15.8124 9.13309 15.5311C9.62039 15.2498 10.0237 14.8518 10.3037 14.3757C10.5837 13.8997 10.7308 13.3619 10.7308 12.8148V1.90741H12.9688C13.1331 3.14688 13.7201 4.29875 14.6376 5.1823C15.5551 6.06585 16.7513 6.6311 18.0385 6.78935V8.91278Z" fill="#838181"/>
</svg>
