<svg width="22" height="25" viewBox="0 0 22 25" fill="none" xmlns="http://www.w3.org/2000/svg">
<path d="M21.7202 7.01202L15.0246 0.28125C14.9357 0.191986 14.8301 0.121204 14.714 0.0729461C14.5979 0.0246883 14.4735 -9.90249e-05 14.3478 2.97306e-07H2.86957C2.36219 2.97306e-07 1.8756 0.20261 1.51684 0.563256C1.15807 0.923903 0.956522 1.41305 0.956522 1.92308V10.5769C0.956522 10.8319 1.0573 11.0765 1.23668 11.2568C1.41606 11.4372 1.65936 11.5385 1.91304 11.5385C2.16673 11.5385 2.41002 11.4372 2.58941 11.2568C2.76879 11.0765 2.86957 10.8319 2.86957 10.5769V1.92308H13.3913V7.69231C13.3913 7.94732 13.4921 8.19189 13.6715 8.37222C13.8508 8.55254 14.0941 8.65385 14.3478 8.65385H20.087V23.0769H19.1304C18.8767 23.0769 18.6335 23.1782 18.4541 23.3585C18.2747 23.5389 18.1739 23.7834 18.1739 24.0385C18.1739 24.2935 18.2747 24.538 18.4541 24.7184C18.6335 24.8987 18.8767 25 19.1304 25H20.087C20.5943 25 21.0809 24.7974 21.4397 24.4367C21.7984 24.0761 22 23.587 22 23.0769V7.69231C22.0001 7.566 21.9754 7.44091 21.9274 7.32418C21.8794 7.20746 21.809 7.10138 21.7202 7.01202ZM15.3043 3.28245L18.7347 6.73077H15.3043V3.28245ZM14.8117 14.5433C14.6623 14.4601 14.4934 14.4188 14.3227 14.4234C14.152 14.4281 13.9856 14.4786 13.8409 14.5697L11.4555 16.0673C11.389 15.6109 11.1615 15.1937 10.8145 14.8919C10.4675 14.5901 10.0241 14.4237 9.56522 14.4231H1.91304C1.40567 14.4231 0.919083 14.6257 0.560317 14.9863C0.201552 15.347 0 15.8361 0 16.3462V22.1154C0 22.6254 0.201552 23.1146 0.560317 23.4752C0.919083 23.8359 1.40567 24.0385 1.91304 24.0385H9.56522C10.0241 24.0379 10.4675 23.8715 10.8145 23.5696C11.1615 23.2678 11.389 22.8506 11.4555 22.3942L13.8409 23.8918C13.9856 23.9828 14.152 24.0331 14.3226 24.0376C14.4932 24.0422 14.662 24.0007 14.8113 23.9176C14.9606 23.8344 15.0851 23.7126 15.1718 23.5648C15.2585 23.417 15.3043 23.2485 15.3043 23.0769V15.3846C15.3044 15.2129 15.2588 15.0444 15.1722 14.8964C15.0855 14.7485 14.9611 14.6265 14.8117 14.5433ZM9.56522 22.1154H1.91304V16.3462H9.56522V22.1154ZM13.3913 21.3425L11.4783 20.1406V18.3209L13.3913 17.119V21.3425Z" fill="black"/>
</svg>
