<svg width="22" height="22" viewBox="0 0 22 22" fill="none" xmlns="http://www.w3.org/2000/svg">
<path d="M21.9971 11.9255C21.8173 14.0166 21.0439 16.0129 19.768 17.6794C18.4921 19.346 16.7668 20.6134 14.7951 21.3327C12.8233 22.052 10.6871 22.1932 8.63785 21.7397C6.58858 21.2862 4.71146 20.2568 3.22734 18.7727C1.74323 17.2885 0.713849 15.4114 0.260322 13.3621C-0.193206 11.3129 -0.0520176 9.1767 0.667275 7.20494C1.38657 5.23318 2.65404 3.50787 4.32058 2.232C5.98712 0.956117 7.98338 0.182748 10.0745 0.00287635C10.1857 -0.00629603 10.2976 0.00651993 10.4038 0.0405927C10.5101 0.0746654 10.6085 0.129328 10.6936 0.201458C10.7787 0.273589 10.8488 0.361775 10.8998 0.460982C10.9508 0.56019 10.9818 0.668475 10.991 0.779655C11.0002 0.890836 10.9873 1.00273 10.9533 1.10896C10.9192 1.21519 10.8645 1.31367 10.7924 1.39877C10.7203 1.48387 10.6321 1.55393 10.5329 1.60495C10.4337 1.65597 10.3254 1.68695 10.2142 1.69613C8.44433 1.8482 6.7547 2.50261 5.34412 3.58237C3.93354 4.66213 2.8607 6.12231 2.25183 7.79112C1.64297 9.45992 1.52341 11.2679 1.90722 13.0024C2.29102 14.7368 3.16224 16.3255 4.41835 17.5817C5.67445 18.8378 7.2632 19.709 8.99765 20.0928C10.7321 20.4766 12.5401 20.357 14.2089 19.7482C15.8777 19.1393 17.3379 18.0665 18.4176 16.6559C19.4974 15.2453 20.1518 13.5557 20.3039 11.7858C20.3224 11.5612 20.4294 11.3533 20.6012 11.2076C20.7731 11.0619 20.9958 10.9905 21.2203 11.009C21.4449 11.0275 21.6529 11.1345 21.7985 11.3064C21.9442 11.4782 22.0156 11.7009 21.9971 11.9255ZM10.1444 5.08263V11.009C10.1444 11.2335 10.2336 11.4489 10.3923 11.6077C10.5511 11.7664 10.7665 11.8556 10.991 11.8556H16.9174C17.1419 11.8556 17.3573 11.7664 17.516 11.6077C17.6748 11.4489 17.764 11.2335 17.764 11.009C17.764 10.7845 17.6748 10.5691 17.516 10.4104C17.3573 10.2516 17.1419 10.1624 16.9174 10.1624H11.8376V5.08263C11.8376 4.85809 11.7484 4.64275 11.5896 4.48397C11.4309 4.3252 11.2155 4.236 10.991 4.236C10.7665 4.236 10.5511 4.3252 10.3923 4.48397C10.2336 4.64275 10.1444 4.85809 10.1444 5.08263ZM14.3775 2.54275C14.6287 2.54275 14.8742 2.46827 15.083 2.32873C15.2919 2.18919 15.4546 1.99085 15.5508 1.7588C15.6469 1.52675 15.672 1.27141 15.623 1.02506C15.574 0.778718 15.4531 0.552437 15.2755 0.374833C15.0979 0.197229 14.8716 0.0762788 14.6252 0.0272779C14.3789 -0.0217229 14.1236 0.00342612 13.8915 0.0995447C13.6595 0.195663 13.4611 0.358434 13.3216 0.567275C13.182 0.776115 13.1076 1.02164 13.1076 1.27281C13.1076 1.60962 13.2414 1.93264 13.4795 2.1708C13.7177 2.40896 14.0407 2.54275 14.3775 2.54275ZM18.1873 5.08263C18.4385 5.08263 18.684 5.00815 18.8928 4.86861C19.1017 4.72906 19.2645 4.53073 19.3606 4.29868C19.4567 4.06662 19.4818 3.81128 19.4328 3.56494C19.3838 3.31859 19.2629 3.09231 19.0853 2.91471C18.9077 2.7371 18.6814 2.61615 18.4351 2.56715C18.1887 2.51815 17.9334 2.5433 17.7013 2.63942C17.4693 2.73554 17.2709 2.89831 17.1314 3.10715C16.9919 3.31599 16.9174 3.56152 16.9174 3.81269C16.9174 4.1495 17.0512 4.47251 17.2893 4.71067C17.5275 4.94883 17.8505 5.08263 18.1873 5.08263ZM20.7272 8.89244C20.9784 8.89244 21.2239 8.81796 21.4327 8.67842C21.6416 8.53888 21.8043 8.34054 21.9005 8.10849C21.9966 7.87644 22.0217 7.6211 21.9727 7.37475C21.9237 7.12841 21.8028 6.90213 21.6252 6.72452C21.4476 6.54692 21.2213 6.42597 20.9749 6.37697C20.7286 6.32797 20.4733 6.35312 20.2412 6.44924C20.0091 6.54535 19.8108 6.70813 19.6713 6.91697C19.5317 7.12581 19.4572 7.37134 19.4572 7.62251C19.4572 7.95931 19.591 8.28233 19.8292 8.52049C20.0674 8.75865 20.3904 8.89244 20.7272 8.89244Z" fill="black"/>
</svg>
