<svg width="24" height="25" viewBox="0 0 24 25" fill="none" xmlns="http://www.w3.org/2000/svg">
<path d="M22 0H2C1.46957 0 0.960859 0.210713 0.585786 0.585785C0.210714 0.960856 0 1.46956 0 1.99999V8.99998C0 15.59 3.19 19.5837 5.86625 21.7737C8.74875 24.1312 11.6163 24.9312 11.7413 24.9649C11.9131 25.0117 12.0944 25.0117 12.2663 24.9649C12.3913 24.9312 15.255 24.1312 18.1413 21.7737C20.81 19.5837 24 15.59 24 8.99998V1.99999C24 1.46956 23.7893 0.960856 23.4142 0.585785C23.0391 0.210713 22.5304 0 22 0ZM22 8.99998C22 13.6337 20.2925 17.395 16.925 20.1774C15.4591 21.3846 13.7919 22.3239 12 22.9524C10.2315 22.3349 8.58494 21.4122 7.135 20.2262C3.7275 17.4387 2 13.6625 2 8.99998V1.99999H22V8.99998ZM6.2925 12.7075C6.10486 12.5198 5.99944 12.2653 5.99944 12C5.99944 11.7346 6.10486 11.4801 6.2925 11.2925C6.48014 11.1048 6.73464 10.9994 7 10.9994C7.26536 10.9994 7.51986 11.1048 7.7075 11.2925L10 13.5862L16.2925 7.29248C16.3854 7.19957 16.4957 7.12587 16.6171 7.07559C16.7385 7.0253 16.8686 6.99942 17 6.99942C17.1314 6.99942 17.2615 7.0253 17.3829 7.07559C17.5043 7.12587 17.6146 7.19957 17.7075 7.29248C17.8004 7.38539 17.8741 7.49569 17.9244 7.61708C17.9747 7.73848 18.0006 7.86858 18.0006 7.99998C18.0006 8.13137 17.9747 8.26148 17.9244 8.38287C17.8741 8.50427 17.8004 8.61457 17.7075 8.70748L10.7075 15.7075C10.6146 15.8004 10.5043 15.8742 10.3829 15.9245C10.2615 15.9748 10.1314 16.0007 10 16.0007C9.86858 16.0007 9.73846 15.9748 9.61706 15.9245C9.49566 15.8742 9.38537 15.8004 9.2925 15.7075L6.2925 12.7075Z" fill="black"/>
</svg>
