<svg width="17" height="16" viewBox="0 0 17 16" fill="none" xmlns="http://www.w3.org/2000/svg">
<path d="M16.3704 14.7686H12.5423C14.2102 13.741 15.4426 12.1591 16.0128 10.3137C16.5829 8.46834 16.4525 6.48372 15.6454 4.72492C14.8384 2.96613 13.409 1.55144 11.6202 0.741115C9.83142 -0.0692144 7.80357 -0.220689 5.90968 0.314555C4.01578 0.8498 2.38323 2.03576 1.31234 3.65428C0.24144 5.2728 -0.195775 7.21502 0.0811202 9.12365C0.358015 11.0323 1.3304 12.779 2.81939 14.0424C4.30838 15.3058 6.21384 16.0009 8.18524 16H16.3704C16.5374 16 16.6975 15.9351 16.8156 15.8197C16.9337 15.7042 17 15.5476 17 15.3843C17 15.221 16.9337 15.0644 16.8156 14.949C16.6975 14.8335 16.5374 14.7686 16.3704 14.7686ZM1.25937 7.99615C1.25937 6.65668 1.66556 5.34729 2.42659 4.23356C3.18761 3.11983 4.26929 2.25179 5.53483 1.73919C6.80036 1.2266 8.19293 1.09248 9.53642 1.3538C10.8799 1.61512 12.114 2.26014 13.0826 3.20728C14.0512 4.15443 14.7108 5.36117 14.978 6.67491C15.2453 7.98864 15.1081 9.35036 14.5839 10.5879C14.0597 11.8254 13.172 12.8831 12.0331 13.6273C10.8941 14.3714 9.55505 14.7686 8.18524 14.7686C6.34903 14.7666 4.58861 14.0524 3.29021 12.7828C1.99181 11.5131 1.26145 9.7917 1.25937 7.99615ZM8.18524 6.14911C8.55883 6.14911 8.92402 6.04078 9.23465 5.83783C9.54527 5.63487 9.78737 5.34641 9.93034 5.0089C10.0733 4.6714 10.1107 4.30002 10.0378 3.94173C9.96494 3.58344 9.78505 3.25433 9.52088 2.99602C9.25672 2.7377 8.92015 2.56179 8.55375 2.49052C8.18734 2.41925 7.80755 2.45583 7.4624 2.59563C7.11726 2.73543 6.82225 2.97217 6.6147 3.27591C6.40715 3.57965 6.29637 3.93676 6.29637 4.30207C6.29637 4.79194 6.49537 5.26174 6.84961 5.60813C7.20384 5.95451 7.68428 6.14911 8.18524 6.14911ZM8.18524 3.68639C8.30977 3.68639 8.4315 3.7225 8.53505 3.79015C8.63859 3.8578 8.71929 3.95396 8.76694 4.06646C8.8146 4.17896 8.82707 4.30275 8.80277 4.42218C8.77848 4.54162 8.71851 4.65132 8.63046 4.73742C8.5424 4.82353 8.43021 4.88217 8.30808 4.90592C8.18594 4.92968 8.05935 4.91749 7.9443 4.87089C7.82925 4.82429 7.73091 4.74537 7.66173 4.64412C7.59255 4.54288 7.55562 4.42384 7.55562 4.30207C7.55562 4.13878 7.62195 3.98218 7.74003 3.86672C7.85811 3.75126 8.01826 3.68639 8.18524 3.68639ZM10.0741 11.6902C10.0741 11.3249 9.96334 10.9678 9.75579 10.6641C9.54824 10.3603 9.25323 10.1236 8.90809 9.98379C8.56294 9.84399 8.18315 9.80742 7.81674 9.87868C7.45034 9.94995 7.11377 10.1259 6.84961 10.3842C6.58544 10.6425 6.40555 10.9716 6.33266 11.3299C6.25978 11.6882 6.29719 12.0596 6.44015 12.3971C6.58312 12.7346 6.82522 13.023 7.13584 13.226C7.44647 13.429 7.81166 13.5373 8.18524 13.5373C8.68621 13.5373 9.16665 13.3427 9.52088 12.9963C9.87512 12.6499 10.0741 12.1801 10.0741 11.6902ZM7.55562 11.6902C7.55562 11.5685 7.59255 11.4494 7.66173 11.3482C7.73091 11.2469 7.82925 11.168 7.9443 11.1214C8.05935 11.0748 8.18594 11.0626 8.30808 11.0864C8.43021 11.1101 8.5424 11.1688 8.63046 11.2549C8.71851 11.341 8.77848 11.4507 8.80277 11.5701C8.82707 11.6896 8.8146 11.8133 8.76694 11.9258C8.71929 12.0383 8.63859 12.1345 8.53505 12.2022C8.4315 12.2698 8.30977 12.3059 8.18524 12.3059C8.01826 12.3059 7.85811 12.2411 7.74003 12.1256C7.62195 12.0101 7.55562 11.8535 7.55562 11.6902ZM11.963 9.84319C12.3366 9.84319 12.7018 9.73487 13.0124 9.53191C13.323 9.32896 13.5651 9.04049 13.7081 8.70299C13.8511 8.36548 13.8885 7.9941 13.8156 7.63581C13.7427 7.27752 13.5628 6.94841 13.2986 6.6901C13.0345 6.43178 12.6979 6.25587 12.3315 6.1846C11.9651 6.11333 11.5853 6.14991 11.2402 6.28971C10.895 6.42951 10.6 6.66625 10.3925 6.96999C10.1849 7.27374 10.0741 7.63084 10.0741 7.99615C10.0741 8.48602 10.2731 8.95582 10.6274 9.30221C10.9816 9.6486 11.462 9.84319 11.963 9.84319ZM11.963 7.38047C12.0875 7.38047 12.2093 7.41658 12.3128 7.48423C12.4163 7.55189 12.497 7.64804 12.5447 7.76054C12.5924 7.87304 12.6048 7.99684 12.5805 8.11627C12.5562 8.2357 12.4963 8.3454 12.4082 8.43151C12.3202 8.51761 12.208 8.57625 12.0858 8.6C11.9637 8.62376 11.8371 8.61157 11.7221 8.56497C11.607 8.51837 11.5087 8.43946 11.4395 8.33821C11.3703 8.23696 11.3334 8.11792 11.3334 7.99615C11.3334 7.83286 11.3997 7.67626 11.5178 7.5608C11.6359 7.44534 11.796 7.38047 11.963 7.38047ZM4.40749 6.14911C4.03391 6.14911 3.66871 6.25744 3.35809 6.46039C3.04746 6.66335 2.80536 6.95182 2.6624 7.28932C2.51943 7.62682 2.48203 7.9982 2.55491 8.35649C2.62779 8.71478 2.80769 9.0439 3.07186 9.30221C3.33602 9.56052 3.67258 9.73644 4.03899 9.8077C4.4054 9.87897 4.78519 9.84239 5.13033 9.7026C5.47548 9.5628 5.77048 9.32606 5.97804 9.02231C6.18559 8.71857 6.29637 8.36146 6.29637 7.99615C6.29637 7.50629 6.09736 7.03649 5.74313 6.6901C5.3889 6.34371 4.90845 6.14911 4.40749 6.14911ZM4.40749 8.61183C4.28296 8.61183 4.16123 8.57573 4.05769 8.50807C3.95415 8.44042 3.87345 8.34426 3.82579 8.23176C3.77814 8.11926 3.76567 7.99547 3.78996 7.87604C3.81426 7.75661 3.87423 7.64691 3.96228 7.5608C4.05033 7.4747 4.16252 7.41606 4.28466 7.3923C4.40679 7.36855 4.53339 7.38074 4.64844 7.42734C4.76349 7.47394 4.86182 7.55285 4.93101 7.6541C5.00019 7.75535 5.03712 7.87438 5.03712 7.99615C5.03712 8.15944 4.97078 8.31604 4.8527 8.43151C4.73463 8.54697 4.57448 8.61183 4.40749 8.61183Z" fill="#838181"/>
</svg>
