<svg width="21" height="22" viewBox="0 0 21 22" fill="none" xmlns="http://www.w3.org/2000/svg">
<path fill-rule="evenodd" clip-rule="evenodd"
    d="M20.9942 5.79339L21 10.9711C21 16.0909 21 16.1545 20.8785 16.4669C20.8149 16.6405 20.6818 16.8893 20.5893 17.0165C20.4967 17.1438 20.2826 17.3405 20.1149 17.4562C19.9298 17.5835 19.6752 17.6934 19.4669 17.7339C19.276 17.7802 18.9926 17.7975 18.8306 17.7744C18.6686 17.757 18.3851 17.6645 18.1942 17.5719C17.8992 17.4215 17.4653 17.0165 15.2669 14.8066C13.1901 12.724 12.6636 12.157 12.5595 11.9256C12.4843 11.7636 12.4033 11.4917 12.3686 11.3182C12.3281 11.0926 12.3339 10.9017 12.3802 10.6529C12.4207 10.462 12.5132 10.1727 12.5942 10.0165C12.7041 9.80248 13.3579 9.10248 15.1802 7.28017C16.5165 5.93223 17.7314 4.7405 17.876 4.63636C18.0207 4.52645 18.2521 4.39917 18.3967 4.34711C18.5413 4.28926 18.8364 4.24876 19.062 4.24297C19.386 4.24297 19.5364 4.2719 19.814 4.39917C20.005 4.48595 20.2595 4.65372 20.3868 4.76942C20.5083 4.88512 20.6992 5.16281 20.8033 5.38843L20.9942 5.79339ZM19.5306 5.67769C19.3628 5.5157 19.2876 5.48678 19.0504 5.48099L18.7727 5.47521C14.8851 9.35124 13.7223 10.5488 13.676 10.6413C13.6298 10.7281 13.595 10.8901 13.595 11C13.595 11.1099 13.6298 11.2893 13.6818 11.3876C13.7281 11.4917 14.8793 12.6893 16.2388 14.043C18.2174 16.0157 18.7496 16.519 18.9 16.5479C19.0099 16.5653 19.1661 16.5479 19.276 16.5074C19.3802 16.4612 19.5248 16.3512 19.6 16.2587L19.7273 16.0909V5.8686L19.5306 5.67769ZM11.0901 1.81322C11.0785 2.6 11.0727 2.6405 10.9339 2.77934C10.8529 2.86612 10.6967 2.94711 10.5868 2.97025C10.4537 2.99339 10.3207 2.97025 10.2107 2.90661C10.1124 2.86033 10.0025 2.75041 9.96198 2.66942C9.9157 2.57107 9.89256 2.24711 9.89256 0.876033L10.095 0.685124C10.2107 0.580992 10.3554 0.5 10.4421 0.5C10.5174 0.5 10.662 0.540496 10.7603 0.586777C10.8529 0.633058 10.9686 0.742975 11.0207 0.829752C11.0843 0.957025 11.1017 1.17107 11.0901 1.81322ZM11.0785 21.1645L10.8876 21.3322C10.7719 21.4364 10.6388 21.5 10.5289 21.5C10.4306 21.5 10.2744 21.4537 10.1818 21.3959C10.0835 21.3438 9.97934 21.2397 9.95041 21.1645C9.9157 21.095 9.89256 20.6785 9.89256 20.2388C9.89256 19.5736 9.90413 19.4231 9.99091 19.3074C10.0488 19.2264 10.176 19.1281 10.2802 19.0876C10.419 19.0355 10.5231 19.0298 10.6736 19.0702C10.8008 19.105 10.9165 19.1975 10.9917 19.3132C11.0959 19.4868 11.1074 19.5851 11.0785 21.1645ZM8.59091 11.1446C8.56777 11.4744 8.52149 11.6711 8.38264 11.9545C8.22645 12.2959 7.96033 12.5793 5.65207 14.8876C3.41322 17.1264 3.04876 17.462 2.74793 17.6066C2.45868 17.7397 2.31983 17.7686 1.93802 17.7686C1.56198 17.7686 1.41157 17.7397 1.15702 17.6182C0.977686 17.5372 0.746281 17.3926 0.636364 17.2942C0.52066 17.2017 0.335537 16.9355 0 16.2934V5.76446L0.161983 5.4C0.254545 5.19174 0.428099 4.93719 0.578512 4.79256C0.723141 4.65372 0.942976 4.49174 1.07025 4.43388C1.19752 4.37025 1.4405 4.29504 1.61983 4.26033C1.83388 4.21983 2.03058 4.21983 2.23884 4.26033C2.40661 4.28926 2.66694 4.38182 2.81736 4.45702C3.01405 4.56116 3.82397 5.33058 5.67521 7.19339C7.39339 8.91736 8.30165 9.86612 8.38264 10.0281C8.44628 10.1669 8.52727 10.3752 8.5562 10.4909C8.59091 10.6124 8.60248 10.9074 8.59091 11.1446ZM4.73223 7.98017L2.22727 5.47521C1.78182 5.46942 1.65454 5.50992 1.53306 5.60248C1.4405 5.67769 1.33058 5.82231 1.29008 5.92066C1.22645 6.07686 1.21488 7.08347 1.21488 11.0405C1.21488 15.6223 1.22066 15.9926 1.31322 16.1777C1.37107 16.2934 1.50413 16.4264 1.61983 16.4843C1.75289 16.5537 1.88595 16.5769 2.02479 16.5537C2.19256 16.5248 2.59752 16.1488 4.73223 14.0198C6.17851 12.5793 7.27769 11.4397 7.32397 11.3298C7.36446 11.2314 7.39917 11.0752 7.39917 10.9826C7.39917 10.8959 7.36446 10.7455 7.31818 10.6529C7.27769 10.5545 6.11487 9.35124 4.73223 7.98017ZM11.0959 5.5157C11.0785 6.29669 11.0727 6.34298 10.9339 6.48182C10.8529 6.56859 10.6967 6.64959 10.5868 6.67273C10.4537 6.69587 10.3207 6.67273 10.2107 6.60909C10.1124 6.56281 10.0025 6.45289 9.96198 6.3719C9.9157 6.27934 9.89256 5.94959 9.89256 5.42893C9.89256 4.76364 9.90413 4.61322 9.99091 4.49752C10.0488 4.41653 10.176 4.31818 10.2802 4.27769C10.419 4.22562 10.5231 4.21983 10.6736 4.26033C10.8008 4.29504 10.9165 4.3876 10.9917 4.50331C11.0959 4.67686 11.1074 4.77521 11.0959 5.5157ZM11.0959 9.21818C11.0785 9.99917 11.0727 10.0455 10.9339 10.1843C10.8529 10.2711 10.6967 10.3521 10.5868 10.3752C10.4537 10.3983 10.3207 10.3752 10.2107 10.3116C10.1124 10.2653 10.0025 10.1554 9.96198 10.0744C9.9157 9.98182 9.89256 9.65207 9.89256 9.1314C9.89256 8.46612 9.90413 8.3157 9.99091 8.2C10.0488 8.11901 10.176 8.02066 10.2802 7.98017C10.419 7.9281 10.5231 7.92231 10.6736 7.96281C10.8008 7.99752 10.9165 8.09008 10.9917 8.20578C11.0959 8.37934 11.1074 8.47769 11.0959 9.21818ZM11.0959 12.9207C11.0785 13.7017 11.0727 13.7479 10.9339 13.8868C10.8529 13.9736 10.6967 14.0545 10.5868 14.0777C10.4537 14.1008 10.3207 14.0777 10.2107 14.0141C10.1124 13.9678 10.0025 13.8579 9.96198 13.7769C9.9157 13.6843 9.88678 13.3488 9.88678 12.8339C9.88678 12.1397 9.89835 12.024 9.99091 11.8967C10.0545 11.8157 10.1818 11.7174 10.2744 11.6711C10.4017 11.6074 10.4884 11.6074 10.6562 11.6595C10.795 11.7 10.9165 11.7868 10.9917 11.9083C11.0959 12.0818 11.1074 12.1802 11.0959 12.9207ZM11.0959 16.6231C11.0785 17.4041 11.0727 17.4504 10.9339 17.5893C10.8529 17.676 10.6967 17.757 10.5868 17.7802C10.4537 17.8033 10.3207 17.7802 10.2107 17.7165C10.1124 17.6702 10.0025 17.5603 9.96198 17.4793C9.9157 17.3868 9.89256 17.057 9.89256 16.5364C9.89256 15.8711 9.90413 15.7207 9.99091 15.605C10.0488 15.524 10.176 15.4256 10.2802 15.3851C10.419 15.3331 10.5231 15.3273 10.6736 15.3678C10.8008 15.4025 10.9165 15.495 10.9917 15.6107C11.0959 15.7843 11.1074 15.8826 11.0959 16.6231Z"
    fill="#838181" />
</svg>