<svg width="19" height="20" viewBox="0 0 19 20" fill="none" xmlns="http://www.w3.org/2000/svg">
<path d="M10.3636 8.27273H0.863636C0.634586 8.27273 0.414917 8.36372 0.252953 8.52568C0.0909902 8.68764 0 8.90731 0 9.13636V18.6364C0 18.8654 0.0909902 19.0851 0.252953 19.247C0.414917 19.409 0.634586 19.5 0.863636 19.5H10.3636C10.5927 19.5 10.8124 19.409 10.9743 19.247C11.1363 19.0851 11.2273 18.8654 11.2273 18.6364V9.13636C11.2273 8.90731 11.1363 8.68764 10.9743 8.52568C10.8124 8.36372 10.5927 8.27273 10.3636 8.27273ZM9.5 17.7727H1.72727V10H9.5V17.7727ZM19 16.0455V17.7727C19 18.2308 18.818 18.6702 18.4941 18.9941C18.1702 19.318 17.7308 19.5 17.2727 19.5H14.6818C14.4528 19.5 14.2331 19.409 14.0711 19.247C13.9092 19.0851 13.8182 18.8654 13.8182 18.6364C13.8182 18.4073 13.9092 18.1876 14.0711 18.0257C14.2331 17.8637 14.4528 17.7727 14.6818 17.7727H17.2727V16.0455C17.2727 15.8164 17.3637 15.5967 17.5257 15.4348C17.6876 15.2728 17.9073 15.1818 18.1364 15.1818C18.3654 15.1818 18.5851 15.2728 18.747 15.4348C18.909 15.5967 19 15.8164 19 16.0455ZM19 8.27273V11.7273C19 11.9563 18.909 12.176 18.747 12.338C18.5851 12.4999 18.3654 12.5909 18.1364 12.5909C17.9073 12.5909 17.6876 12.4999 17.5257 12.338C17.3637 12.176 17.2727 11.9563 17.2727 11.7273V8.27273C17.2727 8.04368 17.3637 7.82401 17.5257 7.66204C17.6876 7.50008 17.9073 7.40909 18.1364 7.40909C18.3654 7.40909 18.5851 7.50008 18.747 7.66204C18.909 7.82401 19 8.04368 19 8.27273ZM19 2.22727V3.95455C19 4.1836 18.909 4.40327 18.747 4.56523C18.5851 4.72719 18.3654 4.81818 18.1364 4.81818C17.9073 4.81818 17.6876 4.72719 17.5257 4.56523C17.3637 4.40327 17.2727 4.1836 17.2727 3.95455V2.22727H15.5455C15.3164 2.22727 15.0967 2.13628 14.9348 1.97432C14.7728 1.81236 14.6818 1.59269 14.6818 1.36364C14.6818 1.13459 14.7728 0.914917 14.9348 0.752953C15.0967 0.59099 15.3164 0.5 15.5455 0.5H17.2727C17.7308 0.5 18.1702 0.68198 18.4941 1.00591C18.818 1.32983 19 1.76917 19 2.22727ZM12.0909 1.36364C12.0909 1.59269 11.9999 1.81236 11.838 1.97432C11.676 2.13628 11.4563 2.22727 11.2273 2.22727H7.77273C7.54368 2.22727 7.32401 2.13628 7.16204 1.97432C7.00008 1.81236 6.90909 1.59269 6.90909 1.36364C6.90909 1.13459 7.00008 0.914917 7.16204 0.752953C7.32401 0.59099 7.54368 0.5 7.77273 0.5H11.2273C11.4563 0.5 11.676 0.59099 11.838 0.752953C11.9999 0.914917 12.0909 1.13459 12.0909 1.36364ZM0 4.81818V2.22727C0 1.76917 0.18198 1.32983 0.505906 1.00591C0.829833 0.68198 1.26917 0.5 1.72727 0.5H3.45455C3.6836 0.5 3.90327 0.59099 4.06523 0.752953C4.22719 0.914917 4.31818 1.13459 4.31818 1.36364C4.31818 1.59269 4.22719 1.81236 4.06523 1.97432C3.90327 2.13628 3.6836 2.22727 3.45455 2.22727H1.72727V4.81818C1.72727 5.04723 1.63628 5.2669 1.47432 5.42886C1.31236 5.59083 1.09269 5.68182 0.863636 5.68182C0.634586 5.68182 0.414917 5.59083 0.252953 5.42886C0.0909902 5.2669 0 5.04723 0 4.81818Z" fill="#838181"/>
</svg>
