<svg width="101" height="100" viewBox="0 0 101 100" fill="none" xmlns="http://www.w3.org/2000/svg">
<path d="M49.9736 1C77.0211 1 98.948 22.9262 98.9482 49.9736C98.9482 77.0213 77.0213 98.9482 49.9736 98.9482C22.9262 98.948 1 77.0211 1 49.9736C1.00025 22.9264 22.9264 1.00025 49.9736 1Z" fill="white" stroke="#F7AF1A" stroke-width="2"/>
<mask id="mask0_1751_144" style="mask-type:luminance" maskUnits="userSpaceOnUse" x="0" y="0" width="101" height="100">
<path d="M50.0717 99.9482C77.6716 99.9482 100.046 77.574 100.046 49.9741C100.046 22.3742 77.6716 0 50.0717 0C22.4718 0 0.0975952 22.3742 0.0975952 49.9741C0.0975952 77.574 22.4718 99.9482 50.0717 99.9482Z" fill="white"/>
</mask>
<g mask="url(#mask0_1751_144)">
<path d="M38.4903 33.3534C37.0241 31.0073 35.3826 29.493 34.2648 28.6077C32.8724 27.5057 31.2861 26.2493 28.8364 25.7474C26.5017 25.2692 24.5346 25.7123 23.473 26.0396C22.7351 26.3774 21.376 27.1319 20.4179 28.6401C19.2686 30.4475 19.3563 32.2918 19.4432 33.6781C19.7169 38.0957 22.3491 41.5455 23.6204 42.995C23.0246 43.0546 22.0858 43.2292 21.1014 43.7873C20.8382 43.9364 18.3464 45.4051 17.9156 48.3707C17.5884 50.6291 18.6597 52.34 19.0861 53.0191C19.6502 53.9201 20.2618 54.4738 20.7434 54.9046C22.3824 56.368 24.0477 56.9585 25.2365 57.3954C27.6572 58.2842 29.7972 58.4299 31.1773 58.415C34.1025 56.9199 37.0285 55.4248 39.9537 53.9289L37.4181 44.9577L38.4903 33.3534Z" fill="#0B0C14"/>
<path d="M37.7594 50.3211L37.2716 35.1091C36.5828 33.9606 35.308 32.1049 33.3383 30.4931C33.0759 30.2782 32.0942 29.4912 30.6728 28.705C29.9112 28.2839 29.4041 28.004 28.6899 27.7952C28.0161 27.5978 26.8957 27.3881 25.4234 27.6487C24.0889 27.8285 23.3072 28.376 22.9132 28.7226C21.0549 30.3536 20.7224 33.6938 22.2543 36.9612C22.6842 37.9816 23.3835 39.4152 24.4969 40.9594C26.4947 43.7311 28.6864 45.2797 30.5429 46.5668C32.1766 47.6986 34.5842 49.1437 37.7594 50.3211Z" fill="#FFFFFD"/>
<path d="M33.4523 56.2047C33.4523 56.2047 36.6381 53.4419 38.8482 52.9865C36.41 52.0398 33.7085 50.6404 30.6079 48.8259C28.5083 47.4809 26.6333 46.1289 25.1304 44.8277C22.7509 44.7707 20.7382 45.9938 20.1179 47.7705C19.7169 48.9207 19.8521 50.2982 20.0916 50.7922C20.9207 52.4987 21.6682 53.2129 23.3423 54.3675C27.4546 56.8382 32.1415 56.3916 33.4523 56.2047Z" fill="#FFFFFD"/>
<path d="M27.3799 36.2681L37.1101 45.1744L37.8901 50.5053L27.3799 36.2681Z" fill="#CFE2E9"/>
<path d="M38.8483 52.9866L25.9499 52.0223L36.7417 55.273L38.8483 52.9866Z" fill="#CFE2E9"/>
<path d="M40.2469 52.5637C38.7878 52.9559 36.2706 53.8333 33.7455 55.8793C31.137 57.993 29.742 60.3636 29.0646 61.7306C28.6882 62.7484 28.2487 64.2934 28.1873 66.2167C28.1267 68.0811 28.4426 69.6104 28.74 70.6369C28.4584 71.0528 28.1206 71.4906 27.7328 71.946C27.1151 72.6689 26.2702 73.5314 25.3603 74.0824C25.3603 74.0824 24.2548 75.123 25.8157 75.3177C25.8157 75.3177 28.4163 75.903 30.7562 74.9931C31.8661 76.3724 34.4105 79.1528 38.6711 80.8444C43.5678 82.7878 47.8845 82.1648 49.6094 81.8191C51.2598 81.4998 53.3786 80.883 55.6125 79.6485C56.882 78.9247 57.8998 78.1903 58.6649 77.577C60.1301 76.4039 61.0961 75.3388 61.6857 74.6843C62.1463 74.1719 62.6806 73.5744 63.2983 72.7014C63.4001 72.5575 64.1388 71.5038 64.7091 70.3614C65.8471 68.0802 66.1094 65.8517 66.2691 64.3645C66.4288 62.8896 66.5148 60.7664 66.1226 58.2211C57.4962 56.3347 48.8715 54.4492 40.2469 52.5637Z" fill="#0C1119"/>
<path d="M67.0306 24.8691C65.2031 23.9356 61.1838 22.1913 55.8493 22.3984C50.9614 22.5879 47.3483 24.3216 45.5778 25.3236C43.988 26.2597 40.2556 28.7471 37.8419 33.5797C35.8994 37.4674 35.7239 41.0419 35.7616 42.8765C35.8906 44.7242 36.4118 48.5716 39.0123 52.4978C41.0961 55.6441 43.6116 57.4787 45.1233 58.414C47.0965 59.4871 51.8519 61.7253 58.1901 61.3392C63.3825 61.0242 67.2052 59.0949 69.1118 57.9587C70.5217 57.1594 74.4217 54.7027 76.6125 49.7209C79.5447 43.0563 77.1881 36.9454 76.7178 35.7907C76.1001 34.2325 74.9902 31.968 73.0126 29.6798C70.856 27.1863 68.5608 25.6991 67.0306 24.8691Z" fill="#0C1119"/>
<path d="M43.6922 54.5142C45.4084 55.7416 48.4582 57.5832 52.6766 58.4685C58.0321 59.5924 62.4278 58.5747 64.5607 57.9263C65.6355 57.6069 70.7305 55.9653 73.7925 50.6124C76.8994 45.1832 75.6587 39.8786 75.385 38.8134C74.9902 37.0736 73.7803 32.8437 69.9505 29.2859C64.3888 24.1217 57.5408 24.3138 56.1747 24.3805C54.5112 24.4366 48.9249 24.8332 44.0827 29.1587C40.6802 32.198 39.2772 35.7189 38.7192 37.4473C38.2963 38.716 36.7767 43.7645 39.272 49.0516C40.5872 51.8399 42.4963 53.5885 43.6922 54.5142Z" fill="#FFD134"/>
<path d="M40.3767 54.758C40.3767 54.758 33.1602 56.8058 31.3563 62.5588C31.3563 62.5588 30.2228 65.3015 30.9256 68.6575C30.9721 68.8803 31.0194 69.5936 30.851 69.9963C30.5097 70.8114 29.7727 72.2249 28.4268 73.3313C28.3311 73.4094 28.0714 73.7191 28.0846 73.877C28.0969 74.0349 28.182 74.1937 28.475 74.1937C28.475 74.1937 31.5046 73.3585 32.3337 72.5293C33.0962 73.748 34.8931 75.4572 37.355 77.1356C40.2556 79.1141 43.0843 79.6774 44.5715 79.866C46.2087 80.0494 50.571 80.317 55.1518 77.8182C58.6912 75.8888 60.6846 73.2216 61.5874 71.8213C62.1875 70.8658 62.8614 69.5936 63.3913 68.0179C64.0844 65.9578 64.281 64.1267 64.3178 62.8009C63.2667 63.4835 61.476 64.4548 59.0711 64.8707C55.6458 65.4629 52.9636 64.5855 51.4457 64.0688C50.0384 63.5897 46.4613 62.3175 43.6932 58.7702C42.4991 57.2401 41.8288 55.7635 41.4506 54.7562C41.0918 54.758 40.7347 54.758 40.3767 54.758Z" fill="#FBD126"/>
<path d="M49.4225 27.5513C49.4225 27.5513 49.8867 28.1848 50.6412 27.7952C50.7561 27.7215 50.9263 27.5917 51.0518 27.3784C51.2255 27.0836 51.2176 26.7959 51.2027 26.3817C51.1931 26.1203 51.1562 25.7492 51.0316 25.3087C50.5666 23.3732 49.9665 21.8273 49.4717 20.7253C48.439 18.4248 47.5581 16.5252 45.5708 15.1179C44.5776 14.4151 43.6116 14.0493 42.9378 13.8501C42.8465 13.822 40.7575 13.2166 39.33 14.5818C38.6097 15.2706 38.414 16.1208 38.3552 16.4831C38.4737 17.3842 38.8992 17.7939 39.0589 17.9273C39.9731 18.6976 41.756 18.5169 43.2317 17.214C44.9321 18.3037 45.9902 19.5189 46.5956 20.3348C47.9424 22.151 48.4837 23.933 48.8601 25.1692C49.1523 26.1317 49.3216 26.9573 49.4225 27.5513Z" fill="#0C1119"/>
<path d="M32.8022 59.7793C32.8022 59.7793 31.0948 65.9333 31.7774 70.0289L30.0955 72.833L32.6794 71.6626C32.6794 71.6626 39.9002 81.3252 53.5497 78.5904C53.5497 78.5904 46.9368 81.7481 39.9538 78.5816C39.9538 78.5816 34.6228 76.1293 32.3346 72.5303C32.3346 72.5303 31.6967 73.2454 29.2383 73.9648L28.4767 74.1947C28.4767 74.1947 27.8476 74.1613 28.2153 73.577L28.6496 73.1418C28.6496 73.1418 29.8814 71.9144 30.3131 71.0782C30.3131 71.0782 31.0545 70.0508 30.9483 68.8005C30.7904 67.9056 30.6807 66.8264 30.7255 65.6095C30.8746 64.3004 31.1369 63.2704 31.358 62.558C31.358 62.558 31.8055 61.1156 32.3276 60.418C32.3337 60.4093 32.4829 60.2118 32.6811 59.9425C32.7329 59.8723 32.7759 59.8135 32.8022 59.7793Z" fill="#F7AF1A"/>
<path d="M35.3457 64.2925C35.3457 64.2925 31.3835 65.5841 27.4905 66.3386C27.4905 66.3386 25.0611 68.1004 23.0212 68.8356C23.0212 68.8356 21.1918 70.4693 21.8104 67.3792C21.8104 67.3792 18.822 68.2644 17.5726 67.0984C17.3656 66.9054 17.7542 66.5711 17.8534 66.307C18.0464 65.7937 17.4542 65.584 19.0993 64.4663C19.0993 64.4663 22.4509 62.0965 25.9165 61.6078C25.9165 61.6078 29.5059 60.9304 34.9518 59.6345L35.3457 64.2925Z" fill="#0C1119"/>
<path d="M34.8333 78.2586L33.6629 79.429C33.3497 79.4238 32.8311 79.4562 32.274 79.7098C31.1773 80.2082 30.7017 81.2084 30.4701 81.6971C30.3008 82.0524 30.0744 82.6411 30.0077 83.4273C29.9674 83.7001 29.9735 84.1055 30.063 84.5854C30.1788 85.2075 30.4719 85.9138 31.1782 86.2551C31.1782 86.2551 33.2751 86.9868 34.8351 83.6712C34.8351 83.6712 37.7603 82.7447 39.272 80.746L37.6146 77.8208L34.8333 78.2586Z" fill="#0C1119"/>
<path d="M43.8538 81.6234C43.8538 81.6234 41.3918 82.7693 41.1725 85.2312C41.1725 85.2312 40.7338 89.0583 43.8538 88.2055C43.8538 88.2055 45.2681 87.3281 45.6094 85.5725C45.6094 85.5725 48.7303 83.9634 49.9244 81.8428L49.0953 80.8188H46.1446L43.8538 81.6234Z" fill="#0C1119"/>
<path d="M42.2297 82.8763C42.2297 82.8763 41.8059 83.351 41.5418 83.8959C41.3523 84.288 41.2155 84.732 41.1716 85.2304C41.1716 85.2304 40.7329 89.0575 43.8529 88.2047C43.8529 88.2047 45.2672 87.3273 45.6085 85.5717C44.9864 85.5655 44.1503 85.4471 43.5221 84.8724C42.664 84.0898 42.2297 82.8763 42.2297 82.8763Z" fill="#FBD126"/>
<path d="M33.6638 79.4291C33.3506 79.4238 32.832 79.4563 32.2749 79.7098C31.1782 80.2082 30.7026 81.2084 30.471 81.6971C30.3017 82.0525 30.0753 82.6412 30.0069 83.4273C29.9665 83.7002 29.9727 84.1055 30.0622 84.5855C30.178 85.2075 30.471 85.9138 31.1773 86.2551C31.1773 86.2551 33.2742 86.9869 34.8342 83.6712C34.6868 83.6212 33.6041 83.2334 33.1786 82.0858C32.847 81.1944 33.0347 80.1793 33.6638 79.4291Z" fill="#FBD126"/>
<path d="M63.6247 27.3863C63.6247 27.3863 63.186 27.9864 62.4709 27.617C62.3621 27.5477 62.2007 27.424 62.0831 27.2222C61.9199 26.9441 61.9261 26.6703 61.941 26.2799C61.9506 26.0325 61.9857 25.6807 62.1024 25.2648C62.542 23.4337 63.1097 21.9711 63.5791 20.9279C64.5565 18.7511 65.39 16.9533 67.2693 15.6224C68.209 14.9564 69.1224 14.6116 69.7602 14.423C69.8462 14.3967 71.8229 13.8228 73.1741 15.1152C73.8558 15.7671 74.0401 16.5717 74.0971 16.9147C73.9857 17.7676 73.5821 18.1554 73.4321 18.2817C72.5661 19.0108 70.8789 18.8397 69.4838 17.607C67.8747 18.6388 66.8728 19.7882 66.3007 20.5594C65.025 22.2782 64.5126 23.9636 64.1573 25.1349C63.8809 26.0439 63.7212 26.8248 63.6247 27.3863Z" fill="#0C1119"/>
<path d="M53.2584 35.303C53.2584 35.303 53.9804 35.4978 54.0182 34.7336C54.0182 34.7336 53.5049 32.8104 50.6166 33.0736C50.6166 33.0736 49.154 33.4193 48.553 34.7722C48.553 34.7722 48.4687 35.4565 49.3321 35.2521C49.333 35.2521 51.2483 34.0194 53.2584 35.303Z" fill="#090E10"/>
<path d="M66.8253 35.303C66.8253 35.303 67.5474 35.4978 67.5851 34.7336C67.5851 34.7336 67.0719 32.8104 64.1835 33.0736C64.1835 33.0736 62.7209 33.4193 62.1199 34.7722C62.1199 34.7722 62.0357 35.4565 62.899 35.2521C62.899 35.2521 64.8152 34.0194 66.8253 35.303Z" fill="#090E10"/>
<path d="M54.3411 42.1132C54.4051 39.9136 53.0478 38.0895 51.3089 38.0395C49.5708 37.9887 48.1099 39.7311 48.0459 41.9307C47.9818 44.1303 49.3391 45.9544 51.0781 46.0044C52.8171 46.0544 54.277 44.3119 54.3411 42.1132Z" fill="#0C1119"/>
<path d="M52.3485 41.7254C52.8662 41.6807 53.2443 41.1569 53.1926 40.5568C53.1408 39.9566 52.6784 39.5065 52.1599 39.5513C51.6414 39.596 51.2641 40.1198 51.3158 40.72C51.3685 41.3201 51.8309 41.7702 52.3485 41.7254Z" fill="white"/>
<path d="M67.68 42.1132C67.744 39.9136 66.3867 38.0895 64.6477 38.0395C62.9096 37.9887 61.4488 39.7311 61.3847 41.9307C61.3207 44.1303 62.678 45.9544 64.417 46.0044C66.1559 46.0544 67.6168 44.3119 67.68 42.1132Z" fill="#0C1119"/>
<path d="M65.6882 41.7254C66.2059 41.6807 66.584 41.1569 66.5323 40.5568C66.4805 39.9566 66.0181 39.5065 65.4996 39.5513C64.9819 39.596 64.6038 40.1198 64.6556 40.72C64.7073 41.3201 65.1697 41.7702 65.6882 41.7254Z" fill="white"/>
<path d="M54.3016 47.1582C54.3016 47.1582 52.7679 46.9388 52.2283 48.1145C52.181 48.2707 52.123 48.4935 52.0836 48.7646C51.9055 49.9693 52.2599 50.9318 52.4547 51.4424C53.0241 52.9322 54.0392 53.8579 54.5771 54.2851C54.9833 54.5861 55.9204 55.1906 57.2496 55.2976C59.2176 55.4564 60.6144 54.4106 60.9478 54.1439C61.4566 53.7262 62.3595 52.869 62.9578 51.4854C63.644 49.728 63.5562 49.07 63.4957 48.2242C63.4839 48.0604 63.2904 47.524 63.1544 47.3503C62.9885 47.1406 62.7455 46.9458 62.434 47.0081C62.434 47.0081 61.9848 46.9976 61.3821 47.2161C60.5301 47.5679 59.143 47.5749 57.3926 47.5907C56.1186 47.6021 55.0579 47.3801 54.3016 47.1582Z" fill="#0C1119"/>
<path d="M53.9393 51.9006C53.9393 51.9006 55.4004 50.253 57.967 50.567C57.967 50.567 59.7179 50.885 60.7269 52.084C60.7269 52.084 61.05 52.4396 60.7568 52.8442C60.7568 52.8442 59.8292 54.1278 57.5833 54.2202C57.5833 54.2202 55.7796 54.2005 54.4562 52.8421C54.4562 52.8421 54.0413 52.5165 53.9393 51.9006Z" fill="#F58663"/>
<path d="M45.8252 49.0534C47.2343 49.0534 48.3767 48.1585 48.3767 47.0547C48.3767 45.951 47.2343 45.056 45.8252 45.056C44.4162 45.056 43.2738 45.951 43.2738 47.0547C43.2738 48.1585 44.4162 49.0534 45.8252 49.0534Z" fill="#FAA537"/>
<path d="M69.4593 49.0534C70.8683 49.0534 72.0107 48.1585 72.0107 47.0547C72.0107 45.951 70.8683 45.056 69.4593 45.056C68.0502 45.056 66.9078 45.951 66.9078 47.0547C66.9078 48.1585 68.0502 49.0534 69.4593 49.0534Z" fill="#FAA537"/>
<path d="M38.9413 55.2327C38.9457 55.4117 38.9553 55.6661 38.9773 55.9697C39.0939 57.5735 39.5642 60.5031 41.4673 63.4195C43.2922 66.2157 45.5804 67.5941 46.6035 68.2951C47.6844 69.0365 51.1571 71.2133 55.9651 70.8957C59.6256 70.6544 62.2296 69.0874 63.3764 68.2951C63.0026 69.3594 62.4674 70.6605 61.5409 72.0661C60.2406 74.0402 58.1752 76.1942 55.5747 76.9417C54.0305 77.2927 49.6989 78.0639 44.8478 76.0319C40.7969 74.335 38.4684 71.5564 37.5015 70.2455C36.7066 69.1909 35.6432 67.5125 34.9659 65.2401C34.0113 62.0394 34.3078 59.2932 34.5754 57.8288C35.1896 57.3445 35.9205 56.8286 36.7706 56.3294C37.5436 55.8775 38.2771 55.5187 38.9413 55.2327Z" fill="#0C101A"/>
<path d="M65.3908 60.983C65.3908 60.983 68.7898 60.181 72.5213 58.8395C72.5213 58.8395 74.0927 54.7904 75.9949 53.7516C75.9949 53.7516 78.584 52.6733 78.4454 55.8213C78.4454 55.8213 81.1293 54.5167 82.0672 56.0091C82.0672 56.0091 82.8621 57.0312 81.3899 59.0861C81.3899 59.0861 78.1734 63.144 74.8007 63.2729C74.8007 63.2729 70.9411 64.8838 65.3882 65.9568V60.9838H65.3908V60.983Z" fill="#0C1119"/>
<path d="M27.4906 66.3386C27.4906 66.3386 24.5127 69.6963 22.4728 70.4324C22.4728 70.4324 20.5549 71.5037 21.1734 68.4136C21.1734 68.4136 17.0594 68.7812 15.81 67.6152C15.6029 67.4221 15.5362 67.1229 15.6354 66.8589C15.8284 66.3456 16.3934 65.3612 18.0385 64.2443C18.0385 64.2443 22.5632 61.219 25.9157 61.6077C25.9262 62.2842 26.0244 63.287 26.45 64.411C26.7606 65.2339 27.1545 65.8771 27.4906 66.3386Z" fill="#FBD126"/>
<path d="M72.5214 58.8388C72.5214 58.8388 74.0928 54.7897 75.9949 53.7509C75.9949 53.7509 78.5841 52.6726 78.4454 55.8206C78.4454 55.8206 81.1294 54.5159 82.0673 56.0084C82.0673 56.0084 82.8622 57.0305 81.3899 59.0853C81.3899 59.0853 78.1735 63.1432 74.8008 63.2722C74.6973 62.673 74.4832 61.8272 74.0103 60.9015C73.5286 59.9557 72.9539 59.2766 72.5214 58.8388Z" fill="#FBD126"/>
<path d="M67.8457 56.5067C66.0515 56.9638 61.1908 58.472 55.6405 57.5367C50.4666 56.6646 46.9246 54.229 45.304 52.9533C43.9301 51.66 42.2236 49.6543 41.1391 46.8292C37.9068 38.4089 43.1536 30.373 43.8414 29.3544C42.6324 30.4327 40.732 32.4164 39.4045 35.4495C37.4734 39.8601 37.7796 43.4232 38.0613 45.1042C38.242 46.2817 38.8035 48.576 39.988 50.5159C41.5111 53.0112 43.3738 54.3264 44.8846 55.3117C48.2178 57.4841 51.6563 58.3975 54.0796 58.7168C57.34 59.2661 62.4595 58.9704 66.1348 57.356C66.6683 57.1209 67.3754 56.791 67.8457 56.5067Z" fill="#F7AF1A"/>
</g>
<path d="M89.1003 73.094C85.0135 75.6786 81.1396 76.3823 77.6648 77.0412C74.2369 77.6912 71.3175 77.8083 69.2824 77.7908C69.38 76.8596 69.4542 75.1496 68.5289 73.4483C67.5187 71.5909 65.3606 69.5441 60.7439 69.0014C58.3594 68.7213 55.8177 68.6022 53.2097 68.8755C52.2532 68.976 50.6934 69.1166 48.5276 69.3752C44.2651 69.8837 40.6713 70.3796 36.0702 71.3244C33.0083 71.954 32.2977 72.2233 30.043 72.4966C28.7253 72.6567 26.6844 72.8412 24.0442 72.7973C17.9916 72.6967 12.7766 72.6108 7.87287 69.5167C6.52201 68.6646 4.34247 67.8926 2.34253 65.1518C3.50599 69.1224 5.79777 73.9041 10.068 79.5223C10.9065 80.6252 14.6506 85.446 21.1316 89.9807C25.0934 92.7527 28.576 94.3671 30.3973 95.1441C38.3395 98.5349 45.25 99.059 47.9829 99.1752C58.7371 99.632 67.059 96.4208 71.1077 94.537C74.9563 92.7459 85.5523 87.5836 92.4696 75.6591C95.8146 69.8935 97.1039 66.9468 97.8497 64.371C96.8951 66.1942 95.226 68.0478 92.4325 70.567C91.7474 71.1848 90.6151 72.1355 89.1003 73.094Z" fill="url(#paint0_linear_1751_144)"/>
<path d="M89.1004 73.8748C85.0136 76.4594 81.1396 77.1632 77.6649 77.822C74.237 78.472 71.3176 78.5892 69.2825 78.5716C69.3801 77.6404 69.4543 75.9304 68.529 74.2291C67.5188 72.3717 65.3607 70.3249 60.744 69.7822C58.3595 69.5021 55.8178 69.383 53.2098 69.6563C52.2532 69.7568 50.6935 69.8974 48.5276 70.156C44.2652 70.6646 40.6714 71.1604 36.0702 72.1052C33.0083 72.7348 32.2978 73.0042 30.0431 73.2775C28.7254 73.4376 26.6845 73.622 24.0442 73.5781C17.9917 73.4776 12.7766 73.3917 7.87293 70.2976C6.52207 69.4455 4.34741 67.8916 2.34747 65.1508C3.51093 69.1214 5.79783 74.6849 10.0681 80.3031C10.9065 81.4061 14.6507 86.2268 21.1317 90.7616C25.0935 93.5336 28.5761 95.148 30.3974 95.9249C38.3396 99.3157 45.25 99.8399 47.983 99.956C58.7372 100.413 67.0591 97.2016 71.1077 95.3178C74.9563 93.5267 85.5524 88.3644 92.4697 76.4399C95.8147 70.6743 97.105 66.9194 97.8507 64.3436C96.8961 66.1669 95.2261 68.8286 92.4326 71.3478C91.7474 71.9657 90.6152 72.9163 89.1004 73.8748Z" fill="url(#paint1_linear_1751_144)"/>
<defs>
<linearGradient id="paint0_linear_1751_144" x1="50.1693" y1="65.2006" x2="50.2124" y2="100.94" gradientUnits="userSpaceOnUse">
<stop stop-color="#FFEB99"/>
<stop offset="1" stop-color="#F7AF1A"/>
</linearGradient>
<linearGradient id="paint1_linear_1751_144" x1="50.1497" y1="65.7585" x2="50.2125" y2="101.721" gradientUnits="userSpaceOnUse">
<stop stop-color="#FFD134"/>
<stop offset="1" stop-color="#F7AF1A"/>
</linearGradient>
</defs>
</svg>
