<svg width="19" height="13" viewBox="0 0 19 13" fill="none" xmlns="http://www.w3.org/2000/svg">
<path d="M-8.43966e-08 1.93077C0.000587393 1.61003 0.0836868 1.29497 0.241116 1.01658C0.592201 0.389705 1.27372 -7.7484e-07 2.01358 -7.425e-07L16.9863 -8.80202e-08C17.7283 -5.55896e-08 18.4077 0.389706 18.7588 1.01658C18.9207 1.3016 19.0039 1.62539 18.9999 1.9541C18.9958 2.28281 18.9045 2.60437 18.7356 2.88518L11.0757 12.1184C10.9085 12.3883 10.6763 12.6107 10.4008 12.7649C10.1254 12.9191 9.81577 13 9.50099 13C9.1862 13 8.87658 12.9191 8.60114 12.7649C8.32571 12.6107 8.09349 12.3883 7.92627 12.1184L0.264347 2.88309C0.0926398 2.59572 0.00127401 2.26657 -8.43966e-08 1.93077Z" fill="#667EEA"/>
</svg>
