<svg width="140" height="49" viewBox="0 0 140 49" fill="none" xmlns="http://www.w3.org/2000/svg">
<path opacity="0.4" fill-rule="evenodd" clip-rule="evenodd" d="M0 34.8985V25.92H2.752C2.88 27.168 3.312 28.128 4.048 28.8C4.784 29.44 5.744 29.76 6.928 29.76C8.144 29.76 9.104 29.488 9.808 28.944C10.512 28.368 10.864 27.584 10.864 26.592C10.864 25.76 10.576 25.072 10 24.528C9.456 23.984 8.768 23.536 7.936 23.184C7.136 22.832 5.984 22.432 4.48 21.984C2.79152 21.4626 1.34388 20.9412 0.13709 20.4197C0.470197 17.3035 1.39975 14.3656 2.80936 11.7224C2.88305 12.691 3.39193 13.4555 4.336 14.016C5.36 14.624 6.96 15.28 9.136 15.984C11.312 16.72 13.072 17.424 14.416 18.096C15.792 18.768 16.976 19.744 17.968 21.024C18.96 22.304 19.456 23.952 19.456 25.968C19.456 27.888 18.96 29.632 17.968 31.2C17.008 32.768 15.6 34.016 13.744 34.944C11.888 35.872 9.696 36.336 7.168 36.336C4.704 36.336 2.496 35.936 0.544 35.136C0.359226 35.0603 0.177893 34.9812 0 34.8985ZM11.4895 2.51462C8.89514 4.10239 6.62575 6.16917 4.80435 8.59192C5.19509 8.464 5.63097 8.40004 6.112 8.40004C7.264 8.40004 8.208 8.72004 8.944 9.36004C9.68 9.96804 10.08 10.816 10.144 11.904H19.024C18.864 8.73604 17.648 6.27204 15.376 4.51204C14.2556 3.62834 12.9601 2.96254 11.4895 2.51462ZM39.4352 36V29.04H36.5073C35.6113 29.04 34.9713 28.864 34.5872 28.512C34.2033 28.16 34.0112 27.584 34.0112 26.784V16.032H39.3872V9.21604H34.0112V2.68804H25.8032V9.21604H22.5392V16.032H25.8032V26.688C25.8032 29.984 26.6353 32.368 28.2992 33.84C29.9632 35.28 32.2832 36 35.2593 36H39.4352ZM69.1113 24.576C69.2073 23.744 69.2552 22.944 69.2552 22.176C69.2552 19.488 68.6793 17.136 67.5273 15.12C66.4072 13.104 64.8392 11.552 62.8232 10.464C60.8073 9.37604 58.5033 8.83204 55.9113 8.83204C53.2552 8.83204 50.9033 9.39204 48.8553 10.512C46.8073 11.632 45.2072 13.232 44.0552 15.312C42.9352 17.392 42.3753 19.824 42.3753 22.608C42.3753 25.392 42.9512 27.824 44.1032 29.904C45.2552 31.984 46.8553 33.584 48.9033 34.704C50.9513 35.824 53.2873 36.384 55.9113 36.384C58.0872 36.384 60.0553 35.984 61.8153 35.184C63.5753 34.384 65.0312 33.28 66.1833 31.872C67.3672 30.464 68.1833 28.88 68.6313 27.12H59.8952C59.0953 28.848 57.6712 29.712 55.6233 29.712C54.2472 29.712 53.0793 29.28 52.1193 28.416C51.1912 27.52 50.6632 26.24 50.5353 24.576H69.1113ZM59.4153 16.656C60.3753 17.488 60.8553 18.608 60.8553 20.016H50.5833C50.8073 18.544 51.3833 17.408 52.3112 16.608C53.2713 15.808 54.4393 15.408 55.8153 15.408C57.2552 15.408 58.4552 15.824 59.4153 16.656ZM85.1054 9.98404C83.6974 10.752 82.5934 11.76 81.7934 13.008V9.21604H73.5854V48.768H81.7934V32.256C82.5934 33.472 83.6974 34.464 85.1054 35.232C86.5454 36 88.1934 36.384 90.0494 36.384C92.2574 36.384 94.2574 35.824 96.0494 34.704C97.8414 33.552 99.2494 31.936 100.273 29.856C101.329 27.744 101.857 25.312 101.857 22.56C101.857 19.808 101.329 17.392 100.273 15.312C99.2494 13.232 97.8414 11.632 96.0494 10.512C94.2574 9.39204 92.2574 8.83204 90.0494 8.83204C88.1614 8.83204 86.5134 9.21604 85.1054 9.98404ZM91.7774 17.76C92.9294 18.912 93.5054 20.512 93.5054 22.56C93.5054 24.608 92.9294 26.24 91.7774 27.456C90.6254 28.64 89.2334 29.232 87.6014 29.232C85.9694 29.232 84.5774 28.64 83.4254 27.456C82.3054 26.272 81.7454 24.656 81.7454 22.608C81.7454 20.56 82.3054 18.944 83.4254 17.76C84.5774 16.576 85.9694 15.984 87.6014 15.984C89.2654 15.984 90.6574 16.576 91.7774 17.76ZM119.167 2.92804C117.055 4.78404 115.935 7.42404 115.807 10.848H123.823C123.919 9.76004 124.255 8.84804 124.831 8.11204C125.439 7.37604 126.351 7.00804 127.567 7.00804C128.687 7.00804 129.567 7.32804 130.207 7.96804C130.847 8.60804 131.167 9.50404 131.167 10.656C131.167 12.096 130.655 13.104 129.631 13.68C128.639 14.224 127.327 14.496 125.695 14.496H124.159V21.168H125.695C127.839 21.168 129.391 21.52 130.351 22.224C131.343 22.896 131.839 24 131.839 25.536C131.839 26.72 131.487 27.68 130.783 28.416C130.111 29.12 129.151 29.472 127.903 29.472C126.431 29.472 125.311 29.072 124.543 28.272C123.775 27.44 123.375 26.32 123.343 24.912H115.375C115.503 28.72 116.703 31.568 118.975 33.456C121.279 35.344 124.351 36.288 128.191 36.288C130.591 36.288 132.655 35.856 134.383 34.992C136.143 34.128 137.471 32.944 138.367 31.44C139.295 29.904 139.759 28.144 139.759 26.16C139.759 23.952 139.231 22.144 138.175 20.736C137.119 19.328 135.679 18.32 133.855 17.712V17.52C135.263 17.04 136.495 16.144 137.551 14.832C138.607 13.488 139.135 11.76 139.135 9.64804C139.135 7.85604 138.687 6.24004 137.791 4.80004C136.927 3.36004 135.631 2.22404 133.903 1.39204C132.207 0.560043 130.159 0.144043 127.759 0.144043C124.143 0.144043 121.279 1.07204 119.167 2.92804Z" fill="#8DB7FF"/>
</svg>