<svg width="160" height="56" viewBox="0 0 160 56" fill="none" xmlns="http://www.w3.org/2000/svg">
<path d="M23.9941 32.0801C23.9941 31.3184 23.877 30.6348 23.6426 30.0293C23.4277 29.4043 23.0176 28.8379 22.4121 28.3301C21.8066 27.8027 20.957 27.2852 19.8633 26.7773C18.7695 26.2695 17.3535 25.7422 15.6152 25.1953C13.6816 24.5703 11.8457 23.8672 10.1074 23.0859C8.38867 22.3047 6.86523 21.3965 5.53711 20.3613C4.22852 19.3066 3.19336 18.0859 2.43164 16.6992C1.68945 15.3125 1.31836 13.7012 1.31836 11.8652C1.31836 10.0879 1.70898 8.47656 2.49023 7.03125C3.27148 5.56641 4.36523 4.31641 5.77148 3.28125C7.17773 2.22656 8.83789 1.41602 10.752 0.849609C12.6855 0.283203 14.8047 0 17.1094 0C20.2539 0 22.998 0.566406 25.3418 1.69922C27.6855 2.83203 29.502 4.38477 30.791 6.35742C32.0996 8.33008 32.7539 10.5859 32.7539 13.125H24.0234C24.0234 11.875 23.7598 10.7812 23.2324 9.84375C22.7246 8.88672 21.9434 8.13477 20.8887 7.58789C19.8535 7.04102 18.5449 6.76758 16.9629 6.76758C15.4395 6.76758 14.1699 7.00195 13.1543 7.4707C12.1387 7.91992 11.377 8.53516 10.8691 9.31641C10.3613 10.0781 10.1074 10.9375 10.1074 11.8945C10.1074 12.6172 10.2832 13.2715 10.6348 13.8574C11.0059 14.4434 11.5527 14.9902 12.2754 15.498C12.998 16.0059 13.8867 16.4844 14.9414 16.9336C15.9961 17.3828 17.2168 17.8223 18.6035 18.252C20.9277 18.9551 22.9688 19.7461 24.7266 20.625C26.5039 21.5039 27.9883 22.4902 29.1797 23.584C30.3711 24.6777 31.2695 25.918 31.875 27.3047C32.4805 28.6914 32.7832 30.2637 32.7832 32.0215C32.7832 33.877 32.4219 35.5371 31.6992 37.002C30.9766 38.4668 29.9316 39.707 28.5645 40.7227C27.1973 41.7383 25.5664 42.5098 23.6719 43.0371C21.7773 43.5645 19.6582 43.8281 17.3145 43.8281C15.2051 43.8281 13.125 43.5547 11.0742 43.0078C9.02344 42.4414 7.1582 41.5918 5.47852 40.459C3.81836 39.3262 2.49023 37.8809 1.49414 36.123C0.498047 34.3652 0 32.2852 0 29.8828H8.81836C8.81836 31.2109 9.02344 32.334 9.43359 33.252C9.84375 34.1699 10.4199 34.9121 11.1621 35.4785C11.9238 36.0449 12.8223 36.4551 13.8574 36.709C14.9121 36.9629 16.0645 37.0898 17.3145 37.0898C18.8379 37.0898 20.0879 36.875 21.0645 36.4453C22.0605 36.0156 22.793 35.4199 23.2617 34.6582C23.75 33.8965 23.9941 33.0371 23.9941 32.0801ZM53.7598 11.543V17.5195H35.3027V11.543H53.7598ZM39.873 3.7207H48.3105V33.6914C48.3105 34.6094 48.4277 35.3125 48.6621 35.8008C48.916 36.2891 49.2871 36.6309 49.7754 36.8262C50.2637 37.002 50.8789 37.0898 51.6211 37.0898C52.1484 37.0898 52.6172 37.0703 53.0273 37.0312C53.457 36.9727 53.8184 36.9141 54.1113 36.8555L54.1406 43.0664C53.418 43.3008 52.6367 43.4863 51.7969 43.623C50.957 43.7598 50.0293 43.8281 49.0137 43.8281C47.1582 43.8281 45.5371 43.5254 44.1504 42.9199C42.7832 42.2949 41.7285 41.2988 40.9863 39.9316C40.2441 38.5645 39.873 36.7676 39.873 34.541V3.7207ZM73.1543 43.8281C70.6934 43.8281 68.4863 43.4375 66.5332 42.6562C64.5801 41.8555 62.9199 40.752 61.5527 39.3457C60.2051 37.9395 59.1699 36.3086 58.4473 34.4531C57.7246 32.5781 57.3633 30.5859 57.3633 28.4766V27.3047C57.3633 24.9023 57.7051 22.7051 58.3887 20.7129C59.0723 18.7207 60.0488 16.9922 61.3184 15.5273C62.6074 14.0625 64.1699 12.9395 66.0059 12.1582C67.8418 11.3574 69.9121 10.957 72.2168 10.957C74.4629 10.957 76.4551 11.3281 78.1934 12.0703C79.9316 12.8125 81.3867 13.8672 82.5586 15.2344C83.75 16.6016 84.6484 18.2422 85.2539 20.1562C85.8594 22.0508 86.1621 24.1602 86.1621 26.4844V30H60.9668V24.375H77.8711V23.7305C77.8711 22.5586 77.6562 21.5137 77.2266 20.5957C76.8164 19.6582 76.1914 18.916 75.3516 18.3691C74.5117 17.8223 73.4375 17.5488 72.1289 17.5488C71.0156 17.5488 70.0586 17.793 69.2578 18.2812C68.457 18.7695 67.8027 19.4531 67.2949 20.332C66.8066 21.2109 66.4355 22.2461 66.1816 23.4375C65.9473 24.6094 65.8301 25.8984 65.8301 27.3047V28.4766C65.8301 29.7461 66.0059 30.918 66.3574 31.9922C66.7285 33.0664 67.2461 33.9941 67.9102 34.7754C68.5938 35.5566 69.4141 36.1621 70.3711 36.5918C71.3477 37.0215 72.4512 37.2363 73.6816 37.2363C75.2051 37.2363 76.6211 36.9434 77.9297 36.3574C79.2578 35.752 80.4004 34.8438 81.3574 33.6328L85.459 38.0859C84.7949 39.043 83.8867 39.9609 82.7344 40.8398C81.6016 41.7188 80.2344 42.4414 78.6328 43.0078C77.0312 43.5547 75.2051 43.8281 73.1543 43.8281ZM99.4043 17.6367V55.4297H90.9668V11.543H98.7891L99.4043 17.6367ZM119.473 27.041V27.6562C119.473 29.9609 119.199 32.0996 118.652 34.0723C118.125 36.0449 117.344 37.7637 116.309 39.2285C115.273 40.6738 113.984 41.8066 112.441 42.627C110.918 43.4277 109.16 43.8281 107.168 43.8281C105.234 43.8281 103.555 43.4375 102.129 42.6562C100.703 41.875 99.502 40.7812 98.5254 39.375C97.5684 37.9492 96.7969 36.2988 96.2109 34.4238C95.625 32.5488 95.1758 30.5371 94.8633 28.3887V26.7773C95.1758 24.4727 95.625 22.3633 96.2109 20.4492C96.7969 18.5156 97.5684 16.8457 98.5254 15.4395C99.502 14.0137 100.693 12.9102 102.1 12.1289C103.525 11.3477 105.195 10.957 107.109 10.957C109.121 10.957 110.889 11.3379 112.412 12.0996C113.955 12.8613 115.244 13.9551 116.279 15.3809C117.334 16.8066 118.125 18.5059 118.652 20.4785C119.199 22.4512 119.473 24.6387 119.473 27.041ZM111.006 27.6562V27.041C111.006 25.6934 110.889 24.4531 110.654 23.3203C110.439 22.168 110.088 21.1621 109.6 20.3027C109.131 19.4434 108.506 18.7793 107.725 18.3105C106.963 17.8223 106.035 17.5781 104.941 17.5781C103.789 17.5781 102.803 17.7637 101.982 18.1348C101.182 18.5059 100.527 19.043 100.02 19.7461C99.5117 20.4492 99.1309 21.2891 98.877 22.2656C98.623 23.2422 98.4668 24.3457 98.4082 25.5762V29.6484C98.5059 31.0938 98.7793 32.3926 99.2285 33.5449C99.6777 34.6777 100.371 35.5762 101.309 36.2402C102.246 36.9043 103.477 37.2363 105 37.2363C106.113 37.2363 107.051 36.9922 107.812 36.5039C108.574 35.9961 109.189 35.3027 109.658 34.4238C110.146 33.5449 110.488 32.5293 110.684 31.377C110.898 30.2246 111.006 28.9844 111.006 27.6562ZM159.873 0.498047V43.2422H151.436V10.2246L141.299 13.4473V6.79688L158.965 0.498047H159.873Z" fill="#F7AF1A" fill-opacity="0.2"/>
</svg>
