<svg width="21" height="22" viewBox="0 0 21 22" fill="none" xmlns="http://www.w3.org/2000/svg">
<path fill-rule="evenodd" clip-rule="evenodd" d="M5.29339 0.505785L10.4711 0.5C15.5909 0.5 15.6545 0.5 15.9669 0.621488C16.1405 0.685124 16.3893 0.818182 16.5165 0.910744C16.6438 1.00331 16.8405 1.21736 16.9562 1.38512C17.0835 1.57025 17.1934 1.82479 17.2339 2.03306C17.2802 2.22397 17.2975 2.50744 17.2744 2.66942C17.257 2.8314 17.1645 3.11488 17.0719 3.30579C16.9215 3.60083 16.5165 4.03471 14.3066 6.23306C12.224 8.30992 11.657 8.83636 11.4256 8.9405C11.2636 9.0157 10.9917 9.09669 10.8182 9.1314C10.5926 9.1719 10.4017 9.16612 10.1529 9.11983C9.96198 9.07934 9.67273 8.98678 9.51653 8.90579C9.30248 8.79587 8.60248 8.14215 6.78017 6.31983C5.43223 4.98347 4.2405 3.76859 4.13636 3.62397C4.02645 3.47934 3.89917 3.24793 3.84711 3.10331C3.78926 2.95868 3.74876 2.66364 3.74297 2.43802C3.74297 2.11405 3.7719 1.96364 3.89917 1.68595C3.98595 1.49504 4.15372 1.2405 4.26942 1.11322C4.38512 0.991736 4.66281 0.800826 4.88843 0.696694L5.29339 0.505785ZM5.17769 1.96942C5.0157 2.13719 4.98678 2.2124 4.98099 2.44959L4.97521 2.72727C8.85124 6.61488 10.0488 7.77769 10.1413 7.82397C10.2281 7.87025 10.3901 7.90496 10.5 7.90496C10.6099 7.90496 10.7893 7.87025 10.8876 7.81818C10.9917 7.7719 12.1893 6.62066 13.543 5.26116C15.5157 3.28264 16.019 2.75041 16.0479 2.6C16.0653 2.49008 16.0479 2.33388 16.0074 2.22397C15.9612 2.11983 15.8512 1.97521 15.7587 1.9L15.5909 1.77273H5.3686L5.17769 1.96942ZM1.31322 10.4099C2.1 10.4215 2.1405 10.4273 2.27934 10.5661C2.36612 10.6471 2.44711 10.8033 2.47025 10.9132C2.49339 11.0463 2.47025 11.1793 2.40661 11.2893C2.36033 11.3876 2.25041 11.4975 2.16942 11.538C2.07107 11.5843 1.74711 11.6074 0.376033 11.6074L0.185124 11.405C0.0809917 11.2893 0 11.1446 0 11.0579C0 10.9826 0.0404959 10.838 0.0867769 10.7397C0.133058 10.6471 0.242975 10.5314 0.329752 10.4793C0.457025 10.4157 0.671074 10.3983 1.31322 10.4099ZM20.6645 10.4215L20.8322 10.6124C20.9364 10.7281 21 10.8612 21 10.9711C21 11.0694 20.9537 11.2256 20.8959 11.3182C20.8438 11.4165 20.7397 11.5207 20.6645 11.5496C20.595 11.5843 20.1785 11.6074 19.7388 11.6074C19.0736 11.6074 18.9231 11.5959 18.8074 11.5091C18.7264 11.4512 18.6281 11.324 18.5876 11.2198C18.5355 11.081 18.5298 10.9769 18.5702 10.8264C18.605 10.6992 18.6975 10.5835 18.8132 10.5083C18.9868 10.4041 19.0851 10.3926 20.6645 10.4215ZM10.6446 12.9091C10.9744 12.9322 11.1711 12.9785 11.4545 13.1174C11.7959 13.2736 12.0793 13.5397 14.3876 15.8479C16.6264 18.0868 16.962 18.4512 17.1066 18.7521C17.2397 19.0413 17.2686 19.1802 17.2686 19.562C17.2686 19.938 17.2397 20.0884 17.1182 20.343C17.0372 20.5223 16.8926 20.7537 16.7942 20.8636C16.7017 20.9793 16.4355 21.1645 15.7934 21.5H5.26446L4.9 21.338C4.69174 21.2455 4.43719 21.0719 4.29256 20.9215C4.15372 20.7769 3.99174 20.557 3.93388 20.4298C3.87025 20.3025 3.79504 20.0595 3.76033 19.8802C3.71983 19.6661 3.71983 19.4694 3.76033 19.2612C3.78926 19.0934 3.88182 18.8331 3.95702 18.6826C4.06116 18.486 4.83058 17.676 6.69339 15.8248C8.41736 14.1066 9.36612 13.1983 9.5281 13.1174C9.66694 13.0537 9.87521 12.9727 9.99091 12.9438C10.1124 12.9091 10.4074 12.8975 10.6446 12.9091ZM7.48017 16.7678L4.97521 19.2727C4.96942 19.7182 5.00992 19.8455 5.10248 19.9669C5.17769 20.0595 5.32231 20.1694 5.42066 20.2099C5.57686 20.2736 6.58347 20.2851 10.5405 20.2851C15.1223 20.2851 15.4926 20.2793 15.6777 20.1868C15.7934 20.1289 15.9264 19.9959 15.9843 19.8802C16.0537 19.7471 16.0769 19.614 16.0537 19.4752C16.0248 19.3074 15.6488 18.9025 13.5198 16.7678C12.0793 15.3215 10.9397 14.2223 10.8298 14.176C10.7314 14.1355 10.5752 14.1008 10.4826 14.1008C10.3959 14.1008 10.2455 14.1355 10.1529 14.1818C10.0545 14.2223 8.85124 15.3851 7.48017 16.7678ZM5.0157 10.4041C5.79669 10.4215 5.84298 10.4273 5.98182 10.5661C6.06859 10.6471 6.14959 10.8033 6.17273 10.9132C6.19587 11.0463 6.17273 11.1793 6.10909 11.2893C6.06281 11.3876 5.95289 11.4975 5.8719 11.538C5.77934 11.5843 5.44959 11.6074 4.92893 11.6074C4.26364 11.6074 4.11322 11.5959 3.99752 11.5091C3.91653 11.4512 3.81818 11.324 3.77769 11.2198C3.72562 11.081 3.71983 10.9769 3.76033 10.8264C3.79504 10.6992 3.8876 10.5835 4.00331 10.5083C4.17686 10.4041 4.27521 10.3926 5.0157 10.4041ZM8.71818 10.4041C9.49917 10.4215 9.54545 10.4273 9.6843 10.5661C9.77107 10.6471 9.85207 10.8033 9.87521 10.9132C9.89835 11.0463 9.87521 11.1793 9.81157 11.2893C9.76529 11.3876 9.65537 11.4975 9.57438 11.538C9.48182 11.5843 9.15207 11.6074 8.6314 11.6074C7.96612 11.6074 7.8157 11.5959 7.7 11.5091C7.61901 11.4512 7.52066 11.324 7.48017 11.2198C7.4281 11.081 7.42231 10.9769 7.46281 10.8264C7.49752 10.6992 7.59008 10.5835 7.70578 10.5083C7.87934 10.4041 7.97769 10.3926 8.71818 10.4041ZM12.4207 10.4041C13.2017 10.4215 13.2479 10.4273 13.3868 10.5661C13.4736 10.6471 13.5545 10.8033 13.5777 10.9132C13.6008 11.0463 13.5777 11.1793 13.5141 11.2893C13.4678 11.3876 13.3579 11.4975 13.2769 11.538C13.1843 11.5843 12.8488 11.6132 12.3339 11.6132C11.6397 11.6132 11.524 11.6017 11.3967 11.5091C11.3157 11.4455 11.2174 11.3182 11.1711 11.2256C11.1074 11.0983 11.1074 11.0116 11.1595 10.8438C11.2 10.705 11.2868 10.5835 11.4083 10.5083C11.5818 10.4041 11.6802 10.3926 12.4207 10.4041ZM16.1231 10.4041C16.9041 10.4215 16.9504 10.4273 17.0893 10.5661C17.176 10.6471 17.257 10.8033 17.2802 10.9132C17.3033 11.0463 17.2802 11.1793 17.2165 11.2893C17.1702 11.3876 17.0603 11.4975 16.9793 11.538C16.8868 11.5843 16.557 11.6074 16.0364 11.6074C15.3711 11.6074 15.2207 11.5959 15.105 11.5091C15.024 11.4512 14.9256 11.324 14.8851 11.2198C14.8331 11.081 14.8273 10.9769 14.8678 10.8264C14.9025 10.6992 14.995 10.5835 15.1107 10.5083C15.2843 10.4041 15.3826 10.3926 16.1231 10.4041Z" fill="#838181"/>
</svg>
