<svg width="22" height="22" viewBox="0 0 22 22" fill="none" xmlns="http://www.w3.org/2000/svg">
<path d="M10.9984 5.95333C10.0006 5.95333 9.02518 6.24922 8.19552 6.80358C7.36586 7.35794 6.71921 8.14588 6.33736 9.06775C5.95551 9.98962 5.8556 11.004 6.05027 11.9827C6.24493 12.9613 6.72543 13.8603 7.431 14.5658C8.13657 15.2714 9.03552 15.7519 10.0142 15.9466C10.9928 16.1412 12.0072 16.0413 12.9291 15.6595C13.851 15.2776 14.6389 14.631 15.1933 13.8013C15.7476 12.9717 16.0435 11.9962 16.0435 10.9984C16.0421 9.66081 15.5101 8.37838 14.5643 7.43254C13.6185 6.4867 12.336 5.95472 10.9984 5.95333ZM10.9984 14.3618C10.3332 14.3618 9.68293 14.1646 9.12982 13.795C8.57671 13.4254 8.14562 12.9001 7.89105 12.2855C7.63648 11.671 7.56987 10.9947 7.69965 10.3423C7.82943 9.68982 8.14976 9.09052 8.62014 8.62014C9.09052 8.14976 9.68982 7.82943 10.3423 7.69965C10.9947 7.56987 11.671 7.63648 12.2855 7.89105C12.9001 8.14562 13.4254 8.57671 13.795 9.12982C14.1646 9.68293 14.3618 10.3332 14.3618 10.9984C14.3618 11.8905 14.0075 12.7459 13.3767 13.3767C12.7459 14.0075 11.8905 14.3618 10.9984 14.3618ZM20.2478 11.2255C20.252 11.0741 20.252 10.9227 20.2478 10.7714L21.816 8.81221C21.8982 8.70935 21.9551 8.58861 21.9821 8.45972C22.0091 8.33083 22.0055 8.19739 21.9715 8.07017C21.7144 7.10382 21.3299 6.17599 20.828 5.31113C20.7622 5.19795 20.671 5.10167 20.5615 5.02996C20.452 4.95825 20.3273 4.91308 20.1973 4.89806L17.7042 4.62058C17.6005 4.51127 17.4954 4.40616 17.3889 4.30526L17.0946 1.80584C17.0794 1.67573 17.0341 1.55096 16.9622 1.44147C16.8903 1.33198 16.7938 1.2408 16.6805 1.1752C15.8153 0.674209 14.8875 0.290033 13.9214 0.0326966C13.7941 -0.00115084 13.6606 -0.00461273 13.5317 0.0225899C13.4028 0.0497925 13.2822 0.106899 13.1794 0.189305L11.2255 1.74908C11.0741 1.74908 10.9227 1.74908 10.7714 1.74908L8.81221 0.18405C8.70935 0.101823 8.58861 0.0449077 8.45972 0.0178884C8.33083 -0.00913099 8.19739 -0.00549893 8.07017 0.0284922C7.10398 0.286031 6.17621 0.670568 5.31113 1.17205C5.19795 1.23777 5.10167 1.329 5.02996 1.43848C4.95825 1.54796 4.91308 1.67267 4.89806 1.80268L4.62058 4.30001C4.51127 4.40441 4.40616 4.50952 4.30526 4.61533L1.80584 4.90227C1.67573 4.9174 1.55096 4.96273 1.44147 5.03463C1.33198 5.10652 1.2408 5.20301 1.1752 5.31638C0.674209 6.18158 0.290033 7.10933 0.0326966 8.07542C-0.00115084 8.20273 -0.00461273 8.33621 0.0225899 8.4651C0.0497925 8.594 0.106899 8.7147 0.189305 8.81747L1.74908 10.7714C1.74908 10.9227 1.74908 11.0741 1.74908 11.2255L0.18405 13.1846C0.101823 13.2875 0.0449077 13.4082 0.0178884 13.5371C-0.00913099 13.666 -0.00549893 13.7995 0.0284922 13.9267C0.285571 14.893 0.670133 15.8209 1.17205 16.6857C1.23777 16.7989 1.329 16.8952 1.43848 16.9669C1.54796 17.0386 1.67267 17.0838 1.80268 17.0988L4.2958 17.3763C4.40021 17.4856 4.50531 17.5907 4.61112 17.6916L4.90227 20.191C4.9174 20.3211 4.96273 20.4459 5.03463 20.5554C5.10652 20.6649 5.20301 20.756 5.31638 20.8216C6.18158 21.3226 7.10933 21.7068 8.07542 21.9641C8.20273 21.998 8.33621 22.0015 8.4651 21.9743C8.594 21.9471 8.7147 21.8899 8.81747 21.8075L10.7714 20.2478C10.9227 20.252 11.0741 20.252 11.2255 20.2478L13.1846 21.816C13.2875 21.8982 13.4082 21.9551 13.5371 21.9821C13.666 22.0091 13.7995 22.0055 13.9267 21.9715C14.893 21.7144 15.8209 21.3299 16.6857 20.828C16.7989 20.7622 16.8952 20.671 16.9669 20.5615C17.0386 20.452 17.0838 20.3273 17.0988 20.1973L17.3763 17.7042C17.4856 17.6005 17.5907 17.4954 17.6916 17.3889L20.191 17.0946C20.3211 17.0794 20.4459 17.0341 20.5554 16.9622C20.6649 16.8903 20.756 16.7938 20.8216 16.6805C21.3226 15.8153 21.7068 14.8875 21.9641 13.9214C21.998 13.7941 22.0015 13.6606 21.9743 13.5317C21.9471 13.4028 21.8899 13.2822 21.8075 13.1794L20.2478 11.2255ZM18.5556 10.5423C18.5734 10.8461 18.5734 11.1507 18.5556 11.4546C18.543 11.6626 18.6082 11.8679 18.7384 12.0306L20.2299 13.8941C20.0588 14.438 19.8396 14.9656 19.5751 15.4707L17.1997 15.7398C16.9928 15.7627 16.8018 15.8616 16.6636 16.0172C16.4613 16.2448 16.2458 16.4603 16.0183 16.6626C15.8626 16.8008 15.7638 16.9918 15.7408 17.1986L15.477 19.5719C14.972 19.8366 14.4443 20.0557 13.9004 20.2267L12.0358 18.7353C11.8866 18.6161 11.7013 18.5512 11.5103 18.5514H11.4598C11.156 18.5692 10.8514 18.5692 10.5475 18.5514C10.3395 18.5388 10.1342 18.604 9.97154 18.7342L8.10275 20.2267C7.55886 20.0556 7.03125 19.8365 6.52616 19.5719L6.25708 17.1997C6.23412 16.9928 6.13525 16.8018 5.9796 16.6636C5.75206 16.4613 5.53657 16.2458 5.33425 16.0183C5.19607 15.8626 5.00507 15.7638 4.79821 15.7408L2.42491 15.4759C2.16025 14.9709 1.94111 14.4433 1.7701 13.8994L3.26156 12.0348C3.39179 11.8721 3.45696 11.6668 3.44444 11.4588C3.42658 11.1549 3.42658 10.8503 3.44444 10.5465C3.45696 10.3384 3.39179 10.1332 3.26156 9.97048L1.7701 8.10275C1.94124 7.55886 2.16037 7.03125 2.42491 6.52616L4.79716 6.25708C5.00402 6.23412 5.19502 6.13525 5.3332 5.9796C5.53552 5.75206 5.75101 5.53657 5.97855 5.33425C6.13482 5.19598 6.2341 5.00455 6.25708 4.79716L6.5209 2.42491C7.02594 2.16025 7.55356 1.94111 8.09749 1.7701L9.96208 3.26156C10.1248 3.39179 10.33 3.45696 10.5381 3.44444C10.8419 3.42658 11.1465 3.42658 11.4504 3.44444C11.6584 3.45696 11.8637 3.39179 12.0264 3.26156L13.8941 1.7701C14.438 1.94124 14.9656 2.16037 15.4707 2.42491L15.7398 4.79716C15.7627 5.00402 15.8616 5.19502 16.0172 5.3332C16.2448 5.53552 16.4603 5.75101 16.6626 5.97855C16.8008 6.1342 16.9918 6.23307 17.1986 6.25603L19.5719 6.51985C19.8366 7.02489 20.0557 7.5525 20.2267 8.09644L18.7353 9.96103C18.6038 10.1251 18.5386 10.3325 18.5524 10.5423H18.5556Z" fill="#F7AF1A"/>
</svg>
