<svg width="24" height="23" viewBox="0 0 24 23" fill="none" xmlns="http://www.w3.org/2000/svg">
<path d="M13.4442 5.75003V10.9574L17.78 13.5532C17.9983 13.6841 18.1557 13.8963 18.2174 14.1429C18.2791 14.3896 18.24 14.6506 18.1089 14.8686C17.9777 15.0865 17.7651 15.2435 17.518 15.3051C17.2708 15.3666 17.0092 15.3277 16.7908 15.1968L11.9893 12.3218C11.8472 12.2366 11.7297 12.1161 11.648 11.9721C11.5664 11.8281 11.5235 11.6655 11.5236 11.5V5.75003C11.5236 5.49586 11.6248 5.25211 11.8049 5.07238C11.985 4.89266 12.2292 4.7917 12.4839 4.7917C12.7386 4.7917 12.9828 4.89266 13.1629 5.07238C13.343 5.25211 13.4442 5.49586 13.4442 5.75003ZM12.4839 3.54717e-05C10.969 -0.00373023 9.46844 0.292367 8.06899 0.871192C6.66954 1.45002 5.39902 2.30007 4.33095 3.37217C3.45828 4.25383 2.68284 5.10196 1.9206 5.98961V3.83336C1.9206 3.5792 1.81943 3.33544 1.63933 3.15572C1.45924 2.976 1.21499 2.87503 0.9603 2.87503C0.705613 2.87503 0.461356 2.976 0.281265 3.15572C0.101174 3.33544 0 3.5792 0 3.83336V8.62502C0 8.87919 0.101174 9.12294 0.281265 9.30267C0.461356 9.48239 0.705613 9.58335 0.9603 9.58335H5.7618C6.01649 9.58335 6.26074 9.48239 6.44083 9.30267C6.62093 9.12294 6.7221 8.87919 6.7221 8.62502C6.7221 8.37086 6.62093 8.1271 6.44083 7.94738C6.26074 7.76766 6.01649 7.66669 5.7618 7.66669H3.00094C3.85921 6.65805 4.71387 5.7081 5.68858 4.72341C7.02322 3.39151 8.72157 2.48165 10.5714 2.1075C12.4213 1.73335 14.3406 1.91152 16.0896 2.61974C17.8385 3.32796 19.3396 4.53482 20.4052 6.08953C21.4707 7.64423 22.0536 9.47784 22.0809 11.3612C22.1082 13.2446 21.5787 15.0943 20.5587 16.6791C19.5386 18.2639 18.0732 19.5136 16.3454 20.272C14.6177 21.0304 12.7044 21.2639 10.8445 20.9434C8.98454 20.6228 7.26053 19.7623 5.88784 18.4695C5.7961 18.383 5.68817 18.3153 5.57023 18.2704C5.4523 18.2255 5.32665 18.2042 5.20047 18.2078C5.07429 18.2114 4.95005 18.2397 4.83484 18.2912C4.71964 18.3426 4.61571 18.4163 4.52901 18.5078C4.44232 18.5994 4.37454 18.7071 4.32954 18.8248C4.28455 18.9425 4.26323 19.0679 4.2668 19.1938C4.27037 19.3197 4.29875 19.4437 4.35033 19.5587C4.40191 19.6736 4.47568 19.7773 4.56743 19.8639C5.93519 21.1519 7.59807 22.0864 9.41094 22.5856C11.2238 23.0849 13.1316 23.1338 14.9677 22.728C16.8039 22.3223 18.5126 21.4742 19.9448 20.2579C21.377 19.0416 22.4892 17.4939 23.1842 15.75C23.8792 14.0061 24.136 12.1189 23.9321 10.2532C23.7282 8.3875 23.0698 6.59994 22.0145 5.04653C20.9591 3.49313 19.5388 2.22109 17.8775 1.34144C16.2163 0.461789 14.3645 0.00125702 12.4839 3.54717e-05Z" fill="black"/>
</svg>
