<svg width="23" height="24" viewBox="0 0 23 24" fill="none" xmlns="http://www.w3.org/2000/svg">
<path d="M22.4382 10.1618L12.8548 0.561903C12.4954 0.20211 12.0081 0 11.5 0C10.9919 0 10.5046 0.20211 10.1452 0.561903L0.561834 10.1618C0.382991 10.3396 0.241222 10.5513 0.144772 10.7845C0.0483222 11.0177 -0.000884848 11.2677 1.20432e-05 11.5202V23.04C1.20432e-05 23.2946 0.100979 23.5388 0.280701 23.7188C0.460423 23.8989 0.704179 24 0.958344 24H8.625C8.87917 24 9.12292 23.8989 9.30265 23.7188C9.48237 23.5388 9.58334 23.2946 9.58334 23.04V16.3201H13.4167V23.04C13.4167 23.2946 13.5176 23.5388 13.6974 23.7188C13.8771 23.8989 14.1208 24 14.375 24H22.0417C22.2958 24 22.5396 23.8989 22.7193 23.7188C22.899 23.5388 23 23.2946 23 23.04V11.5202C23.0009 11.2677 22.9517 11.0177 22.8552 10.7845C22.7588 10.5513 22.617 10.3396 22.4382 10.1618ZM21.0833 22.08H15.3333V15.3601C15.3333 15.1055 15.2324 14.8613 15.0526 14.6813C14.8729 14.5013 14.6292 14.4001 14.375 14.4001H8.625C8.37084 14.4001 8.12708 14.5013 7.94736 14.6813C7.76764 14.8613 7.66667 15.1055 7.66667 15.3601V22.08H1.91668V11.5202L11.5 1.92029L21.0833 11.5202V22.08Z" fill="black"/>
</svg>
