<svg width="10" height="10" viewBox="0 0 10 10" fill="none" xmlns="http://www.w3.org/2000/svg">
<path d="M9.62963 9.2304H7.3778C8.35895 8.58815 9.0839 7.59941 9.41929 6.44606C9.75467 5.29271 9.67793 4.05233 9.20319 2.95308C8.72845 1.85383 7.88763 0.969653 6.83541 0.463197C5.78319 -0.043259 4.59033 -0.137931 3.47628 0.196597C2.36223 0.531125 1.4019 1.27235 0.771963 2.28393C0.142023 3.2955 -0.115162 4.50939 0.0477177 5.70228C0.210597 6.89517 0.782586 7.98685 1.65846 8.77648C2.53434 9.56611 3.6552 10.0006 4.81485 10H9.62963C9.72786 10 9.82206 9.95946 9.89152 9.88729C9.96098 9.81513 10 9.71725 10 9.6152C10 9.51314 9.96098 9.41527 9.89152 9.3431C9.82206 9.27094 9.72786 9.2304 9.62963 9.2304ZM0.740803 4.9976C0.740803 4.16043 0.979742 3.34206 1.4274 2.64598C1.87507 1.9499 2.51134 1.40737 3.25578 1.087C4.00021 0.766625 4.81937 0.682802 5.60966 0.846125C6.39994 1.00945 7.12587 1.41258 7.69564 2.00455C8.2654 2.59652 8.65342 3.35073 8.81061 4.17182C8.96781 4.9929 8.88713 5.84398 8.57878 6.61742C8.27042 7.39086 7.74824 8.05194 7.07827 8.51704C6.4083 8.98215 5.62062 9.2304 4.81485 9.2304C3.73472 9.22913 2.69918 8.78276 1.93542 7.98923C1.17165 7.1957 0.742029 6.11981 0.740803 4.9976ZM4.81485 3.8432C5.03461 3.8432 5.24943 3.77549 5.43215 3.64864C5.61487 3.5218 5.75728 3.3415 5.84138 3.13056C5.92547 2.91963 5.94748 2.68751 5.9046 2.46358C5.86173 2.23965 5.75591 2.03396 5.60052 1.87251C5.44513 1.71106 5.24715 1.60112 5.03162 1.55658C4.81608 1.51203 4.59268 1.53489 4.38965 1.62227C4.18662 1.70964 4.01309 1.8576 3.891 2.04744C3.76891 2.23728 3.70375 2.46048 3.70375 2.68879C3.70375 2.99496 3.82081 3.28859 4.02918 3.50508C4.23755 3.72157 4.52017 3.8432 4.81485 3.8432ZM4.81485 2.30399C4.8881 2.30399 4.95971 2.32656 5.02062 2.36884C5.08152 2.41113 5.12899 2.47122 5.15702 2.54154C5.18506 2.61185 5.19239 2.68922 5.1781 2.76387C5.16381 2.83851 5.12854 2.90707 5.07674 2.96089C5.02494 3.0147 4.95895 3.05135 4.8871 3.0662C4.81526 3.08105 4.74079 3.07343 4.67312 3.0443C4.60544 3.01518 4.5476 2.96586 4.5069 2.90258C4.4662 2.8393 4.44448 2.7649 4.44448 2.68879C4.44448 2.58674 4.4835 2.48886 4.55296 2.4167C4.62242 2.34454 4.71662 2.30399 4.81485 2.30399ZM5.92595 7.3064C5.92595 7.07808 5.86079 6.85489 5.7387 6.66505C5.61661 6.47521 5.44308 6.32724 5.24005 6.23987C5.03702 6.1525 4.81362 6.12964 4.59808 6.17418C4.38255 6.21872 4.18457 6.32867 4.02918 6.49011C3.87379 6.65156 3.76797 6.85725 3.7251 7.08118C3.68222 7.30512 3.70423 7.53723 3.78832 7.74817C3.87242 7.95911 4.01483 8.1394 4.19755 8.26625C4.38027 8.39309 4.59509 8.4608 4.81485 8.4608C5.10953 8.4608 5.39215 8.33917 5.60052 8.12268C5.80889 7.90619 5.92595 7.61256 5.92595 7.3064ZM4.44448 7.3064C4.44448 7.23029 4.4662 7.15589 4.5069 7.09261C4.5476 7.02933 4.60544 6.98001 4.67312 6.95089C4.74079 6.92176 4.81526 6.91414 4.8871 6.92899C4.95895 6.94384 5.02494 6.98049 5.07674 7.0343C5.12854 7.08812 5.16381 7.15668 5.1781 7.23133C5.19239 7.30597 5.18506 7.38334 5.15702 7.45365C5.12899 7.52397 5.08152 7.58406 5.02062 7.62635C4.95971 7.66863 4.8881 7.6912 4.81485 7.6912C4.71662 7.6912 4.62242 7.65066 4.55296 7.57849C4.4835 7.50633 4.44448 7.40845 4.44448 7.3064ZM7.03706 6.152C7.25681 6.152 7.47163 6.08429 7.65435 5.95745C7.83707 5.8306 7.97949 5.65031 8.06358 5.43937C8.14768 5.22843 8.16968 4.99632 8.12681 4.77238C8.08394 4.54845 7.97812 4.34276 7.82273 4.18131C7.66734 4.01987 7.46936 3.90992 7.25382 3.86538C7.03829 3.82083 6.81488 3.84369 6.61186 3.93107C6.40883 4.01844 6.2353 4.16641 6.11321 4.35625C5.99112 4.54609 5.92595 4.76928 5.92595 4.9976C5.92595 5.30376 6.04302 5.59739 6.25139 5.81388C6.45976 6.03037 6.74237 6.152 7.03706 6.152ZM7.03706 4.6128C7.11031 4.6128 7.18192 4.63536 7.24282 4.67765C7.30373 4.71993 7.3512 4.78003 7.37923 4.85034C7.40726 4.92065 7.4146 4.99802 7.40031 5.07267C7.38602 5.14731 7.35074 5.21588 7.29895 5.26969C7.24715 5.32351 7.18116 5.36015 7.10931 5.375C7.03747 5.38985 6.963 5.38223 6.89532 5.35311C6.82765 5.32398 6.7698 5.27466 6.72911 5.21138C6.68841 5.1481 6.66669 5.0737 6.66669 4.9976C6.66669 4.89554 6.70571 4.79767 6.77517 4.7255C6.84462 4.65334 6.93883 4.6128 7.03706 4.6128ZM2.59264 3.8432C2.37289 3.8432 2.15807 3.9109 1.97535 4.03775C1.79263 4.16459 1.65021 4.34489 1.56612 4.55583C1.48202 4.76677 1.46002 4.99888 1.50289 5.22281C1.54576 5.44674 1.65158 5.65243 1.80697 5.81388C1.96236 5.97533 2.16034 6.08527 2.37588 6.12982C2.59141 6.17436 2.81482 6.1515 3.01784 6.06412C3.22087 5.97675 3.3944 5.82879 3.51649 5.63895C3.63858 5.44911 3.70375 5.22591 3.70375 4.9976C3.70375 4.69143 3.58668 4.3978 3.37831 4.18131C3.16994 3.96482 2.88733 3.8432 2.59264 3.8432ZM2.59264 5.3824C2.51939 5.3824 2.44778 5.35983 2.38688 5.31755C2.32597 5.27526 2.2785 5.21517 2.25047 5.14485C2.22243 5.07454 2.2151 4.99717 2.22939 4.92252C2.24368 4.84788 2.27896 4.77932 2.33075 4.7255C2.38255 4.67169 2.44854 4.63504 2.52039 4.62019C2.59223 4.60534 2.6667 4.61296 2.73438 4.64209C2.80205 4.67121 2.8599 4.72053 2.90059 4.78381C2.94129 4.84709 2.96301 4.92149 2.96301 4.9976C2.96301 5.09965 2.92399 5.19753 2.85453 5.26969C2.78507 5.34186 2.69087 5.3824 2.59264 5.3824Z" fill="#838181"/>
</svg>
