<svg width="68" height="27" viewBox="0 0 68 27" fill="none" xmlns="http://www.w3.org/2000/svg">
<g filter="url(#filter0_d_1869_878)">
<path d="M2 1.5H59.8519V17.6866C59.8519 20.746 57.1288 23.088 54.1038 22.6303L30.1111 19L7.79034 22.5731C4.7523 23.0594 2 20.7127 2 17.6359V1.5Z" fill="url(#paint0_linear_1869_878)"/>
</g>
<path d="M1.99999 1.5C0.913571 1.82593 0.460896 2.72222 0.370361 3.12963H1.99999V1.5Z" fill="#910202"/>
<path d="M59.8518 1.5C60.9382 1.82593 61.3909 2.72222 61.4814 3.12963H59.8518V1.5Z" fill="#910202"/>
<path d="M10.6264 14V6.272H14.0704C14.6624 6.272 15.1504 6.384 15.5344 6.608C15.9184 6.832 16.2024 7.14 16.3864 7.532C16.5704 7.916 16.6624 8.356 16.6624 8.852C16.6624 9.62 16.4224 10.236 15.9424 10.7C15.4704 11.164 14.8304 11.396 14.0224 11.396H11.9344V14H10.6264ZM11.9344 10.364H13.7824C14.3024 10.364 14.6944 10.228 14.9584 9.956C15.2224 9.684 15.3544 9.316 15.3544 8.852C15.3544 8.356 15.2264 7.972 14.9704 7.7C14.7224 7.428 14.3464 7.292 13.8424 7.292H11.9344V10.364ZM20.4285 14.12C19.4045 14.12 18.6525 13.864 18.1725 13.352C17.7005 12.84 17.4645 12.108 17.4645 11.156C17.4645 10.204 17.7045 9.472 18.1845 8.96C18.6645 8.448 19.4125 8.192 20.4285 8.192C21.4525 8.192 22.2045 8.448 22.6845 8.96C23.1645 9.472 23.4045 10.204 23.4045 11.156C23.4045 12.108 23.1645 12.84 22.6845 13.352C22.2125 13.864 21.4605 14.12 20.4285 14.12ZM20.4285 13.016C21.0285 13.016 21.4525 12.872 21.7005 12.584C21.9565 12.288 22.0845 11.812 22.0845 11.156C22.0845 10.5 21.9565 10.028 21.7005 9.74C21.4525 9.452 21.0285 9.308 20.4285 9.308C19.8365 9.308 19.4125 9.452 19.1565 9.74C18.9085 10.028 18.7845 10.5 18.7845 11.156C18.7845 11.812 18.9085 12.288 19.1565 12.584C19.4125 12.872 19.8365 13.016 20.4285 13.016ZM24.6771 16.592V8.312H25.8051L25.8771 8.876C26.1331 8.644 26.4131 8.472 26.7171 8.36C27.0211 8.248 27.3811 8.192 27.7971 8.192C28.6131 8.192 29.2491 8.416 29.7051 8.864C30.1611 9.304 30.3891 10.036 30.3891 11.06C30.3891 12.084 30.1531 12.852 29.6811 13.364C29.2091 13.868 28.5651 14.12 27.7491 14.12C27.0611 14.12 26.4731 13.96 25.9851 13.64V16.592H24.6771ZM27.4131 13.136C28.5171 13.136 29.0691 12.44 29.0691 11.048C29.0691 10.376 28.9451 9.9 28.6971 9.62C28.4491 9.332 28.0331 9.188 27.4491 9.188C26.8651 9.188 26.3771 9.388 25.9851 9.788V12.632C26.1691 12.784 26.3731 12.908 26.5971 13.004C26.8291 13.092 27.1011 13.136 27.4131 13.136ZM33.7135 14.12C33.0335 14.12 32.5095 13.932 32.1415 13.556C31.7815 13.18 31.6015 12.628 31.6015 11.9V8.312H32.9095V11.9C32.9095 12.324 33.0135 12.636 33.2215 12.836C33.4295 13.036 33.7495 13.136 34.1815 13.136C34.5015 13.136 34.7975 13.076 35.0695 12.956C35.3415 12.836 35.5775 12.676 35.7775 12.476V8.312H37.0735V14H35.8855L35.8255 13.412C35.5695 13.612 35.2655 13.78 34.9135 13.916C34.5615 14.052 34.1615 14.12 33.7135 14.12ZM40.015 14.12C39.551 14.12 39.199 14.008 38.959 13.784C38.719 13.552 38.599 13.172 38.599 12.644V5.912H39.907V12.524C39.907 12.748 39.947 12.9 40.027 12.98C40.107 13.06 40.227 13.1 40.387 13.1C40.579 13.1 40.763 13.076 40.939 13.028V13.976C40.787 14.032 40.639 14.068 40.495 14.084C40.359 14.108 40.199 14.12 40.015 14.12ZM43.7383 14.12C43.3783 14.12 43.0423 14.056 42.7303 13.928C42.4263 13.8 42.1823 13.608 41.9983 13.352C41.8143 13.088 41.7223 12.764 41.7223 12.38C41.7223 11.836 41.9063 11.4 42.2743 11.072C42.6503 10.736 43.2263 10.568 44.0023 10.568H45.8263V10.316C45.8263 10.044 45.7823 9.828 45.6943 9.668C45.6143 9.508 45.4623 9.392 45.2383 9.32C45.0223 9.248 44.7023 9.212 44.2783 9.212C43.6063 9.212 42.9783 9.312 42.3943 9.512V8.54C42.6503 8.436 42.9623 8.352 43.3303 8.288C43.6983 8.224 44.0943 8.192 44.5183 8.192C45.3503 8.192 45.9823 8.36 46.4143 8.696C46.8543 9.032 47.0743 9.58 47.0743 10.34V14H45.9583L45.8743 13.424C45.6423 13.648 45.3543 13.82 45.0103 13.94C44.6743 14.06 44.2503 14.12 43.7383 14.12ZM44.0863 13.184C44.4783 13.184 44.8183 13.12 45.1063 12.992C45.4023 12.856 45.6423 12.676 45.8263 12.452V11.456H44.0263C43.6423 11.456 43.3623 11.532 43.1863 11.684C43.0183 11.828 42.9343 12.052 42.9343 12.356C42.9343 12.652 43.0343 12.864 43.2343 12.992C43.4343 13.12 43.7183 13.184 44.0863 13.184ZM48.5248 14V8.312H49.7248L49.7968 8.972C50.0688 8.796 50.3928 8.636 50.7688 8.492C51.1448 8.348 51.5168 8.248 51.8848 8.192V9.188C51.6608 9.228 51.4168 9.288 51.1528 9.368C50.8968 9.44 50.6528 9.524 50.4208 9.62C50.1888 9.708 49.9928 9.8 49.8328 9.896V14H48.5248Z" fill="white"/>
<defs>
<filter id="filter0_d_1869_878" x="0" y="1.5" width="61.8518" height="25.1876" filterUnits="userSpaceOnUse" color-interpolation-filters="sRGB">
<feFlood flood-opacity="0" result="BackgroundImageFix"/>
<feColorMatrix in="SourceAlpha" type="matrix" values="0 0 0 0 0 0 0 0 0 0 0 0 0 0 0 0 0 0 127 0" result="hardAlpha"/>
<feOffset dy="2"/>
<feGaussianBlur stdDeviation="1"/>
<feComposite in2="hardAlpha" operator="out"/>
<feColorMatrix type="matrix" values="0 0 0 0 0 0 0 0 0 0 0 0 0 0 0 0 0 0 0.25 0"/>
<feBlend mode="normal" in2="BackgroundImageFix" result="effect1_dropShadow_1869_878"/>
<feBlend mode="normal" in="SourceGraphic" in2="effect1_dropShadow_1869_878" result="shape"/>
</filter>
<linearGradient id="paint0_linear_1869_878" x1="26.037" y1="-1.5" x2="26.037" y2="31" gradientUnits="userSpaceOnUse">
<stop stop-color="#BE0202"/>
<stop offset="0.177885" stop-color="#FF2B2B"/>
<stop offset="1" stop-color="#990000"/>
</linearGradient>
</defs>
</svg>
