<svg width="22" height="21" viewBox="0 0 22 21" fill="none" xmlns="http://www.w3.org/2000/svg">
<path d="M21.9202 7.90023C21.822 7.60129 21.6365 7.33782 21.3873 7.14301C21.138 6.9482 20.8361 6.83076 20.5196 6.80549L14.7246 6.34271L12.4871 0.986681C12.3661 0.694834 12.1601 0.445194 11.8954 0.269502C11.6307 0.0938096 11.3192 0 11.0005 0C10.6818 0 10.3703 0.0938096 10.1056 0.269502C9.84089 0.445194 9.63494 0.694834 9.51394 0.986681L7.27844 6.34174L1.48047 6.80549C1.16339 6.83204 0.861273 6.95061 0.611974 7.14636C0.362676 7.34211 0.17728 7.60633 0.0790152 7.90592C-0.0192494 8.2055 -0.0260127 8.52713 0.0595725 8.83051C0.145158 9.13388 0.319285 9.40551 0.560139 9.61136L4.98007 13.3865L3.63347 19.0313C3.55815 19.338 3.57659 19.6599 3.68644 19.9562C3.7963 20.2524 3.9926 20.5097 4.25045 20.6954C4.50829 20.881 4.81605 20.9866 5.13465 20.9988C5.45325 21.011 5.76832 20.9292 6.03987 20.7638L11 17.7421L15.9631 20.7638C16.2348 20.9273 16.5492 21.0075 16.8668 20.9944C17.1844 20.9813 17.491 20.8754 17.748 20.6902C18.0049 20.505 18.2008 20.2486 18.3109 19.9534C18.421 19.6582 18.4403 19.3374 18.3666 19.0313L17.0151 13.3856L21.435 9.61038C21.6778 9.40488 21.8535 9.13266 21.9399 8.82822C22.0263 8.52378 22.0194 8.20081 21.9202 7.90023ZM20.4135 8.43204L15.6301 12.5154C15.5211 12.6085 15.4399 12.7294 15.3956 12.8651C15.3512 13.0007 15.3454 13.1458 15.3787 13.2845L16.8402 19.3901C16.844 19.3985 16.8444 19.408 16.8413 19.4167C16.8382 19.4254 16.8318 19.4326 16.8235 19.4367C16.8058 19.4503 16.8009 19.4474 16.7862 19.4367L11.4116 16.1652C11.2878 16.0898 11.1453 16.05 11 16.05C10.8547 16.05 10.7123 16.0898 10.5885 16.1652L5.21384 19.4387C5.1991 19.4474 5.19518 19.4503 5.17651 19.4387C5.16822 19.4345 5.16187 19.4273 5.15876 19.4186C5.15566 19.41 5.15603 19.4004 5.15982 19.392L6.62134 13.2864C6.65465 13.1477 6.64881 13.0026 6.60447 12.867C6.56012 12.7314 6.47898 12.6104 6.36989 12.5174L1.58655 8.43398C1.57476 8.42426 1.56396 8.41551 1.57378 8.38537C1.5836 8.35523 1.59146 8.35912 1.60619 8.35718L7.88446 7.8555C8.02846 7.84328 8.16626 7.79198 8.28271 7.70724C8.39916 7.6225 8.48975 7.50762 8.5445 7.37522L10.9627 1.57974C10.9706 1.56321 10.9735 1.55544 10.9971 1.55544C11.0206 1.55544 11.0236 1.56321 11.0315 1.57974L13.4555 7.37522C13.5108 7.50767 13.602 7.62243 13.719 7.70684C13.8359 7.79125 13.9742 7.84202 14.1185 7.85356L20.3968 8.35523C20.4115 8.35523 20.4204 8.35523 20.4292 8.38343C20.438 8.41162 20.4292 8.42232 20.4135 8.43204Z" fill="black"/>
</svg>
