<svg width="24" height="21" viewBox="0 0 24 21" fill="none" xmlns="http://www.w3.org/2000/svg">
<path d="M16.2046 7.79625L10.6662 3.97807C10.5271 3.88213 10.3655 3.82704 10.1985 3.81868C10.0316 3.81031 9.86553 3.84899 9.71817 3.93057C9.5708 4.01216 9.44762 4.13359 9.36178 4.28191C9.27594 4.43023 9.23066 4.59987 9.23077 4.77273V12.4091C9.23066 12.5819 9.27594 12.7516 9.36178 12.8999C9.44762 13.0482 9.5708 13.1697 9.71817 13.2512C9.86553 13.3328 10.0316 13.3715 10.1985 13.3631C10.3655 13.3548 10.5271 13.2997 10.6662 13.2038L16.2046 9.38557C16.3312 9.29843 16.4351 9.1803 16.5069 9.04166C16.5787 8.90302 16.6163 8.74819 16.6163 8.59091C16.6163 8.43363 16.5787 8.27879 16.5069 8.14016C16.4351 8.00152 16.3312 7.88338 16.2046 7.79625ZM11.0769 10.6253V6.5625L14.0285 8.59091L11.0769 10.6253ZM22.1538 0H1.84615C1.35652 0 0.886947 0.201136 0.540726 0.55916C0.194505 0.917184 0 1.40277 0 1.90909V15.2727C0 15.779 0.194505 16.2646 0.540726 16.6227C0.886947 16.9807 1.35652 17.1818 1.84615 17.1818H22.1538C22.6435 17.1818 23.1131 16.9807 23.4593 16.6227C23.8055 16.2646 24 15.779 24 15.2727V1.90909C24 1.40277 23.8055 0.917184 23.4593 0.55916C23.1131 0.201136 22.6435 0 22.1538 0ZM22.1538 15.2727H1.84615V1.90909H22.1538V15.2727ZM24 20.0455C24 20.2986 23.9027 20.5414 23.7296 20.7204C23.5565 20.8994 23.3217 21 23.0769 21H0.923077C0.678262 21 0.443473 20.8994 0.270363 20.7204C0.0972524 20.5414 0 20.2986 0 20.0455C0 19.7923 0.0972524 19.5495 0.270363 19.3705C0.443473 19.1915 0.678262 19.0909 0.923077 19.0909H23.0769C23.3217 19.0909 23.5565 19.1915 23.7296 19.3705C23.9027 19.5495 24 19.7923 24 20.0455Z" fill="black"/>
</svg>
